<?xml version="1.0" encoding="utf-8"?>
<!-- Generator: Adobe Illustrator 28.0.0, SVG Export Plug-In . SVG Version: 6.00 Build 0)  -->
<svg version="1.1" xmlns="http://www.w3.org/2000/svg" xmlns:xlink="http://www.w3.org/1999/xlink" x="0px" y="0px"
	 viewBox="0 0 53.3 53.3" style="enable-background:new 0 0 53.3 53.3;" xml:space="preserve">
<style type="text/css">
	.st0{fill:url(#SVGID_1_);}
	.st1{fill:url(#SVGID_00000170240233075763703840000004441152638889096624_);}
	.st2{fill:url(#SVGID_00000176723788671278393590000006930289461992749222_);}
	.st3{fill:url(#SVGID_00000029024414261990390840000000668063155055231392_);}
	.st4{fill:url(#SVGID_00000090987617703449269430000009195313924770788262_);}
	.st5{fill:none;stroke:#FFFFFF;stroke-width:5;stroke-linejoin:round;stroke-miterlimit:10;}
	.st6{fill:none;stroke:#FFFFFF;stroke-width:5;stroke-linecap:round;stroke-miterlimit:10;}
	.st7{fill:#FFFFFF;}
	.st8{fill:none;stroke:#FFFFFF;stroke-width:5;stroke-miterlimit:10;}
	.st9{clip-path:url(#XMLID_00000085933519870407634530000004875288652592668861_);}
	.st10{fill:url(#SVGID_00000061450445389606444530000000945443082572039060_);}
	.st11{fill:none;stroke:#FFFFFF;stroke-width:1.5587;stroke-linejoin:round;stroke-miterlimit:10;}
	.st12{fill:url(#SVGID_00000013171738434975129620000007054124939095568041_);}
	.st13{fill:none;stroke:#FFFFFF;stroke-width:1.5587;stroke-linecap:round;stroke-miterlimit:10;}
	.st14{fill:url(#SVGID_00000183965998102297454450000006619622094440325552_);}
	.st15{fill:none;stroke:#FFFFFF;stroke-width:1.5587;stroke-miterlimit:10;}
	.st16{clip-path:url(#XMLID_00000099623778996993328100000016161426065007535017_);}
	.st17{fill:#B7E2BD;}
	.st18{fill:url(#SVGID_00000010276462315814594870000016021651723093910149_);}
	
		.st19{clip-path:url(#XMLID_00000099623778996993328100000016161426065007535017_);fill:url(#SVGID_00000111875004008595198330000017307783306099198113_);}
	.st20{fill:none;stroke:#B7E2BD;stroke-width:1.5587;stroke-linecap:round;stroke-miterlimit:10;}
	
		.st21{clip-path:url(#XMLID_00000099623778996993328100000016161426065007535017_);fill:url(#SVGID_00000084532424711797908310000005658956761434077075_);}
	
		.st22{clip-path:url(#XMLID_00000099623778996993328100000016161426065007535017_);fill:none;stroke:#B7E2BD;stroke-width:1.5587;stroke-miterlimit:10;}
	.st23{clip-path:url(#XMLID_00000040538052040086032890000000297722749497618051_);}
	.st24{fill:url(#SVGID_00000012474696037546716630000009070579063898927541_);}
	.st25{fill:none;stroke:#FFFFFF;stroke-width:2;stroke-linejoin:round;stroke-miterlimit:10;}
	.st26{fill:none;stroke:#FFFFFF;stroke-width:2;stroke-linecap:round;stroke-miterlimit:10;}
	.st27{fill:none;stroke:#FFFFFF;stroke-width:2;stroke-miterlimit:10;}
</style>
<g id="Layer_1">
</g>
<g id="Layer_2">
	<g>
		<g>
			<circle class="st25" cx="26.7" cy="26.7" r="25.7"/>
			<circle class="st27" cx="26.7" cy="26.6" r="5.1"/>
			<path class="st27" d="M29.7,9.8c-0.6-0.3-1.4-0.3-3-0.3s-2.4,0-3,0.3c-0.8,0.3-1.5,1-1.8,1.8c-0.2,0.4-0.2,0.8-0.2,1.5
				c0,1-0.5,1.8-1.4,2.3c-0.8,0.5-1.8,0.5-2.7,0c-0.6-0.3-1-0.5-1.4-0.5c-0.9-0.1-1.8,0.1-2.5,0.7c-0.5,0.4-0.9,1.1-1.7,2.5
				c-0.8,1.4-1.2,2.1-1.3,2.7c-0.1,0.9,0.1,1.8,0.7,2.5c0.3,0.3,0.6,0.6,1.2,0.9c0.8,0.5,1.3,1.4,1.3,2.3c0,1-0.5,1.8-1.3,2.3
				c-0.5,0.3-0.9,0.6-1.2,0.9c-0.6,0.7-0.8,1.6-0.7,2.5c0.1,0.7,0.5,1.4,1.3,2.7c0.8,1.4,1.2,2.1,1.7,2.5c0.7,0.6,1.6,0.8,2.5,0.7
				c0.4-0.1,0.8-0.2,1.4-0.5c0.8-0.4,1.9-0.5,2.7,0c0.8,0.5,1.3,1.4,1.4,2.3c0,0.6,0.1,1.1,0.2,1.5c0.3,0.8,1,1.5,1.8,1.8
				c0.6,0.3,1.4,0.3,3,0.3s2.4,0,3-0.3c0.8-0.3,1.5-1,1.8-1.8c0.2-0.4,0.2-0.8,0.2-1.5c0-1,0.5-1.8,1.4-2.3c0.8-0.5,1.8-0.5,2.7,0
				c0.6,0.3,1,0.5,1.4,0.5c0.9,0.1,1.8-0.1,2.5-0.7c0.5-0.4,0.9-1.1,1.7-2.5c0.8-1.4,1.2-2.1,1.3-2.7c0.1-0.9-0.1-1.8-0.7-2.5
				c-0.3-0.3-0.6-0.6-1.2-0.9c-0.8-0.5-1.3-1.4-1.3-2.3c0-1,0.5-1.8,1.3-2.3c0.5-0.3,0.9-0.6,1.2-0.9c0.6-0.7,0.8-1.6,0.7-2.5
				c-0.1-0.7-0.5-1.4-1.3-2.7c-0.8-1.4-1.2-2.1-1.7-2.5c-0.7-0.6-1.6-0.8-2.5-0.7c-0.4,0.1-0.8,0.2-1.4,0.5c-0.8,0.4-1.9,0.5-2.7,0
				c-0.8-0.5-1.3-1.4-1.4-2.3c0-0.6-0.1-1.1-0.2-1.5C31.2,10.9,30.5,10.2,29.7,9.8z"/>
		</g>
	</g>
</g>
</svg>
