<?xml version="1.0" encoding="UTF-8"?>
<svg id="Layer_2" data-name="Layer 2" xmlns="http://www.w3.org/2000/svg" xmlns:xlink="http://www.w3.org/1999/xlink" viewBox="0 0 776.9 1065.65">
  <defs>
    <style>
      .cls-1 {
        fill: url(#linear-gradient-12);
      }

      .cls-1, .cls-2, .cls-3, .cls-4, .cls-5, .cls-6, .cls-7, .cls-8, .cls-9, .cls-10, .cls-11, .cls-12, .cls-13, .cls-14, .cls-15, .cls-16, .cls-17, .cls-18, .cls-19 {
        stroke-width: 0px;
      }

      .cls-2 {
        fill: url(#linear-gradient);
      }

      .cls-3 {
        fill: #774f38;
      }

      .cls-4 {
        fill: url(#linear-gradient-6);
      }

      .cls-5 {
        fill: url(#linear-gradient-15);
      }

      .cls-6 {
        fill: url(#linear-gradient-11);
      }

      .cls-7 {
        fill: url(#linear-gradient-5);
      }

      .cls-8 {
        fill: url(#linear-gradient-13);
      }

      .cls-9 {
        fill: url(#linear-gradient-16);
      }

      .cls-10 {
        fill: url(#linear-gradient-14);
      }

      .cls-11 {
        fill: url(#linear-gradient-2);
      }

      .cls-12 {
        fill: url(#linear-gradient-7);
      }

      .cls-13 {
        fill: url(#linear-gradient-3);
      }

      .cls-14 {
        fill: url(#linear-gradient-9);
      }

      .cls-15 {
        fill: url(#linear-gradient-8);
      }

      .cls-16 {
        fill: #de8c78;
      }

      .cls-17 {
        fill: #6a4631;
      }

      .cls-18 {
        fill: url(#linear-gradient-10);
      }

      .cls-19 {
        fill: url(#linear-gradient-4);
      }
    </style>
    <linearGradient id="linear-gradient" x1="280.21" y1="643.25" x2="389.3" y2="643.25" gradientUnits="userSpaceOnUse">
      <stop offset="0" stop-color="#89ab5b"/>
      <stop offset="1" stop-color="#498736"/>
    </linearGradient>
    <linearGradient id="linear-gradient-2" x1="-60.5" y1="-2289.1" x2="-151.45" y2="-2328.08" gradientTransform="translate(-1791.61 1623.41) rotate(64.03)" gradientUnits="userSpaceOnUse">
      <stop offset="0" stop-color="#89ab5b"/>
      <stop offset=".35" stop-color="#47772a"/>
      <stop offset="1" stop-color="#498736"/>
    </linearGradient>
    <linearGradient id="linear-gradient-3" x1="-129.17" y1="-2361.8" x2="12.01" y2="-2361.8" gradientTransform="translate(-1791.61 1623.41) rotate(64.03)" xlink:href="#linear-gradient"/>
    <linearGradient id="linear-gradient-4" x1="1.69" y1="-2265.88" x2="-64.52" y2="-2300.61" gradientTransform="translate(-1791.61 1623.41) rotate(64.03)" xlink:href="#linear-gradient"/>
    <linearGradient id="linear-gradient-5" x1="169.44" y1="577.16" x2="420.97" y2="577.16" xlink:href="#linear-gradient"/>
    <linearGradient id="linear-gradient-6" x1="23.61" y1="343.96" x2="113.12" y2="447.69" xlink:href="#linear-gradient"/>
    <linearGradient id="linear-gradient-7" x1="139.46" y1="421.54" x2="196.35" y2="488.47" xlink:href="#linear-gradient"/>
    <linearGradient id="linear-gradient-8" x1="225.13" y1="483.8" x2="433.94" y2="483.8" xlink:href="#linear-gradient"/>
    <linearGradient id="linear-gradient-9" x1="190.75" y1="185.22" x2="92.62" y2="27.51" xlink:href="#linear-gradient"/>
    <linearGradient id="linear-gradient-10" x1="265.88" y1="271.79" x2="180.09" y2="132.06" xlink:href="#linear-gradient"/>
    <linearGradient id="linear-gradient-11" x1="377.14" y1="641.49" x2="562.05" y2="641.49" xlink:href="#linear-gradient"/>
    <linearGradient id="linear-gradient-12" x1="416.12" y1="533.46" x2="776.9" y2="533.46" xlink:href="#linear-gradient"/>
    <linearGradient id="linear-gradient-13" x1="734.22" y1="433.94" x2="604.06" y2="534.47" xlink:href="#linear-gradient"/>
    <linearGradient id="linear-gradient-14" x1="369.74" y1="507.58" x2="577.55" y2="507.58" xlink:href="#linear-gradient"/>
    <linearGradient id="linear-gradient-15" x1="599.39" y1="147.23" x2="482.24" y2="251.98" xlink:href="#linear-gradient"/>
    <linearGradient id="linear-gradient-16" x1="696" y1="96.42" x2="609.23" y2="188.15" xlink:href="#linear-gradient"/>
  </defs>
  <g>
    <g>
      <path class="cls-2" d="m368.27,758.07l-26.55-177.53c-1.84-12.3-4.83-25.41-13.1-29.42-7.1-3.45-16.4.04-27.17,4.08-5.24,1.97-10.66,4-16.27,5.35l-4.97-20.66c4.34-1.05,8.93-2.77,13.78-4.59,13.41-5.04,28.61-10.74,43.92-3.31,19.46,9.45,23.1,33.73,24.84,45.4l26.55,177.53-21.03,3.15Z"/>
      <g>
        <path class="cls-11" d="m308.31,542.14c.23-.11.46-.22.69-.32,5.75-12.09,9.52-24.99,5.34-37.31-5.97-17.6-27.04-26.55-45.46-24.06-18.42,2.49-34.4,13.8-48.33,26.11-25.27,22.34-46.79,49.81-58.56,81.3.2.08.39.16.58.24,32.07-14.12,65.86-24.33,100.4-30.24,8.99-1.54,18.12-2.81,26.67-5.99,5.64-2.1,12.35-6.71,18.67-9.74Z"/>
        <path class="cls-13" d="m308.77,542.31c.08-.16.15-.32.23-.49-.23.1-.46.21-.69.32.15.06.31.1.46.17Z"/>
        <path class="cls-19" d="m322.59,603.15c9.79-10.4,12.86-26.61,7.55-39.86-3.83-9.54-11.86-17.17-21.37-20.98-.15-.06-.3-.11-.46-.17-6.33,3.03-13.04,7.64-18.67,9.74-8.55,3.18-17.68,4.45-26.67,5.99-34.54,5.9-68.33,16.11-100.4,30.24,17.57,7.12,34.78,15.32,52.61,21.79,27.71,10.04,58.66,15.76,86.48,5.99,7.78-2.73,15.28-6.73,20.94-12.73Z"/>
      </g>
    </g>
    <g>
      <path class="cls-7" d="m388.55,867.33l-20.91-3.82c16.14-88.37,32.83-179.76,32.04-270.76-.87-100.45-24.48-189.15-68.28-256.51-6.53-10.04-13.91-19.96-23.65-24.56-6.45-3.05-14.57-4.07-24.15-3.03-38.55,4.18-68.41,35.17-98.13,69.33l-16.04-13.96c31.3-35.96,65.72-71.5,111.87-76.5,13.52-1.46,25.47.2,35.51,4.94,14.53,6.86,24.16,19.53,32.4,32.19,46.01,70.77,70.81,163.41,71.72,267.92.8,93.02-16.07,185.42-32.39,274.77Z"/>
      <g>
        <path class="cls-4" d="m132.59,411.73c15.63-18.09,31.46-36.28,50.51-50.72,8.31-6.3,17.48-12.23,25.7-18.86-1.24-11.91-7-23.36-16.1-31.17-17.67-15.16-43.79-15.21-66.54-10.25-29.89,6.51-58.36,20.44-80.72,41.33-.92.85-1.8,1.74-2.69,2.62,18.87-2.35,37.92-3.14,56.92-2.22,7.08.34,14.63,1.09,20.15,5.54,5.52,4.45,7.46,13.93,2.03,18.49-4.32,3.63-10.78,2.55-16.17.88-18.47-5.72-35.46-15.98-54.35-20.13-3.18-.7-6.4-1.21-9.63-1.54-13.43,13.46-24.3,29.54-31.54,47.07,5.02-1.35,10.07-2.57,15.18-3.48,9.59-1.71,19.53-2.65,29.02-.43,9.49,2.21,18.53,8,22.72,16.79,1.07,2.25,1.81,4.9.88,7.21-1.15,2.85-4.55,4.23-7.61,4.04-3.06-.2-5.89-1.62-8.65-2.97-16.9-8.23-35.16-14.32-53.92-14.98-2.56,7.18-4.52,14.57-5.79,22.11-8.49,50.24,12.88,100.09,19.94,150.61,3.53-13.56,10.31-26.47,17.61-38.58,26.35-43.72,59.7-82.73,93.08-121.35Z"/>
        <path class="cls-12" d="m318.29,352.41c-2.46-15.33-11.83-30.01-26-36.33-17.15-7.64-37.39-2.01-53.87,6.97-10.66,5.81-20.53,13.03-29.39,21.33-.04-.74-.16-1.48-.24-2.23-8.21,6.63-17.38,12.56-25.7,18.86-19.05,14.44-34.88,32.63-50.51,50.72-33.38,38.62-66.73,77.63-93.08,121.35-7.29,12.11-14.07,25.02-17.61,38.58.16,1.15.35,2.3.5,3.45,14.55-23.74,35.81-43.32,60.67-55.87,26.89-13.58,57.07-18.77,86.28-26.14,17.71-4.47,35.31-9.84,52.12-16.94.12-4.45.73-9.49.29-12.56-1-7.16-2.96-14.17-6.12-20.69-8.52-17.51-24.94-30.04-34.39-47.06-2.71-4.89-4.47-11.84-.17-15.41,1.61-1.34,3.76-1.85,5.85-2.02,15.13-1.27,27.32,12.23,34.45,25.64,6.15,11.54,10.51,24.02,13.03,36.85,1.29,6.61,3.71,17.76,3.87,27.34,4.36-2.25,8.69-4.6,12.89-7.16,22.37-13.63,42.2-32.19,54.96-54.96-.1-1.8-.23-3.6-.52-5.38-1.38-8.41-5.51-16.74-12.7-21.3-9.29-5.88-21.23-4.37-32.08-6.12-6.97-1.12-13.71-3.68-19.66-7.48-2.28-1.45-4.58-3.27-5.34-5.86-.99-3.36,1.04-7.05,3.98-8.96,2.93-1.91,6.56-2.38,10.07-2.52,21.99-.91,44.1,10.16,56.57,28.29,3.05,4.44,5.5,9.35,6.71,14.57,4.8-12.44,7.25-25.89,5.14-38.99Z"/>
      </g>
    </g>
    <g>
      <path class="cls-15" d="m405.73,909.27c-8.35-90.27-3.49-182.06,1.21-270.82,2.07-39.14,4.21-79.61,5.18-119.32,2.68-109.83-2.13-251.68-63.72-374.8-10.66-21.31-24.51-44.78-46.41-57.33-18.35-10.52-46.54-11.09-60.09,6.33l-16.77-13.06c20.83-26.77,60.82-26.98,87.44-11.72,26.97,15.46,43.47,43.53,54.85,66.26,63.69,127.33,68.7,272.54,65.96,384.83-.98,40.01-3.13,80.63-5.21,119.92-4.66,88-9.47,179-1.27,267.74l-21.17,1.96Z"/>
      <g>
        <path class="cls-14" d="m221.4,103.63c6.1-5.16,12.2-10.33,18.44-15.31,1.87-1.49,3.8-2.91,5.69-4.36-.38,0-.77.04-1.15.04,5.04-7.55,2.52-17.63,2.29-25.73-1.21-9.47-4.63-18.62-10.02-26.48-2.45-3.27-5.12-6.31-7.98-9.12.81,2.42,1.39,4.4,1.59,5.23,1.41,5.82,2.83,11.76,2.35,17.72-.48,5.97-3.19,12.08-8.34,15.14-3.08-5.09-1.4-11.56-.67-17.47.84-6.83.22-13.85-1.75-20.44-.69-2.29-2.46-5.55-3.41-8.71C203.09,3.35,184.49-1.68,166.49.5c9,3.92,16.99,10.17,22.76,18.12,8.28,11.43,11.91,26.15,9.9,40.13-2.27.08-3.57-2.52-4.27-4.68-5.22-16.16-11.14-33.69-25.35-42.98-4.95-3.24-10.63-5.28-16.05-7.68-7.89,2.62-15.48,6.76-22.38,12.6-6.3,5.46-11.98,11.44-17.16,17.79.17,0,.35,0,.52,0,7.06-.1,14.26-.74,21.07,1.18,5.77,1.63,10.88,4.99,15.81,8.4,7.78,5.37,15.57,11.13,20.91,18.93,5.34,7.81,7.89,18.13,4.33,26.89-.33.81-.77,1.67-1.55,2.05-1.94.96-3.74-1.5-4.61-3.48-5.8-13.12-15.76-24.4-28.17-31.59-11.1-6.41-23.65-9.44-36.39-11.52-8.57,12.71-15.14,26.64-19.71,41.2,6.57-2.65,13.27-5.13,20.3-5.85,7.27-.74,14.6.44,21.73,2.04,9.15,2.06,18.27,4.87,26.18,9.92,7.91,5.05,14.56,12.54,17.07,21.58.7,2.54.83,5.8-1.36,7.27-1.1.74-2.52.81-3.85.7-9.87-.83-16.86-9.52-24.81-15.42-10.59-7.85-24.02-11.11-37.2-11.49-6.98-.2-13.93.36-20.85,1.25-2.94,11.88-4.59,24.04-4.94,36.21,2.43-1.53,4.98-2.85,7.72-3.74,5.67-1.85,11.77-1.8,17.73-1.57,15.02.58,30.28,2.25,44.06,8.24,2.91,1.27,6.18,3.4,6.08,6.57-.08,2.44-2.31,4.38-4.68,4.99-2.37.6-4.87.19-7.29-.15-21.32-3.02-43.42-.24-63.36,7.88.06,4.34.15,8.67.24,13.01.09,4.12.17,8.24.22,12.36,12.63-8.36,27.17-14.08,42.27-14.58,3.16-.11,7.2.7,7.82,3.8.54,2.7-2.03,4.95-4.39,6.38-14.24,8.63-31.85,12.3-45.84,20.63-.35,10.52-1.31,20.97-3.61,31.26.18.05.37.09.55.15,40.63-34.9,81.49-69.52,122.38-104.12,7.7-6.51,15.39-13.02,23.09-19.53Z"/>
        <path class="cls-18" d="m297.28,119.82c3.82-1.28,8-.9,11.93-.02,9.64,2.17,18.47,7.45,25.19,14.68.04-4.6-.15-9.37-.64-14.31-1.76-5.62-4.62-11-8.82-16.04-4.4-6.3-9.91-10.86-16.13-14.12-6.22-3.26-13.14-5.23-20.37-6.33-6.93-2.36-14.16-2.28-21.56-1.61-7.02.64-14.19,1.77-21.35,1.89-1.89,1.46-3.82,2.87-5.69,4.36-6.24,4.99-12.35,10.15-18.44,15.31-7.7,6.51-15.39,13.02-23.09,19.53-40.89,34.6-81.75,69.22-122.38,104.12,7.86,2.21,15.78,4.17,23.78,5.85,4.45.94,8.92,1.78,13.39,2.56,10.41-13.07,19.7-27.02,27.68-41.69,1.07-1.97,2.19-4.04,4.07-5.27,1.87-1.24,4.74-1.28,6.07.52.52.7.74,1.57.9,2.43,1.39,8.05-2.82,15.91-7.09,22.87-4.7,7.65-9.75,15.24-16.53,21.14-.82.72-1.66,1.4-2.52,2.06,8.75,1.78,18.03,3.16,27.62,4.07,11.12-12.82,19.31-28.2,23.56-44.64,1.18-4.56,2.09-9.26,4.34-13.4,2.24-4.14,6.15-7.73,10.84-8.13,4.59,17.7-3.48,35.94-11.36,52.44-2.18,4.56-4.44,9.24-8.19,12.64-.91.82-1.89,1.52-2.91,2.18,11.34.43,22.92.22,34.44-.75,1.04-1.49,2.07-3,3.06-4.53,8.59-13.26,15.14-28.15,16.77-43.87.28-2.76.46-5.66,1.92-8.02,1.46-2.36,4.74-3.88,7.09-2.41,1.26.78,1.96,2.21,2.42,3.62,2.13,6.55.17,13.65-1.78,20.25-3.33,11.28-6.93,22.95-12.78,33,17.58-2.66,34.62-7.21,49.93-13.99-3.59-12.79-9.28-24.87-14.09-37.25-.87-2.25-1.73-4.6-1.54-7.01.18-2.41,1.71-4.88,4.07-5.37,1.43-.3,2.92.16,4.2.85,6.43,3.44,8.37,11.6,9.48,18.8,1.41,9.13,2.54,18.47,2.71,27.73,13.43-6.54,25.36-14.9,34.91-25.36-.6-3.01-1.43-5.98-2.63-8.82-5.67-13.43-18.22-22.46-27.47-33.72-1.05-1.28-2.12-2.92-1.54-4.47.76-2.03,3.58-2.15,5.7-1.69,16.01,3.46,27,18.25,33.71,33.2.52,1.16,1,2.34,1.5,3.52,8.15-12.61,13.32-27.62,14.5-45.33-13.3-7.87-29.41-9.15-44.45-12.88.41-4.01,3.76-7.28,7.58-8.56Z"/>
      </g>
    </g>
    <g>
      <path class="cls-6" d="m397.99,907.62l-20.85-4.18c12.95-64.5,19.49-131.49,25.82-196.27,8.05-82.45,16.38-167.69,37.97-249.43,4.9-18.56,11.29-39.79,25.09-56.75,16.19-19.9,40.43-29.42,61.73-24.25,13.09,3.18,24.82,13.22,30.61,26.2,5.09,11.41,4.91,23.71-.48,33.73l-18.72-10.08c3.08-5.72,1.19-11.85-.21-15-3.12-6.99-9.48-12.57-16.21-14.2-15.22-3.68-31.17,5.88-40.22,17.01-11.13,13.68-16.49,31.58-21.03,48.75-21.15,80.08-29.39,164.46-37.36,246.07-6.38,65.31-12.97,132.85-26.13,198.39Z"/>
      <g>
        <path class="cls-1" d="m594.08,524.86c-14.07-29.14-28.79-58.14-38.95-88.86-2.21-6.68-4.18-13.46-5.89-20.3-4.75,8.08-6.69,7.12-15.21.08-8.71-7.2-14.25-15.96-25-20.7-20.06-8.86-43.57-1.77-59.17,12.6-14.61,13.46-23.14,32.35-28.28,51.53-7.21,26.91-7.59,56.7.74,82.98,12.7-26.52,33.68-49.14,59.6-63.1,5.46-2.94,12.78-5.32,17.36-1.13,5.42,4.95,1.66,14.24-3.86,19.09-9.73,8.55-23.25,11.45-33.69,19.12-15.27,11.22-21.83,31.38-21.29,50.32.11,3.88.53,7.72,1.1,11.53,2.14,2.59,4.37,5.1,6.8,7.48,8.37,8.17,18.16,14.75,28.2,20.73,2.51,1.49,5.06,2.9,7.61,4.33-2.64-15.35-2.41-31.14,1.65-46.14,6.06-22.45,21.01-42.84,41.76-53.35,2.8-1.42,6.24-2.64,8.95-1.06,1.92,1.12,2.89,3.36,3.37,5.53,1.73,7.86-1.45,16.05-6.04,22.66-4.59,6.6-10.56,12.13-15.46,18.52-13.19,17.21-17.81,40.09-14.96,61.58.11.82.3,1.63.43,2.44,14.14,6.71,28.75,12.43,43.7,17.06-2.94-7.74-4.36-16.15-4.35-24.45.02-15.03,4.12-29.76,9.03-43.97,1.86-5.38,5.05-11.66,10.74-11.91,5.5-.24,9.3,5.48,10.87,10.75,5.97,20.07-3.3,41.18-4.9,62.06-.34,4.45-.21,8.91.18,13.35,1.65.39,3.29.83,4.95,1.19,29.35,6.44,62.02,10.14,83.28,30.93-4.07-18.19-11.33-35.91-18.71-53.11-14.13-32.91-28.99-65.51-44.56-97.76Z"/>
        <path class="cls-8" d="m774.31,489.62c-17.73-13.73-40.15-21.44-62.33-26.19-27.74-5.95-56.32-8.14-83.43-16.51.09-6.78,8.24-10.13,14.94-11.14,27.62-4.19,55.85,1.51,82.39,10.25,13.81,4.55,27.32,9.92,40.86,15.22-8.47-24.3-21.45-47.12-36.28-68.26-3.23-4.61-6.63-9.19-10.21-13.62-17.65,2.07-34.91,7.55-50.33,16.39-10.03,5.75-20.67,13.11-32.04,11.05-1.8-.33-3.69-.99-4.7-2.52-.66-.99-.85-2.21-.92-3.39-.57-9.47,5.63-18.36,13.58-23.53,7.96-5.18,17.46-7.32,26.78-9.12,11.37-2.2,23.21-3.95,34.67-3.16-8.99-8.65-19.14-15.82-30.86-20.03-9.7-3.48-20.11-4.78-30.41-4.5-20.87.56-41.45,7.82-58.29,20.12-20.24,14.78-26.05,32.75-37.56,53.42-.32.57-.62,1.1-.91,1.6,1.71,6.84,3.68,13.62,5.89,20.3,10.17,30.73,24.88,59.72,38.95,88.86,15.57,32.26,30.43,64.85,44.56,97.76,7.39,17.21,14.65,34.93,18.71,53.11.77.75,1.56,1.47,2.3,2.27,14.63-16.56,32.98-29.48,50.71-42.92-5.46-11.36-12.89-21.9-21.29-31.34-14.77-16.62-32.32-30.46-48.91-45.27-3.18-2.85-6.44-5.88-7.98-9.87-1.53-3.99-.77-9.2,2.84-11.48,4.17-2.64,9.62-.31,13.84,2.23,25.25,15.14,45.57,37.49,61.9,61.99,4.9,7.35,9.44,14.91,13.77,22.6,10.5-8.63,20.29-17.91,28.39-28.75-11.32-23.74-30.86-43.22-52.76-58.06-24.86-16.84-52.86-28.36-80.51-40.08-4.95-2.1-10.85-5.94-9.65-11.17.95-4.15,5.87-5.89,10.09-6.44,13.27-1.74,26.72,1.14,39.52,5.08,43.14,13.26,82.19,39.08,111.84,73.06,6.31-21.82,6.93-45.5,2.84-67.96Z"/>
      </g>
    </g>
    <g>
      <path class="cls-10" d="m406,977.28c-41.37-165.52-37.68-341.63-34.42-497.01,2.14-102.35,4.58-218.36,25.49-328.68,4.19-22.11,9.77-47.54,23.01-69.49,15.05-24.96,38.63-41.35,63.09-43.86,44.33-4.54,79.98,34.61,94.38,72.9l-19.9,7.48c-11.62-30.9-39.2-62.62-72.31-59.23-17.84,1.83-35.43,14.42-47.05,33.69-11.42,18.93-16.48,42.18-20.33,62.47-20.59,108.58-23,223.65-25.13,325.17-3.23,154.05-6.89,328.65,33.79,491.41l-20.62,5.15Z"/>
      <g>
        <path class="cls-5" d="m553.23,95.91c-9.39-14.45-22.54-26.23-36.88-35.62-13.97-9.13-30.61-16.43-46.97-13.13-11.99,2.42-22.37,10.44-29.43,20.43-.58.82-1.11,1.67-1.65,2.52,1.73-.22,3.46-.39,5.19-.48,20.44-1.04,40.53,5.45,59.33,13.55,2.81,1.21,6.14,3.51,5.33,6.46-.85,3.04-5.09,3.16-8.19,2.51-15.24-3.2-29.77-9.26-45.06-12.2-6.92-1.33-14.19-1.92-21.24-1.35-3.35,7.23-5.65,14.99-7.28,22.81-1.76,8.43-2.76,16.94-3.1,25.47,6.62-3.82,14.04-6.69,21.23-8.98,17.29-5.51,36.97-9.31,52.94-.68.95.51,1.92,1.11,2.46,2.04,1.92,3.32-2.7,6.54-6.42,7.46-18.21,4.51-37.66,4.45-54.87,11.93-5.32,2.31-10.31,5.35-14.83,8.97,1.68,19.11,6.62,37.99,14.25,55.83,9.76-19.31,24.35-36.18,42.2-48.43,5.72-3.92,12.29-7.51,19.19-6.8,6.89.72,13.42,7.65,11.21,14.22-1.1,3.27-3.94,5.59-6.67,7.7-16.83,12.96-34.52,24.9-50.02,39.42-3.02,2.83-5.96,5.78-8.78,8.84,5.84,11.05,12.73,21.57,20.5,31.37,12.13-25.98,27.47-51.3,52.43-64.6,3.03-1.62,6.86-3,9.73-1.11,4.82,3.17,1.4,10.65-2.48,14.91-16.14,17.68-35.5,32.95-47.15,53.85-1.35,2.42-2.54,4.91-3.65,7.44,2.66,2.93,5.39,5.78,8.22,8.54,8.71,8.52,18.09,16.24,27.98,23.24.1-.87.16-1.75.29-2.62,1.2-8.14,3.6-16.05,6.3-23.82,6.59-19,15.78-38.36,32.51-49.54,1.23-.83,2.97-1.58,4.1-.61.66.57.8,1.52.89,2.39,1.06,10.51-.18,21.25-3.58,31.26-3.92,11.5-10.63,21.93-14.18,33.55-2.36,7.75-3.21,15.76-3.3,23.85,7.73,4.3,15.66,8.24,23.8,11.8-1.45-8.29-2.49-16.62-2.55-25.03-.11-15.44,3.26-31.32,12.26-43.86,2.18-3.03,4.84-5.96,8.39-7.11,3.55-1.15,8.11.13,9.52,3.58.9,2.2.37,4.7-.27,6.99-3.55,12.49-10.42,23.76-15.25,35.82-4.01,10.02-6.4,21-6.69,31.87,7.17,2.96,14.47,5.63,21.86,8.04-.57-2.9-1.11-5.8-1.56-8.72-1.77-11.46-1.95-23.72,3.3-34.06.55-1.08,1.3-2.24,2.49-2.46,1.88-.35,3.2,1.8,3.73,3.64,2.62,9.15.24,18.86-.73,28.32-.53,5.15-.59,10.34-.25,15.51,13.81,4.13,27.92,7.35,42.13,9.69-22.24-78.58-46.48-156.58-72.69-233.92-2.88-.55-5.81-7.3-8-10.68Zm-25.46,24.32c-.81-.29-1.63-.65-2.22-1.26-1.39-1.44-1.14-3.92.13-5.46,1.27-1.53,3.29-2.26,5.26-2.53,4.37-.62,8.97.74,12.37,3.56-.3,1.71-.36,3.46-.14,5.19-4.82,2.1-10.44,2.29-15.39.5Zm24.83,22.11c-.93,2.17-3.43,3.14-5.72,3.69-1.66.41-3.42.71-5.04.2-1.63-.5-3.05-2.06-2.85-3.75.12-.96.72-1.8,1.45-2.44,2.95-2.58,6.3-2.91,10.08-2.05.08.02.17.02.25.05,1.45.54,2.52,2.68,1.83,4.3Z"/>
        <path class="cls-9" d="m712.84,147.25c-11.25-3.45-23.04-5.13-34.81-4.8-17.56.49-36.09,5.1-52.1-2.15-4.98-2.25-10.03-7.89-7.15-12.55.89-1.45,2.39-2.4,3.89-3.2,8.79-4.7,19.03-5.83,29-6.25,17.85-.74,35.77.6,53.32,3.89-7.18-17.97-17.31-35.06-29.27-50.67-12.42-1.51-25.1-.84-37.25,2.17-13.86,3.43-26.83,9.69-39.86,15.56-6.38,2.87-14.83,5.3-19.58.15-3.18-3.44-2.97-8.9-1.27-13.28,4.21-10.88,15.37-17.27,26.09-21.88,9.7-4.17,19.71-7.61,29.93-10.27,4.74-1.23,9.63-2.27,14.53-2.79-9.62-8.93-20.32-16.72-32.77-20.52-15.88-4.85-35.17-1.74-45.51,11.25-9.15,11.49-9.43,27.58-7.92,42.19.73,7.07,5.54,23.45,2.28,30-1.02,2.05-2.09,2.68-3.16,2.48,26.2,77.34,50.44,155.34,72.69,233.92,4.7.77,9.41,1.45,14.11,2.04.77.09,1.6.18,2.28-.19.78-.42,1.17-1.3,1.5-2.12,4.79-11.66,10.53-23.01,16.58-34.23-3.82-12.62-11.16-23.97-22.16-31.06-6.7-4.32-15.11-7.62-17.92-15.07-.28-.73-.49-1.54-.26-2.29.36-1.23,1.73-1.84,2.98-2.1,4.66-.98,9.48.8,13.62,3.15,13.86,7.87,22.86,21.77,29.76,36.35,5.37-9.69,10.81-19.34,15.93-29.07-4.47-7.96-10.52-15.03-17.82-20.5-11.2-8.41-24.71-13.03-37.42-18.92-2.99-1.38-6.03-2.9-8.23-5.36-2.19-2.45-3.39-6.08-2.14-9.13,2.45-5.95,11.1-5.31,17.08-2.95,22.76,8.97,40.18,27.1,52.88,48.36,7.01-14.04,13.08-28.34,17.02-43.26-2.26-3.46-4.71-6.8-7.42-9.94-9.76-11.33-22.8-20.19-37.45-23.19-11.61-2.38-23.71-1.05-35.38-3.16-2.99-.54-6.11-1.41-8.18-3.64-2.07-2.23-2.5-6.21-.15-8.13,1.44-1.18,3.44-1.3,5.31-1.31,17.05-.06,33.72,5.19,49.38,11.96,9.53,4.12,18.89,8.88,26.96,15.41,3.53,2.85,6.7,6.03,9.69,9.38.49-2.85.92-5.71,1.23-8.61,1.67-15.43.5-30.74-2.88-45.66Zm-124.68-9.82c-2.28-.48-4.92-1.26-5.72-3.45-1.16-3.16,2.79-6.07,6.14-5.9,2.1.11,4.09.87,6.09,1.54,1.67-.15,3.34.2,4.65,1.24,2.36,1.87,2.5,6.19-.14,7.64-1.6.87-3.56.52-5.33.14-1.9-.4-3.79-.81-5.69-1.21Zm19.84,39.48c-.92.66-2.06.92-3.18,1.02-3.53.35-7.35-.87-9.46-3.71-2.11-2.85-1.93-7.38.86-9.57,1.98-1.55,4.62-1.66,7.19-1.45.83.55,1.59,1.22,2.31,1.92,1.65,1.6,3.25,3.38,3.94,5.57.68,2.19.21,4.89-1.66,6.23Z"/>
      </g>
    </g>
  </g>
  <g>
    <g>
      <g>
        <polygon class="cls-3" points="498.07 1058.96 581.12 792.46 397.02 792.46 396.34 792.46 396.34 1058.96 397.02 1058.96 498.07 1058.96"/>
        <rect class="cls-16" x="396.34" y="747.66" width="192.79" height="44.8"/>
      </g>
      <g>
        <polygon class="cls-3" points="294.61 1058.96 211.56 792.46 395.66 792.46 396.34 792.46 396.34 1058.96 395.66 1058.96 294.61 1058.96"/>
        <rect class="cls-16" x="203.56" y="747.66" width="192.79" height="44.8"/>
      </g>
      <path class="cls-17" d="m395.67,1058.96h102.41l83.05-266.5h-20.12c-3.38,53-17.15,106-74.87,153.05-19.7,16.06-49.81,32.43-89.79,38.18h0c-8.74,1.26-17.94,2.02-27.62,2.14-34.33.45-66.02-7.24-92.89-15.9-3.38-1.09-6.71-2.19-10-3.32l28.78,92.36h101.05Z"/>
    </g>
    <rect class="cls-3" x="286.01" y="1050.04" width="220.7" height="15.6"/>
  </g>
</svg>