<?xml version="1.0" encoding="UTF-8"?>
<svg id="Layer_4" data-name="Layer 4" xmlns="http://www.w3.org/2000/svg" viewBox="0 0 776.9 1065.65">
  <defs>
    <style>
      .cls-1 {
        fill: #774f38;
      }

      .cls-1, .cls-2, .cls-3 {
        stroke-width: 0px;
      }

      .cls-2 {
        fill: #de8c78;
      }

      .cls-3 {
        fill: #6a4631;
      }
    </style>
  </defs>
  <g>
    <g>
      <polygon class="cls-1" points="498.17 1058.96 581.23 792.46 397.13 792.46 396.44 792.46 396.44 1058.96 397.13 1058.96 498.17 1058.96"/>
      <rect class="cls-2" x="396.44" y="747.66" width="192.79" height="44.8"/>
    </g>
    <g>
      <polygon class="cls-1" points="294.71 1058.96 211.66 792.46 395.76 792.46 396.45 792.46 396.45 1058.96 395.76 1058.96 294.71 1058.96"/>
      <rect class="cls-2" x="203.66" y="747.66" width="192.79" height="44.8"/>
    </g>
    <path class="cls-3" d="m395.77,1058.96h102.41l83.05-266.5h-20.12c-3.38,53-17.15,106-74.87,153.05-19.7,16.06-49.81,32.43-89.79,38.18h0c-8.74,1.26-17.94,2.02-27.62,2.14-34.33.45-66.02-7.24-92.89-15.9-3.38-1.09-6.71-2.19-10-3.32l28.78,92.36h101.05Z"/>
  </g>
  <rect class="cls-1" x="286.12" y="1050.04" width="220.7" height="15.6"/>
</svg>