<?xml version="1.0" encoding="UTF-8"?>
<svg id="_Layer_" data-name="&amp;lt;Layer&amp;gt;" xmlns="http://www.w3.org/2000/svg" xmlns:xlink="http://www.w3.org/1999/xlink" viewBox="0 0 3445.98 2449.5">
  <defs>
    <style>
      .cls-1 {
        fill: url(#linear-gradient-38);
      }

      .cls-1, .cls-2, .cls-3, .cls-4, .cls-5, .cls-6, .cls-7, .cls-8, .cls-9, .cls-10, .cls-11, .cls-12, .cls-13, .cls-14, .cls-15, .cls-16, .cls-17, .cls-18, .cls-19, .cls-20, .cls-21, .cls-22, .cls-23, .cls-24, .cls-25, .cls-26, .cls-27, .cls-28, .cls-29, .cls-30, .cls-31, .cls-32, .cls-33, .cls-34, .cls-35, .cls-36, .cls-37, .cls-38, .cls-39, .cls-40, .cls-41, .cls-42, .cls-43, .cls-44, .cls-45, .cls-46, .cls-47, .cls-48, .cls-49, .cls-50, .cls-51, .cls-52, .cls-53, .cls-54, .cls-55, .cls-56, .cls-57, .cls-58, .cls-59, .cls-60, .cls-61, .cls-62, .cls-63, .cls-64, .cls-65, .cls-66, .cls-67, .cls-68, .cls-69, .cls-70, .cls-71, .cls-72, .cls-73, .cls-74, .cls-75, .cls-76, .cls-77, .cls-78, .cls-79, .cls-80, .cls-81, .cls-82, .cls-83, .cls-84, .cls-85, .cls-86, .cls-87, .cls-88, .cls-89, .cls-90, .cls-91, .cls-92, .cls-93, .cls-94, .cls-95, .cls-96, .cls-97, .cls-98, .cls-99, .cls-100, .cls-101, .cls-102, .cls-103, .cls-104, .cls-105, .cls-106, .cls-107, .cls-108, .cls-109, .cls-110, .cls-111, .cls-112, .cls-113 {
        stroke-width: 0px;
      }

      .cls-2 {
        fill: url(#linear-gradient-12);
      }

      .cls-3 {
        fill: url(#linear-gradient-17);
      }

      .cls-4 {
        fill: url(#linear-gradient-88);
      }

      .cls-5 {
        fill: url(#linear-gradient-19);
      }

      .cls-6 {
        fill: url(#linear-gradient-33);
      }

      .cls-7 {
        fill: url(#linear-gradient);
      }

      .cls-8 {
        fill: url(#linear-gradient-62);
      }

      .cls-9 {
        fill: url(#linear-gradient-92);
      }

      .cls-10 {
        fill: #5b402a;
      }

      .cls-11 {
        fill: #e89555;
      }

      .cls-12 {
        fill: #ded8c2;
      }

      .cls-13 {
        fill: url(#linear-gradient-67);
      }

      .cls-14 {
        fill: url(#linear-gradient-57);
      }

      .cls-15 {
        fill: #f1d4ae;
      }

      .cls-16 {
        fill: url(#linear-gradient-21);
      }

      .cls-17 {
        fill: #774f38;
      }

      .cls-18 {
        fill: url(#linear-gradient-6);
      }

      .cls-19 {
        fill: #f4d697;
      }

      .cls-20 {
        fill: #8b6239;
      }

      .cls-21 {
        fill: url(#linear-gradient-76);
      }

      .cls-22 {
        fill: url(#linear-gradient-42);
      }

      .cls-23 {
        fill: #e7cb8f;
      }

      .cls-24 {
        fill: url(#linear-gradient-15);
      }

      .cls-25 {
        fill: url(#linear-gradient-11);
      }

      .cls-26 {
        fill: #89ab5b;
      }

      .cls-27 {
        fill: url(#linear-gradient-81);
      }

      .cls-28 {
        fill: #c5dfdb;
      }

      .cls-29 {
        fill: url(#linear-gradient-73);
      }

      .cls-30 {
        fill: url(#linear-gradient-91);
      }

      .cls-31 {
        fill: url(#linear-gradient-5);
      }

      .cls-32 {
        fill: url(#linear-gradient-31);
      }

      .cls-33 {
        fill: url(#linear-gradient-71);
      }

      .cls-34 {
        fill: url(#linear-gradient-58);
      }

      .cls-35 {
        fill: url(#linear-gradient-63);
      }

      .cls-36 {
        fill: url(#linear-gradient-34);
      }

      .cls-37 {
        fill: #ecd289;
      }

      .cls-38 {
        fill: url(#linear-gradient-41);
      }

      .cls-39 {
        fill: url(#linear-gradient-89);
      }

      .cls-40 {
        fill: #ebe4cd;
      }

      .cls-41 {
        fill: url(#linear-gradient-40);
      }

      .cls-42 {
        fill: url(#linear-gradient-66);
      }

      .cls-43 {
        fill: url(#linear-gradient-13);
      }

      .cls-44 {
        fill: url(#linear-gradient-23);
      }

      .cls-45 {
        fill: #db8d50;
      }

      .cls-46 {
        fill: url(#linear-gradient-25);
      }

      .cls-47 {
        fill: url(#linear-gradient-43);
      }

      .cls-48 {
        fill: url(#linear-gradient-16);
      }

      .cls-49 {
        fill: url(#linear-gradient-22);
      }

      .cls-50 {
        fill: url(#linear-gradient-54);
      }

      .cls-51 {
        fill: url(#linear-gradient-55);
      }

      .cls-52 {
        fill: #fff;
      }

      .cls-53 {
        fill: url(#linear-gradient-35);
      }

      .cls-54 {
        fill: url(#linear-gradient-50);
      }

      .cls-55 {
        fill: #bad2cf;
      }

      .cls-56 {
        fill: url(#linear-gradient-32);
      }

      .cls-57 {
        fill: url(#linear-gradient-60);
      }

      .cls-58 {
        fill: url(#linear-gradient-59);
      }

      .cls-59 {
        fill: url(#linear-gradient-20);
      }

      .cls-60 {
        fill: #47772a;
      }

      .cls-61 {
        fill: url(#linear-gradient-14);
      }

      .cls-62 {
        fill: url(#linear-gradient-2);
      }

      .cls-63 {
        fill: url(#linear-gradient-52);
      }

      .cls-64 {
        fill: url(#linear-gradient-45);
      }

      .cls-65 {
        fill: #e4c9a5;
      }

      .cls-66 {
        fill: #b7926a;
      }

      .cls-67 {
        fill: url(#linear-gradient-7);
      }

      .cls-68 {
        fill: url(#linear-gradient-39);
      }

      .cls-69 {
        fill: url(#linear-gradient-3);
      }

      .cls-70 {
        fill: url(#linear-gradient-77);
      }

      .cls-71 {
        fill: url(#linear-gradient-69);
      }

      .cls-72 {
        fill: #498736;
      }

      .cls-73 {
        fill: url(#linear-gradient-9);
      }

      .cls-74 {
        fill: url(#linear-gradient-27);
      }

      .cls-75 {
        fill: url(#linear-gradient-82);
      }

      .cls-76 {
        fill: url(#linear-gradient-83);
      }

      .cls-77 {
        fill: url(#linear-gradient-53);
      }

      .cls-78 {
        fill: url(#linear-gradient-90);
      }

      .cls-79 {
        fill: url(#linear-gradient-85);
      }

      .cls-80 {
        fill: url(#linear-gradient-65);
      }

      .cls-81 {
        fill: url(#linear-gradient-36);
      }

      .cls-82 {
        fill: url(#linear-gradient-48);
      }

      .cls-83 {
        fill: url(#linear-gradient-49);
      }

      .cls-84 {
        fill: url(#linear-gradient-8);
      }

      .cls-85 {
        fill: url(#linear-gradient-47);
      }

      .cls-86 {
        fill: url(#linear-gradient-24);
      }

      .cls-87 {
        fill: url(#linear-gradient-26);
      }

      .cls-88 {
        fill: url(#linear-gradient-61);
      }

      .cls-89 {
        fill: #de8c78;
      }

      .cls-90 {
        fill: url(#linear-gradient-18);
      }

      .cls-91 {
        fill: url(#linear-gradient-51);
      }

      .cls-92 {
        fill: url(#linear-gradient-30);
      }

      .cls-93 {
        fill: url(#linear-gradient-44);
      }

      .cls-94 {
        fill: url(#linear-gradient-84);
      }

      .cls-95 {
        fill: url(#linear-gradient-68);
      }

      .cls-96 {
        fill: url(#linear-gradient-72);
      }

      .cls-97 {
        fill: url(#linear-gradient-29);
      }

      .cls-98 {
        fill: url(#linear-gradient-46);
      }

      .cls-99 {
        fill: #6a4631;
      }

      .cls-100 {
        fill: url(#linear-gradient-64);
      }

      .cls-101 {
        fill: url(#linear-gradient-28);
      }

      .cls-102 {
        fill: url(#linear-gradient-56);
      }

      .cls-103 {
        fill: url(#linear-gradient-10);
      }

      .cls-104 {
        fill: url(#linear-gradient-87);
      }

      .cls-105 {
        fill: url(#linear-gradient-70);
      }

      .cls-106 {
        fill: url(#linear-gradient-78);
      }

      .cls-107 {
        fill: url(#linear-gradient-86);
      }

      .cls-108 {
        fill: url(#linear-gradient-74);
      }

      .cls-109 {
        fill: url(#linear-gradient-4);
      }

      .cls-110 {
        fill: url(#linear-gradient-37);
      }

      .cls-111 {
        fill: url(#linear-gradient-80);
      }

      .cls-112 {
        fill: url(#linear-gradient-79);
      }

      .cls-113 {
        fill: url(#linear-gradient-75);
      }
    </style>
    <linearGradient id="linear-gradient" x1="300.6" y1="758.4" x2="300.6" y2="643.98" gradientUnits="userSpaceOnUse">
      <stop offset="0" stop-color="#89ab5b"/>
      <stop offset="1" stop-color="#498736"/>
    </linearGradient>
    <linearGradient id="linear-gradient-2" x1="294.89" y1="716.05" x2="294.89" y2="526.46" gradientTransform="translate(13.95 -20.2) rotate(.76)" xlink:href="#linear-gradient"/>
    <linearGradient id="linear-gradient-3" x1="524.89" y1="650.15" x2="524.89" y2="322.01" xlink:href="#linear-gradient"/>
    <linearGradient id="linear-gradient-4" x1="602.9" y1="643.63" x2="602.9" y2="501.54" xlink:href="#linear-gradient"/>
    <linearGradient id="linear-gradient-5" x1="391.88" y1="667.88" x2="391.88" y2="398.82" xlink:href="#linear-gradient"/>
    <linearGradient id="linear-gradient-6" x1="632.16" y1="807.96" x2="632.16" y2="637.74" xlink:href="#linear-gradient"/>
    <linearGradient id="linear-gradient-7" x1="657.09" y1="667.88" x2="657.09" y2="572.58" xlink:href="#linear-gradient"/>
    <linearGradient id="linear-gradient-8" x1="472.49" y1="588.67" x2="427.07" y2="872.24" xlink:href="#linear-gradient"/>
    <linearGradient id="linear-gradient-9" x1="573.95" y1="848.17" x2="430.33" y2="632.12" xlink:href="#linear-gradient"/>
    <linearGradient id="linear-gradient-10" x1="1170.94" y1="1934.32" x2="1280.03" y2="1934.32" xlink:href="#linear-gradient"/>
    <linearGradient id="linear-gradient-11" x1="1833.75" y1="598.31" x2="1742.8" y2="559.33" gradientTransform="translate(865.4 -52.85) rotate(64.03)" gradientUnits="userSpaceOnUse">
      <stop offset="0" stop-color="#89ab5b"/>
      <stop offset=".35" stop-color="#47772a"/>
      <stop offset="1" stop-color="#498736"/>
    </linearGradient>
    <linearGradient id="linear-gradient-12" x1="1765.08" y1="525.61" x2="1906.27" y2="525.61" gradientTransform="translate(865.4 -52.85) rotate(64.03)" xlink:href="#linear-gradient"/>
    <linearGradient id="linear-gradient-13" x1="1895.95" y1="621.52" x2="1829.74" y2="586.79" gradientTransform="translate(865.4 -52.85) rotate(64.03)" xlink:href="#linear-gradient"/>
    <linearGradient id="linear-gradient-14" x1="1060.17" y1="1868.23" x2="1311.7" y2="1868.23" xlink:href="#linear-gradient"/>
    <linearGradient id="linear-gradient-15" x1="914.34" y1="1635.03" x2="1003.85" y2="1738.76" xlink:href="#linear-gradient"/>
    <linearGradient id="linear-gradient-16" x1="1030.19" y1="1712.61" x2="1087.07" y2="1779.53" xlink:href="#linear-gradient"/>
    <linearGradient id="linear-gradient-17" x1="1115.85" y1="1774.87" x2="1324.67" y2="1774.87" xlink:href="#linear-gradient"/>
    <linearGradient id="linear-gradient-18" x1="1081.47" y1="1476.29" x2="983.35" y2="1318.58" xlink:href="#linear-gradient"/>
    <linearGradient id="linear-gradient-19" x1="1156.6" y1="1562.86" x2="1070.81" y2="1423.13" xlink:href="#linear-gradient"/>
    <linearGradient id="linear-gradient-20" x1="1267.87" y1="1932.55" x2="1452.77" y2="1932.55" xlink:href="#linear-gradient"/>
    <linearGradient id="linear-gradient-21" x1="1306.85" y1="1824.52" x2="1667.63" y2="1824.52" xlink:href="#linear-gradient"/>
    <linearGradient id="linear-gradient-22" x1="1624.94" y1="1725" x2="1494.79" y2="1825.54" xlink:href="#linear-gradient"/>
    <linearGradient id="linear-gradient-23" x1="1260.47" y1="1798.64" x2="1468.28" y2="1798.64" xlink:href="#linear-gradient"/>
    <linearGradient id="linear-gradient-24" x1="1490.11" y1="1438.3" x2="1372.97" y2="1543.05" xlink:href="#linear-gradient"/>
    <linearGradient id="linear-gradient-25" x1="1586.72" y1="1387.48" x2="1499.95" y2="1479.21" xlink:href="#linear-gradient"/>
    <linearGradient id="linear-gradient-26" x1="1178.85" y1="1929.92" x2="1287.93" y2="1929.92" xlink:href="#linear-gradient"/>
    <linearGradient id="linear-gradient-27" x1="1833.27" y1="589.27" x2="1742.32" y2="550.29" xlink:href="#linear-gradient-11"/>
    <linearGradient id="linear-gradient-28" x1="1764.6" y1="516.57" x2="1905.78" y2="516.57" gradientTransform="translate(865.4 -52.85) rotate(64.03)" xlink:href="#linear-gradient"/>
    <linearGradient id="linear-gradient-29" x1="1895.46" y1="612.49" x2="1829.25" y2="577.76" gradientTransform="translate(865.4 -52.85) rotate(64.03)" xlink:href="#linear-gradient"/>
    <linearGradient id="linear-gradient-30" x1="1068.08" y1="1863.83" x2="1319.6" y2="1863.83" xlink:href="#linear-gradient"/>
    <linearGradient id="linear-gradient-31" x1="922.25" y1="1630.64" x2="1011.76" y2="1734.37" xlink:href="#linear-gradient"/>
    <linearGradient id="linear-gradient-32" x1="1038.1" y1="1708.21" x2="1094.98" y2="1775.14" xlink:href="#linear-gradient"/>
    <linearGradient id="linear-gradient-33" x1="1123.76" y1="1770.47" x2="1332.58" y2="1770.47" xlink:href="#linear-gradient"/>
    <linearGradient id="linear-gradient-34" x1="1089.38" y1="1471.9" x2="991.26" y2="1314.18" xlink:href="#linear-gradient"/>
    <linearGradient id="linear-gradient-35" x1="1164.51" y1="1558.46" x2="1078.72" y2="1418.73" xlink:href="#linear-gradient"/>
    <linearGradient id="linear-gradient-36" x1="1275.78" y1="1928.16" x2="1460.68" y2="1928.16" xlink:href="#linear-gradient"/>
    <linearGradient id="linear-gradient-37" x1="1314.76" y1="1820.13" x2="1675.54" y2="1820.13" xlink:href="#linear-gradient"/>
    <linearGradient id="linear-gradient-38" x1="1632.85" y1="1720.61" x2="1502.7" y2="1821.15" xlink:href="#linear-gradient"/>
    <linearGradient id="linear-gradient-39" x1="1268.38" y1="1794.25" x2="1476.19" y2="1794.25" xlink:href="#linear-gradient"/>
    <linearGradient id="linear-gradient-40" x1="1498.02" y1="1433.91" x2="1380.88" y2="1538.65" xlink:href="#linear-gradient"/>
    <linearGradient id="linear-gradient-41" x1="1594.63" y1="1383.09" x2="1507.86" y2="1474.82" xlink:href="#linear-gradient"/>
    <linearGradient id="linear-gradient-42" x1="2949.29" y1="1929.92" x2="3058.38" y2="1929.92" xlink:href="#linear-gradient"/>
    <linearGradient id="linear-gradient-43" x1="2608.58" y1="-1002.42" x2="2517.63" y2="-1041.4" xlink:href="#linear-gradient-11"/>
    <linearGradient id="linear-gradient-44" x1="2539.91" y1="-1075.12" x2="2681.09" y2="-1075.12" gradientTransform="translate(865.4 -52.85) rotate(64.03)" xlink:href="#linear-gradient"/>
    <linearGradient id="linear-gradient-45" x1="2670.77" y1="-979.21" x2="2604.56" y2="-1013.94" gradientTransform="translate(865.4 -52.85) rotate(64.03)" xlink:href="#linear-gradient"/>
    <linearGradient id="linear-gradient-46" x1="2838.52" y1="1863.83" x2="3090.05" y2="1863.83" xlink:href="#linear-gradient"/>
    <linearGradient id="linear-gradient-47" x1="2692.69" y1="1630.64" x2="2782.2" y2="1734.37" xlink:href="#linear-gradient"/>
    <linearGradient id="linear-gradient-48" x1="2808.54" y1="1708.21" x2="2865.43" y2="1775.14" xlink:href="#linear-gradient"/>
    <linearGradient id="linear-gradient-49" x1="2894.21" y1="1770.47" x2="3103.02" y2="1770.47" xlink:href="#linear-gradient"/>
    <linearGradient id="linear-gradient-50" x1="2859.82" y1="1471.9" x2="2761.7" y2="1314.18" xlink:href="#linear-gradient"/>
    <linearGradient id="linear-gradient-51" x1="2934.96" y1="1558.46" x2="2849.17" y2="1418.73" xlink:href="#linear-gradient"/>
    <linearGradient id="linear-gradient-52" x1="3046.22" y1="1928.16" x2="3231.12" y2="1928.16" xlink:href="#linear-gradient"/>
    <linearGradient id="linear-gradient-53" x1="3085.2" y1="1820.13" x2="3445.98" y2="1820.13" xlink:href="#linear-gradient"/>
    <linearGradient id="linear-gradient-54" x1="3403.3" y1="1720.61" x2="3273.14" y2="1821.15" xlink:href="#linear-gradient"/>
    <linearGradient id="linear-gradient-55" x1="3038.82" y1="1794.25" x2="3246.63" y2="1794.25" xlink:href="#linear-gradient"/>
    <linearGradient id="linear-gradient-56" x1="3268.46" y1="1433.91" x2="3151.32" y2="1538.65" xlink:href="#linear-gradient"/>
    <linearGradient id="linear-gradient-57" x1="3365.08" y1="1383.09" x2="3278.3" y2="1474.82" xlink:href="#linear-gradient"/>
    <linearGradient id="linear-gradient-58" x1="2015.28" y1="471.12" x2="2147.89" y2="471.12" gradientTransform="translate(-14.6 -83.43) rotate(1.94)" xlink:href="#linear-gradient"/>
    <linearGradient id="linear-gradient-59" x1="1864.48" y1="494.09" x2="1966.07" y2="494.09" gradientTransform="translate(18.58 101.28) rotate(-2.55)" xlink:href="#linear-gradient"/>
    <linearGradient id="linear-gradient-60" x1="2490.66" y1="606.29" x2="2574.33" y2="606.29" gradientTransform="translate(60.85 -1095.25) rotate(24.02)" xlink:href="#linear-gradient"/>
    <linearGradient id="linear-gradient-61" x1="1781.45" y1="1469.34" x2="1869.77" y2="1469.34" gradientTransform="translate(1657.84 -1663.89) rotate(123.75) scale(1 -1)" xlink:href="#linear-gradient"/>
    <linearGradient id="linear-gradient-62" x1="1997" y1="476.1" x2="1865.46" y2="505.56" xlink:href="#linear-gradient"/>
    <linearGradient id="linear-gradient-63" x1="1939.24" y1="470.68" x2="2049.53" y2="470.68" xlink:href="#linear-gradient"/>
    <linearGradient id="linear-gradient-64" x1="1869.78" y1="607.73" x2="2037.06" y2="607.73" gradientTransform="translate(1227.32 -495.58) rotate(19.51) scale(.61 1)" xlink:href="#linear-gradient"/>
    <linearGradient id="linear-gradient-65" x1="1771.09" y1="607.73" x2="1938.36" y2="607.73" gradientTransform="translate(1227.32 -495.58) rotate(19.51) scale(.61 1)" xlink:href="#linear-gradient"/>
    <linearGradient id="linear-gradient-66" x1="1625.65" y1="818.21" x2="1854.95" y2="818.21" gradientTransform="translate(571.97 179.1) rotate(-18.74) scale(.61 1)" xlink:href="#linear-gradient"/>
    <linearGradient id="linear-gradient-67" x1="821.24" y1="630.17" x2="967.16" y2="630.17" gradientTransform="translate(2899.43 321.54) rotate(-154.24) scale(.61 -1)" xlink:href="#linear-gradient"/>
    <linearGradient id="linear-gradient-68" x1="1613.53" y1="383.5" x2="1680.76" y2="383.5" gradientTransform="translate(215.59 586.5) rotate(-16.5)" xlink:href="#linear-gradient"/>
    <linearGradient id="linear-gradient-69" x1="2135.44" y1="1213.2" x2="2174.47" y2="1213.2" gradientTransform="translate(3096.61 -504.89) rotate(81.87)" xlink:href="#linear-gradient"/>
    <linearGradient id="linear-gradient-70" x1="1528.78" y1="1875.15" x2="1592.66" y2="1875.15" gradientTransform="translate(-444.84 2351.2) rotate(-73.69)" xlink:href="#linear-gradient"/>
    <linearGradient id="linear-gradient-71" x1="2030.68" y1="1125.6" x2="2135.78" y2="1125.6" gradientTransform="translate(3630.96 -40.43) rotate(97.79)" xlink:href="#linear-gradient"/>
    <linearGradient id="linear-gradient-72" x1="2118.76" y1="1624.49" x2="2167.61" y2="1624.49" gradientTransform="translate(1266.81 -816.67) rotate(35.95)" xlink:href="#linear-gradient"/>
    <linearGradient id="linear-gradient-73" x1="1754.29" y1="1570.33" x2="1930.6" y2="1570.33" gradientTransform="translate(-443.45 1001.43) rotate(-32.91)" xlink:href="#linear-gradient"/>
    <linearGradient id="linear-gradient-74" x1="1761.52" y1="1483.75" x2="1825.95" y2="1483.75" gradientTransform="translate(-443.45 1001.43) rotate(-32.91)" xlink:href="#linear-gradient"/>
    <linearGradient id="linear-gradient-75" x1="1444" y1="1677.27" x2="1564.06" y2="1677.27" gradientTransform="translate(-3.77 2867.5) rotate(-83.35)" xlink:href="#linear-gradient"/>
    <linearGradient id="linear-gradient-76" x1="1679.23" y1="1989.68" x2="1764.12" y2="1989.68" gradientTransform="translate(-599.52 1049.76) rotate(-31.85)" xlink:href="#linear-gradient"/>
    <linearGradient id="linear-gradient-77" x1="1842.27" y1="1229.52" x2="1921.21" y2="1229.52" gradientTransform="translate(2241.9 -815.43) rotate(61.75)" xlink:href="#linear-gradient"/>
    <linearGradient id="linear-gradient-78" x1="1909.05" y1="1726.57" x2="1979.53" y2="1726.57" gradientTransform="translate(-448.7 1030.79) rotate(-28.33)" xlink:href="#linear-gradient"/>
    <linearGradient id="linear-gradient-79" x1="2183.13" y1="1383.93" x2="2329.54" y2="1383.93" gradientTransform="translate(1070.6 -701.08) rotate(32.02)" xlink:href="#linear-gradient"/>
    <linearGradient id="linear-gradient-80" x1="1551.39" y1="546.7" x2="1267.5" y2="485.61" xlink:href="#linear-gradient"/>
    <linearGradient id="linear-gradient-81" x1="1285.94" y1="416.63" x2="1302.11" y2="480.72" gradientTransform="translate(172.19 -178.51) rotate(7.27)" xlink:href="#linear-gradient"/>
    <linearGradient id="linear-gradient-82" x1="1374.12" y1="696.38" x2="1285.48" y2="508.91" xlink:href="#linear-gradient"/>
    <linearGradient id="linear-gradient-83" x1="1172.84" y1="614.49" x2="1411.8" y2="548.61" gradientTransform="translate(172.19 -178.51) rotate(7.27)" xlink:href="#linear-gradient"/>
    <linearGradient id="linear-gradient-84" x1="1407.76" y1="527.52" x2="1414.95" y2="493.98" xlink:href="#linear-gradient"/>
    <linearGradient id="linear-gradient-85" x1="455.95" y1="856.05" x2="772.8" y2="856.05" gradientTransform="translate(1324.76 -602.77) rotate(46.3)" xlink:href="#linear-gradient"/>
    <linearGradient id="linear-gradient-86" x1="920.02" y1="588.61" x2="1260.72" y2="588.61" xlink:href="#linear-gradient"/>
    <linearGradient id="linear-gradient-87" x1="1612.04" y1="489.08" x2="1283.84" y2="527.41" gradientTransform="translate(-422.73 776.9) rotate(-27.53)" xlink:href="#linear-gradient"/>
    <linearGradient id="linear-gradient-88" x1="1144.69" y1="713.37" x2="1272.15" y2="713.37" xlink:href="#linear-gradient"/>
    <linearGradient id="linear-gradient-89" x1="784.37" y1="890.71" x2="863.45" y2="890.71" gradientTransform="translate(767.28 -492.31) rotate(26.53)" xlink:href="#linear-gradient"/>
    <linearGradient id="linear-gradient-90" x1="2175.57" y1="1078.32" x2="2367.89" y2="1078.32" gradientTransform="translate(374.28 2755.74) rotate(-93.41)" xlink:href="#linear-gradient"/>
    <linearGradient id="linear-gradient-91" x1="1027.21" y1="745.7" x2="1238.88" y2="745.7" gradientTransform="translate(440.05 -385.96) rotate(16.48)" xlink:href="#linear-gradient"/>
    <linearGradient id="linear-gradient-92" x1="1247.26" y1="638.51" x2="1467.18" y2="638.51" xlink:href="#linear-gradient"/>
  </defs>
  <rect class="cls-52" width="2449.5" height="2449.5"/>
  <g>
    <g>
      <path class="cls-11" d="m452.03,731.14v315.29h79c44.62-23.52,82.56-69.41,104.78-126.74,22.22-57.33,28.54-125.61,17.44-188.56h-201.22Z"/>
      <path class="cls-11" d="m452.03,731.14v315.29h-79.01c-44.62-23.52-82.56-69.41-104.78-126.74-22.22-57.33-28.53-125.61-17.43-188.56h201.22Z"/>
      <path class="cls-45" d="m452.05,975.5h0c-5.19.29-10.48.48-15.9.54-45.48.48-87.47-7.84-123.07-17.21-10.64-2.8-20.98-5.72-31.01-8.75,22.61,43.05,54.57,77.15,90.98,96.35h158c44.62-23.52,82.56-69.41,104.78-126.74,4.54-11.7,8.4-23.87,11.6-36.35-13.85,16.85-31.97,33.27-55.71,49.08-29.4,19.57-76.29,39.56-139.66,43.08Z"/>
    </g>
    <g>
      <path class="cls-7" d="m216.8,733.19c30.91,11.43,62.36,23.02,95.26,24.96,32.9,1.94,68.05-7.17,90.26-31.51,13.82-15.14,21.54-34.71,28.97-53.82-43.72-16.4-89.47-33.07-135.87-27.88-49.1,5.49-92.3,35.2-125.5,72.25,15.84,4.54,31.44,10.28,46.88,16Z"/>
      <path class="cls-62" d="m390.96,589.72c-13.29-8.78-28.24-15.04-43.81-18.37-37.71-8.05-78.11,1.06-114.79-10.83-25.98-8.43-47.69-27.97-60.29-52.14-6.85,27.24-4.15,56.89,8.13,82.19,14.64,30.15,42.48,53.59,74.68,62.89,27.75,8.01,57.31,5.78,86.02,8.96,28.71,3.18,59.37,13.83,73.95,38.77,16.53-14.52,21.7-39.35,15.83-60.55-5.87-21.2-21.36-38.8-39.72-50.92Z"/>
      <path class="cls-69" d="m547.65,322.01c1.1,21.98,6.15,34.95,7.25,56.93-12.29,99.88-156.84,172.56-90.85,271.22,83.49-97.68,214.04-206.21,83.6-328.14Z"/>
      <path class="cls-109" d="m474.21,643.63c13.51-3.21,26.74-7.32,39.14-13.52,32-16,56.39-44.61,88.62-60.13,22.73-10.94,48.15-14.79,72.03-22.92,23.88-8.13,47.8-22.28,57.59-45.53-44.67,17.89-95.41,13-141.39,27.16-54.09,16.67-98.67,61.1-115.99,114.93Z"/>
      <path class="cls-31" d="m454.46,523.94c-20.15-60.62-72.63-109.42-134.56-125.12,31.78,20.37,41.05,62.31,43.24,99.99,2.19,37.68.75,77.87,20.47,110.05,12.97,21.17,39.48,43.87,61.05,59.02,21.19-44.45,25.36-97.12,9.79-143.94Z"/>
      <path class="cls-18" d="m757.29,762.81c-29.81-54.52-81.54-96.65-140.96-114.8-38.38-11.72-79.68-13.3-118.99-5.29,5.31,31.95,15.79,65,42.29,82.83,15.3,10.29,33.96,14.01,52.07,17.5,23.72,4.58,47.45,9.16,71.18,13.74,38.17,7.37,80.84,17.77,100.72,51.17,7.5-13.98,1.3-31.23-6.31-45.15Z"/>
      <path class="cls-67" d="m647.74,575.9c-58.78,8.17-115.78,32.4-159.98,71.96,53.7,28.89,123.91,26.78,174.38-8.06,16.42-11.33,31.07-25.79,49.66-33.03,13.42-5.22,28.02-6.32,42.38-7.37,24.08-1.75,48.16-3.51,72.24-5.27-57.39-18.78-118.87-26.53-178.68-18.23Z"/>
      <path class="cls-84" d="m475.01,676.09c-3.88-13.22-8.25-26.94-15.86-38.19-4.83-1.08-96.13-20.5-66.89,68.94,28.37,86.8,88.24,159.33,105.18,178.98,2.16-11.15,3.82-22.38,4.76-33.75,4.87-59.51-10.37-118.69-27.19-175.98Z"/>
      <path class="cls-73" d="m542.45,648.55c-54.8-91.85-83.07-10.6-83.07-10.6,0,0-.1-.02-.23-.05,7.6,11.25,11.97,24.97,15.86,38.19,16.82,57.29,32.06,116.47,27.19,175.98-.93,11.37-2.6,22.6-4.76,33.75.98,1.15,1.88,2.18,2.57,2.96,21.2-40.63,97.25-148.38,42.44-240.23Z"/>
    </g>
  </g>
  <g>
    <g>
      <g>
        <path class="cls-103" d="m1259,2049.14l-26.55-177.53c-1.84-12.3-4.83-25.41-13.1-29.42-7.1-3.45-16.4.04-27.17,4.08-5.24,1.97-10.66,4-16.27,5.35l-4.97-20.66c4.34-1.05,8.93-2.77,13.78-4.59,13.41-5.04,28.61-10.74,43.92-3.31,19.46,9.45,23.1,33.73,24.84,45.4l26.55,177.53-21.03,3.15Z"/>
        <g>
          <path class="cls-25" d="m1199.04,1833.21c.23-.11.46-.22.69-.32,5.75-12.09,9.52-24.99,5.34-37.31-5.97-17.6-27.04-26.55-45.46-24.06-18.42,2.49-34.4,13.8-48.33,26.11-25.27,22.34-46.79,49.81-58.56,81.3.2.08.39.16.58.24,32.07-14.12,65.86-24.33,100.4-30.24,8.99-1.54,18.12-2.81,26.67-5.99,5.64-2.1,12.35-6.71,18.67-9.74Z"/>
          <path class="cls-2" d="m1199.49,1833.37c.08-.16.15-.32.23-.49-.23.1-.46.21-.69.32.15.06.31.1.46.17Z"/>
          <path class="cls-43" d="m1213.32,1894.21c9.79-10.4,12.86-26.61,7.55-39.86-3.83-9.54-11.86-17.17-21.37-20.98-.15-.06-.3-.11-.46-.17-6.33,3.03-13.04,7.64-18.67,9.74-8.55,3.18-17.68,4.45-26.67,5.99-34.54,5.9-68.33,16.11-100.4,30.24,17.57,7.12,34.78,15.32,52.61,21.79,27.71,10.04,58.66,15.76,86.48,5.99,7.78-2.73,15.28-6.73,20.94-12.73Z"/>
        </g>
      </g>
      <g>
        <path class="cls-61" d="m1279.28,2158.39l-20.91-3.82c16.14-88.37,32.83-179.76,32.04-270.76-.87-100.45-24.48-189.15-68.28-256.51-6.53-10.04-13.91-19.96-23.65-24.56-6.45-3.05-14.57-4.07-24.15-3.03-38.55,4.18-68.41,35.17-98.13,69.33l-16.04-13.96c31.3-35.96,65.72-71.5,111.87-76.5,13.52-1.46,25.47.2,35.51,4.94,14.53,6.86,24.16,19.53,32.4,32.19,46.01,70.77,70.81,163.41,71.72,267.92.8,93.02-16.07,185.42-32.39,274.77Z"/>
        <g>
          <path class="cls-24" d="m1023.31,1702.8c15.63-18.09,31.46-36.28,50.51-50.72,8.31-6.3,17.48-12.23,25.7-18.86-1.24-11.91-7-23.36-16.1-31.17-17.67-15.16-43.79-15.21-66.54-10.25-29.89,6.51-58.36,20.44-80.72,41.33-.92.85-1.8,1.74-2.69,2.62,18.87-2.35,37.92-3.14,56.92-2.22,7.08.34,14.63,1.09,20.15,5.54,5.52,4.45,7.46,13.93,2.03,18.49-4.32,3.63-10.78,2.55-16.17.88-18.47-5.72-35.46-15.98-54.35-20.13-3.18-.7-6.4-1.21-9.63-1.54-13.43,13.46-24.3,29.54-31.54,47.07,5.02-1.35,10.07-2.57,15.18-3.48,9.59-1.71,19.53-2.65,29.02-.43,9.49,2.21,18.53,8,22.72,16.79,1.07,2.25,1.81,4.9.88,7.21-1.15,2.85-4.55,4.23-7.61,4.04-3.06-.2-5.89-1.62-8.65-2.97-16.9-8.23-35.16-14.32-53.92-14.98-2.56,7.18-4.52,14.57-5.79,22.11-8.49,50.24,12.88,100.09,19.94,150.61,3.53-13.56,10.31-26.47,17.61-38.58,26.35-43.72,59.7-82.73,93.08-121.35Z"/>
          <path class="cls-48" d="m1209.01,1643.47c-2.46-15.33-11.83-30.01-26-36.33-17.15-7.64-37.39-2.01-53.87,6.97-10.66,5.81-20.53,13.03-29.39,21.33-.04-.74-.16-1.48-.24-2.23-8.21,6.63-17.38,12.56-25.7,18.86-19.05,14.44-34.88,32.63-50.51,50.72-33.38,38.62-66.73,77.63-93.08,121.35-7.29,12.11-14.07,25.02-17.61,38.58.16,1.15.35,2.3.5,3.45,14.55-23.74,35.81-43.32,60.67-55.87,26.89-13.58,57.07-18.77,86.28-26.14,17.71-4.47,35.31-9.84,52.12-16.94.12-4.45.73-9.49.29-12.56-1-7.16-2.96-14.17-6.12-20.69-8.52-17.51-24.94-30.04-34.39-47.06-2.71-4.89-4.47-11.84-.17-15.41,1.61-1.34,3.76-1.85,5.85-2.02,15.13-1.27,27.32,12.23,34.45,25.64,6.15,11.54,10.51,24.02,13.03,36.85,1.29,6.61,3.71,17.76,3.87,27.34,4.36-2.25,8.69-4.6,12.89-7.16,22.37-13.63,42.2-32.19,54.96-54.96-.1-1.8-.23-3.6-.52-5.38-1.38-8.41-5.51-16.74-12.7-21.3-9.29-5.88-21.23-4.37-32.08-6.12-6.97-1.12-13.71-3.68-19.66-7.48-2.28-1.45-4.58-3.27-5.34-5.86-.99-3.36,1.04-7.05,3.98-8.96,2.93-1.91,6.56-2.38,10.07-2.52,21.99-.91,44.1,10.16,56.57,28.29,3.05,4.44,5.5,9.35,6.71,14.57,4.8-12.44,7.25-25.89,5.14-38.99Z"/>
        </g>
      </g>
      <g>
        <path class="cls-3" d="m1296.46,2200.33c-8.35-90.27-3.49-182.06,1.21-270.82,2.07-39.14,4.21-79.61,5.18-119.32,2.68-109.83-2.13-251.68-63.72-374.8-10.66-21.31-24.51-44.78-46.41-57.33-18.35-10.52-46.54-11.09-60.09,6.33l-16.77-13.06c20.83-26.77,60.82-26.98,87.44-11.72,26.97,15.46,43.47,43.53,54.85,66.26,63.69,127.33,68.7,272.54,65.96,384.83-.98,40.01-3.13,80.63-5.21,119.92-4.66,88-9.47,179-1.27,267.74l-21.17,1.96Z"/>
        <g>
          <path class="cls-90" d="m1112.12,1394.69c6.1-5.16,12.2-10.33,18.44-15.31,1.87-1.49,3.8-2.91,5.69-4.36-.38,0-.77.04-1.15.04,5.04-7.55,2.52-17.63,2.29-25.73-1.21-9.47-4.63-18.62-10.02-26.48-2.45-3.27-5.12-6.31-7.98-9.12.81,2.42,1.39,4.4,1.59,5.23,1.41,5.82,2.83,11.76,2.35,17.72-.48,5.97-3.19,12.08-8.34,15.14-3.08-5.09-1.4-11.56-.67-17.47.84-6.83.22-13.85-1.75-20.44-.69-2.29-2.46-5.55-3.41-8.71-15.35-10.78-33.95-15.81-51.95-13.62,9,3.92,16.99,10.17,22.76,18.12,8.28,11.43,11.91,26.15,9.9,40.13-2.27.08-3.57-2.52-4.27-4.68-5.22-16.16-11.14-33.69-25.35-42.98-4.95-3.24-10.63-5.28-16.05-7.68-7.89,2.62-15.48,6.76-22.38,12.6-6.3,5.46-11.98,11.44-17.16,17.79.17,0,.35,0,.52,0,7.06-.1,14.26-.74,21.07,1.18,5.77,1.63,10.88,4.99,15.81,8.4,7.78,5.37,15.57,11.13,20.91,18.93,5.34,7.81,7.89,18.13,4.33,26.89-.33.81-.77,1.67-1.55,2.05-1.94.96-3.74-1.5-4.61-3.48-5.8-13.12-15.76-24.4-28.17-31.59-11.1-6.41-23.65-9.44-36.39-11.52-8.57,12.71-15.14,26.64-19.71,41.2,6.57-2.65,13.27-5.13,20.3-5.85,7.27-.74,14.6.44,21.73,2.04,9.15,2.06,18.27,4.87,26.18,9.92,7.91,5.05,14.56,12.54,17.07,21.58.7,2.54.83,5.8-1.36,7.27-1.1.74-2.52.81-3.85.7-9.87-.83-16.86-9.52-24.81-15.42-10.59-7.85-24.02-11.11-37.2-11.49-6.98-.2-13.93.36-20.85,1.25-2.94,11.88-4.59,24.04-4.94,36.21,2.43-1.53,4.98-2.85,7.72-3.74,5.67-1.85,11.77-1.8,17.73-1.57,15.02.58,30.28,2.25,44.06,8.24,2.91,1.27,6.18,3.4,6.08,6.57-.08,2.44-2.31,4.38-4.68,4.99-2.37.6-4.87.19-7.29-.15-21.32-3.02-43.42-.24-63.36,7.88.06,4.34.15,8.67.24,13.01.09,4.12.17,8.24.22,12.36,12.63-8.36,27.17-14.08,42.27-14.58,3.16-.11,7.2.7,7.82,3.8.54,2.7-2.03,4.95-4.39,6.38-14.24,8.63-31.85,12.3-45.84,20.63-.35,10.52-1.31,20.97-3.61,31.26.18.05.37.09.55.15,40.63-34.9,81.49-69.52,122.38-104.12,7.7-6.51,15.39-13.02,23.09-19.53Z"/>
          <path class="cls-5" d="m1188.01,1410.89c3.82-1.28,8-.9,11.93-.02,9.64,2.17,18.47,7.45,25.19,14.68.04-4.6-.15-9.37-.64-14.31-1.76-5.62-4.62-11-8.82-16.04-4.4-6.3-9.91-10.86-16.13-14.12-6.22-3.26-13.14-5.23-20.37-6.33-6.93-2.36-14.16-2.28-21.56-1.61-7.02.64-14.19,1.77-21.35,1.89-1.89,1.46-3.82,2.87-5.69,4.36-6.24,4.99-12.35,10.15-18.44,15.31-7.7,6.51-15.39,13.02-23.09,19.53-40.89,34.6-81.75,69.22-122.38,104.12,7.86,2.21,15.78,4.17,23.78,5.85,4.45.94,8.92,1.78,13.39,2.56,10.41-13.07,19.7-27.02,27.68-41.69,1.07-1.97,2.19-4.04,4.07-5.27,1.87-1.24,4.74-1.28,6.07.52.52.7.74,1.57.9,2.43,1.39,8.05-2.82,15.91-7.09,22.87-4.7,7.65-9.75,15.24-16.53,21.14-.82.72-1.66,1.4-2.52,2.06,8.75,1.78,18.03,3.16,27.62,4.07,11.12-12.82,19.31-28.2,23.56-44.64,1.18-4.56,2.09-9.26,4.34-13.4,2.24-4.14,6.15-7.73,10.84-8.13,4.59,17.7-3.48,35.94-11.36,52.44-2.18,4.56-4.44,9.24-8.19,12.64-.91.82-1.89,1.52-2.91,2.18,11.34.43,22.92.22,34.44-.75,1.04-1.49,2.07-3,3.06-4.53,8.59-13.26,15.14-28.15,16.77-43.87.28-2.76.46-5.66,1.92-8.02,1.46-2.36,4.74-3.88,7.09-2.41,1.26.78,1.96,2.21,2.42,3.62,2.13,6.55.17,13.65-1.78,20.25-3.33,11.28-6.93,22.95-12.78,33,17.58-2.66,34.62-7.21,49.93-13.99-3.59-12.79-9.28-24.87-14.09-37.25-.87-2.25-1.73-4.6-1.54-7.01.18-2.41,1.71-4.88,4.07-5.37,1.43-.3,2.92.16,4.2.85,6.43,3.44,8.37,11.6,9.48,18.8,1.41,9.13,2.54,18.47,2.71,27.73,13.43-6.54,25.36-14.9,34.91-25.36-.6-3.01-1.43-5.98-2.63-8.82-5.67-13.43-18.22-22.46-27.47-33.72-1.05-1.28-2.12-2.92-1.54-4.47.76-2.03,3.58-2.15,5.7-1.69,16.01,3.46,27,18.25,33.71,33.2.52,1.16,1,2.34,1.5,3.52,8.15-12.61,13.32-27.62,14.5-45.33-13.3-7.87-29.41-9.15-44.45-12.88.41-4.01,3.76-7.28,7.58-8.56Z"/>
        </g>
      </g>
      <g>
        <path class="cls-59" d="m1288.72,2198.69l-20.85-4.18c12.95-64.5,19.49-131.49,25.82-196.27,8.05-82.45,16.38-167.69,37.97-249.43,4.9-18.56,11.29-39.79,25.09-56.75,16.19-19.9,40.43-29.42,61.73-24.25,13.09,3.18,24.82,13.22,30.61,26.2,5.09,11.41,4.91,23.71-.48,33.73l-18.72-10.08c3.08-5.72,1.19-11.85-.21-15-3.12-6.99-9.48-12.57-16.21-14.2-15.22-3.68-31.17,5.88-40.22,17.01-11.13,13.68-16.49,31.58-21.03,48.75-21.15,80.08-29.39,164.46-37.36,246.07-6.38,65.31-12.97,132.85-26.13,198.39Z"/>
        <g>
          <path class="cls-16" d="m1484.8,1815.92c-14.07-29.14-28.79-58.14-38.95-88.86-2.21-6.68-4.18-13.46-5.89-20.3-4.75,8.08-6.69,7.12-15.21.08-8.71-7.2-14.25-15.96-25-20.7-20.06-8.86-43.57-1.77-59.17,12.6-14.61,13.46-23.14,32.35-28.28,51.53-7.21,26.91-7.59,56.7.74,82.98,12.7-26.52,33.68-49.14,59.6-63.1,5.46-2.94,12.78-5.32,17.36-1.13,5.42,4.95,1.66,14.24-3.86,19.09-9.73,8.55-23.25,11.45-33.69,19.12-15.27,11.22-21.83,31.38-21.29,50.32.11,3.88.53,7.72,1.1,11.53,2.14,2.59,4.37,5.1,6.8,7.48,8.37,8.17,18.16,14.75,28.2,20.73,2.51,1.49,5.06,2.9,7.61,4.33-2.64-15.35-2.41-31.14,1.65-46.14,6.06-22.45,21.01-42.84,41.76-53.35,2.8-1.42,6.24-2.64,8.95-1.06,1.92,1.12,2.89,3.36,3.37,5.53,1.73,7.86-1.45,16.05-6.04,22.66-4.59,6.6-10.56,12.13-15.46,18.52-13.19,17.21-17.81,40.09-14.96,61.58.11.82.3,1.63.43,2.44,14.14,6.71,28.75,12.43,43.7,17.06-2.94-7.74-4.36-16.15-4.35-24.45.02-15.03,4.12-29.76,9.03-43.97,1.86-5.38,5.05-11.66,10.74-11.91,5.5-.24,9.3,5.48,10.87,10.75,5.97,20.07-3.3,41.18-4.9,62.06-.34,4.45-.21,8.91.18,13.35,1.65.39,3.29.83,4.95,1.19,29.35,6.44,62.02,10.14,83.28,30.93-4.07-18.19-11.33-35.91-18.71-53.11-14.13-32.91-28.99-65.51-44.56-97.76Z"/>
          <path class="cls-49" d="m1665.04,1780.69c-17.73-13.73-40.15-21.44-62.33-26.19-27.74-5.95-56.32-8.14-83.43-16.51.09-6.78,8.24-10.13,14.94-11.14,27.62-4.19,55.85,1.51,82.39,10.25,13.81,4.55,27.32,9.92,40.86,15.22-8.47-24.3-21.45-47.12-36.28-68.26-3.23-4.61-6.63-9.19-10.21-13.62-17.65,2.07-34.91,7.55-50.33,16.39-10.03,5.75-20.67,13.11-32.04,11.05-1.8-.33-3.69-.99-4.7-2.52-.66-.99-.85-2.21-.92-3.39-.57-9.47,5.63-18.36,13.58-23.53,7.96-5.18,17.46-7.32,26.78-9.12,11.37-2.2,23.21-3.95,34.67-3.16-8.99-8.65-19.14-15.82-30.86-20.03-9.7-3.48-20.11-4.78-30.41-4.5-20.87.56-41.45,7.82-58.29,20.12-20.24,14.78-26.05,32.75-37.56,53.42-.32.57-.62,1.1-.91,1.6,1.71,6.84,3.68,13.62,5.89,20.3,10.17,30.73,24.88,59.72,38.95,88.86,15.57,32.26,30.43,64.85,44.56,97.76,7.39,17.21,14.65,34.93,18.71,53.11.77.75,1.56,1.47,2.3,2.27,14.63-16.56,32.98-29.48,50.71-42.92-5.46-11.36-12.89-21.9-21.29-31.34-14.77-16.62-32.32-30.46-48.91-45.27-3.18-2.85-6.44-5.88-7.98-9.87-1.53-3.99-.77-9.2,2.84-11.48,4.17-2.64,9.62-.31,13.84,2.23,25.25,15.14,45.57,37.49,61.9,61.99,4.9,7.35,9.44,14.91,13.77,22.6,10.5-8.63,20.29-17.91,28.39-28.75-11.32-23.74-30.86-43.22-52.76-58.06-24.86-16.84-52.86-28.36-80.51-40.08-4.95-2.1-10.85-5.94-9.65-11.17.95-4.15,5.87-5.89,10.09-6.44,13.27-1.74,26.72,1.14,39.52,5.08,43.14,13.26,82.19,39.08,111.84,73.06,6.31-21.82,6.93-45.5,2.84-67.96Z"/>
        </g>
      </g>
      <g>
        <path class="cls-44" d="m1296.73,2268.34c-41.37-165.52-37.68-341.63-34.42-497.01,2.14-102.35,4.58-218.36,25.49-328.68,4.19-22.11,9.77-47.54,23.01-69.49,15.05-24.96,38.63-41.35,63.09-43.86,44.33-4.54,79.98,34.61,94.38,72.9l-19.9,7.48c-11.62-30.9-39.2-62.62-72.31-59.23-17.84,1.83-35.43,14.42-47.05,33.69-11.42,18.93-16.48,42.18-20.33,62.47-20.59,108.58-23,223.65-25.13,325.17-3.23,154.05-6.89,328.65,33.79,491.41l-20.62,5.15Z"/>
        <g>
          <path class="cls-86" d="m1443.96,1386.98c-9.39-14.45-22.54-26.23-36.88-35.62-13.97-9.13-30.61-16.43-46.97-13.13-11.99,2.42-22.37,10.44-29.43,20.43-.58.82-1.11,1.67-1.65,2.52,1.73-.22,3.46-.39,5.19-.48,20.44-1.04,40.53,5.45,59.33,13.55,2.81,1.21,6.14,3.51,5.33,6.46-.85,3.04-5.09,3.16-8.19,2.51-15.24-3.2-29.77-9.26-45.06-12.2-6.92-1.33-14.19-1.92-21.24-1.35-3.35,7.23-5.65,14.99-7.28,22.81-1.76,8.43-2.76,16.94-3.1,25.47,6.62-3.82,14.04-6.69,21.23-8.98,17.29-5.51,36.97-9.31,52.94-.68.95.51,1.92,1.11,2.46,2.04,1.92,3.32-2.7,6.54-6.42,7.46-18.21,4.51-37.66,4.45-54.87,11.93-5.32,2.31-10.31,5.35-14.83,8.97,1.68,19.11,6.62,37.99,14.25,55.83,9.76-19.31,24.35-36.18,42.2-48.43,5.72-3.92,12.29-7.51,19.19-6.8,6.89.72,13.42,7.65,11.21,14.22-1.1,3.27-3.94,5.59-6.67,7.7-16.83,12.96-34.52,24.9-50.02,39.42-3.02,2.83-5.96,5.78-8.78,8.84,5.84,11.05,12.73,21.57,20.5,31.37,12.13-25.98,27.47-51.3,52.43-64.6,3.03-1.62,6.86-3,9.73-1.11,4.82,3.17,1.4,10.65-2.48,14.91-16.14,17.68-35.5,32.95-47.15,53.85-1.35,2.42-2.54,4.91-3.65,7.44,2.66,2.93,5.39,5.78,8.22,8.54,8.71,8.52,18.09,16.24,27.98,23.24.1-.87.16-1.75.29-2.62,1.2-8.14,3.6-16.05,6.3-23.82,6.59-19,15.78-38.36,32.51-49.54,1.23-.83,2.97-1.58,4.1-.61.66.57.8,1.52.89,2.39,1.06,10.51-.18,21.25-3.58,31.26-3.92,11.5-10.63,21.93-14.18,33.55-2.36,7.75-3.21,15.76-3.3,23.85,7.73,4.3,15.66,8.24,23.8,11.8-1.45-8.29-2.49-16.62-2.55-25.03-.11-15.44,3.26-31.32,12.26-43.86,2.18-3.03,4.84-5.96,8.39-7.11,3.55-1.15,8.11.13,9.52,3.58.9,2.2.37,4.7-.27,6.99-3.55,12.49-10.42,23.76-15.25,35.82-4.01,10.02-6.4,21-6.69,31.87,7.17,2.96,14.47,5.63,21.86,8.04-.57-2.9-1.11-5.8-1.56-8.72-1.77-11.46-1.95-23.72,3.3-34.06.55-1.08,1.3-2.24,2.49-2.46,1.88-.35,3.2,1.8,3.73,3.64,2.62,9.15.24,18.86-.73,28.32-.53,5.15-.59,10.34-.25,15.51,13.81,4.13,27.92,7.35,42.13,9.69-22.24-78.58-46.48-156.58-72.69-233.92-2.88-.55-5.81-7.3-8-10.68Zm-25.46,24.32c-.81-.29-1.63-.65-2.22-1.26-1.39-1.44-1.14-3.92.13-5.46,1.27-1.53,3.29-2.26,5.26-2.53,4.37-.62,8.97.74,12.37,3.56-.3,1.71-.36,3.46-.14,5.19-4.82,2.1-10.44,2.29-15.39.5Zm24.83,22.11c-.93,2.17-3.43,3.14-5.72,3.69-1.66.41-3.42.71-5.04.2-1.63-.5-3.05-2.06-2.85-3.75.12-.96.72-1.8,1.45-2.44,2.95-2.58,6.3-2.91,10.08-2.05.08.02.17.02.25.05,1.45.54,2.52,2.68,1.83,4.3Z"/>
          <path class="cls-46" d="m1603.57,1438.31c-11.25-3.45-23.04-5.13-34.81-4.8-17.56.49-36.09,5.1-52.1-2.15-4.98-2.25-10.03-7.89-7.15-12.55.89-1.45,2.39-2.4,3.89-3.2,8.79-4.7,19.03-5.83,29-6.25,17.85-.74,35.77.6,53.32,3.89-7.18-17.97-17.31-35.06-29.27-50.67-12.42-1.51-25.1-.84-37.25,2.17-13.86,3.43-26.83,9.69-39.86,15.56-6.38,2.87-14.83,5.3-19.58.15-3.18-3.44-2.97-8.9-1.27-13.28,4.21-10.88,15.37-17.27,26.09-21.88,9.7-4.17,19.71-7.61,29.93-10.27,4.74-1.23,9.63-2.27,14.53-2.79-9.62-8.93-20.32-16.72-32.77-20.52-15.88-4.85-35.17-1.74-45.51,11.25-9.15,11.49-9.43,27.58-7.92,42.19.73,7.07,5.54,23.45,2.28,30-1.02,2.05-2.09,2.68-3.16,2.48,26.2,77.34,50.44,155.34,72.69,233.92,4.7.77,9.41,1.45,14.11,2.04.77.09,1.6.18,2.28-.19.78-.42,1.17-1.3,1.5-2.12,4.79-11.66,10.53-23.01,16.58-34.23-3.82-12.62-11.16-23.97-22.16-31.06-6.7-4.32-15.11-7.62-17.92-15.07-.28-.73-.49-1.54-.26-2.29.36-1.23,1.73-1.84,2.98-2.1,4.66-.98,9.48.8,13.62,3.15,13.86,7.87,22.86,21.77,29.76,36.35,5.37-9.69,10.81-19.34,15.93-29.07-4.47-7.96-10.52-15.03-17.82-20.5-11.2-8.41-24.71-13.03-37.42-18.92-2.99-1.38-6.03-2.9-8.23-5.36-2.19-2.45-3.39-6.08-2.14-9.13,2.45-5.95,11.1-5.31,17.08-2.95,22.76,8.97,40.18,27.1,52.88,48.36,7.01-14.04,13.08-28.34,17.02-43.26-2.26-3.46-4.71-6.8-7.42-9.94-9.76-11.33-22.8-20.19-37.45-23.19-11.61-2.38-23.71-1.05-35.38-3.16-2.99-.54-6.11-1.41-8.18-3.64-2.07-2.23-2.5-6.21-.15-8.13,1.44-1.18,3.44-1.3,5.31-1.31,17.05-.06,33.72,5.19,49.38,11.96,9.53,4.12,18.89,8.88,26.96,15.41,3.53,2.85,6.7,6.03,9.69,9.38.49-2.85.92-5.71,1.23-8.61,1.67-15.43.5-30.74-2.88-45.66Zm-124.68-9.82c-2.28-.48-4.92-1.26-5.72-3.45-1.16-3.16,2.79-6.07,6.14-5.9,2.1.11,4.09.87,6.09,1.54,1.67-.15,3.34.2,4.65,1.24,2.36,1.87,2.5,6.19-.14,7.64-1.6.87-3.56.52-5.33.14-1.9-.4-3.79-.81-5.69-1.21Zm19.84,39.48c-.92.66-2.06.92-3.18,1.02-3.53.35-7.35-.87-9.46-3.71-2.11-2.85-1.93-7.38.86-9.57,1.98-1.55,4.62-1.66,7.19-1.45.83.55,1.59,1.22,2.31,1.92,1.65,1.6,3.25,3.38,3.94,5.57.68,2.19.21,4.89-1.66,6.23Z"/>
        </g>
      </g>
    </g>
    <g>
      <g>
        <g>
          <polygon class="cls-17" points="1388.8 2350.03 1471.85 2083.53 1287.75 2083.53 1287.07 2083.53 1287.07 2350.03 1287.75 2350.03 1388.8 2350.03"/>
          <rect class="cls-89" x="1287.07" y="2038.73" width="192.79" height="44.8"/>
        </g>
        <g>
          <polygon class="cls-17" points="1185.34 2350.03 1102.28 2083.53 1286.38 2083.53 1287.07 2083.53 1287.07 2350.03 1286.38 2350.03 1185.34 2350.03"/>
          <rect class="cls-89" x="1094.28" y="2038.73" width="192.79" height="44.8"/>
        </g>
        <path class="cls-99" d="m1286.4,2350.03h102.41l83.05-266.5h-20.12c-3.38,53-17.15,106-74.87,153.05-19.7,16.06-49.81,32.43-89.79,38.18h0c-8.74,1.26-17.94,2.02-27.62,2.14-34.33.45-66.02-7.24-92.89-15.9-3.38-1.09-6.71-2.19-10-3.32l28.78,92.36h101.05Z"/>
      </g>
      <rect class="cls-17" x="1176.74" y="2341.11" width="220.7" height="15.6"/>
    </g>
  </g>
  <g>
    <g>
      <g>
        <path class="cls-87" d="m1266.91,2044.75l-26.55-177.53c-1.84-12.3-4.83-25.41-13.1-29.42-7.1-3.45-16.4.04-27.17,4.08-5.24,1.97-10.66,4-16.27,5.35l-4.97-20.66c4.34-1.05,8.93-2.77,13.78-4.59,13.41-5.04,28.61-10.74,43.92-3.31,19.46,9.45,23.1,33.73,24.84,45.4l26.55,177.53-21.03,3.15Z"/>
        <g>
          <path class="cls-74" d="m1206.95,1828.81c.23-.11.46-.22.69-.32,5.75-12.09,9.52-24.99,5.34-37.31-5.97-17.6-27.04-26.55-45.46-24.06-18.42,2.49-34.4,13.8-48.33,26.11-25.27,22.34-46.79,49.81-58.56,81.3.2.08.39.16.58.24,32.07-14.12,65.86-24.33,100.4-30.24,8.99-1.54,18.12-2.81,26.67-5.99,5.64-2.1,12.35-6.71,18.67-9.74Z"/>
          <path class="cls-101" d="m1207.4,1828.98c.08-.16.15-.32.23-.49-.23.1-.46.21-.69.32.15.06.31.1.46.17Z"/>
          <path class="cls-97" d="m1221.23,1889.82c9.79-10.4,12.86-26.61,7.55-39.86-3.83-9.54-11.86-17.17-21.37-20.98-.15-.06-.3-.11-.46-.17-6.33,3.03-13.04,7.64-18.67,9.74-8.55,3.18-17.68,4.45-26.67,5.99-34.54,5.9-68.33,16.11-100.4,30.24,17.57,7.12,34.78,15.32,52.61,21.79,27.71,10.04,58.66,15.76,86.48,5.99,7.78-2.73,15.28-6.73,20.94-12.73Z"/>
        </g>
      </g>
      <g>
        <path class="cls-92" d="m1287.19,2154l-20.91-3.82c16.14-88.37,32.83-179.76,32.04-270.76-.87-100.45-24.48-189.15-68.28-256.51-6.53-10.04-13.91-19.96-23.65-24.56-6.45-3.05-14.57-4.07-24.15-3.03-38.55,4.18-68.41,35.17-98.13,69.33l-16.04-13.96c31.3-35.96,65.72-71.5,111.87-76.5,13.52-1.46,25.47.2,35.51,4.94,14.53,6.86,24.16,19.53,32.4,32.19,46.01,70.77,70.81,163.41,71.72,267.92.8,93.02-16.07,185.42-32.39,274.77Z"/>
        <g>
          <path class="cls-32" d="m1031.22,1698.41c15.63-18.09,31.46-36.28,50.51-50.72,8.31-6.3,17.48-12.23,25.7-18.86-1.24-11.91-7-23.36-16.1-31.17-17.67-15.16-43.79-15.21-66.54-10.25-29.89,6.51-58.36,20.44-80.72,41.33-.92.85-1.8,1.74-2.69,2.62,18.87-2.35,37.92-3.14,56.92-2.22,7.08.34,14.63,1.09,20.15,5.54,5.52,4.45,7.46,13.93,2.03,18.49-4.32,3.63-10.78,2.55-16.17.88-18.47-5.72-35.46-15.98-54.35-20.13-3.18-.7-6.4-1.21-9.63-1.54-13.43,13.46-24.3,29.54-31.54,47.07,5.02-1.35,10.07-2.57,15.18-3.48,9.59-1.71,19.53-2.65,29.02-.43,9.49,2.21,18.53,8,22.72,16.79,1.07,2.25,1.81,4.9.88,7.21-1.15,2.85-4.55,4.23-7.61,4.04-3.06-.2-5.89-1.62-8.65-2.97-16.9-8.23-35.16-14.32-53.92-14.98-2.56,7.18-4.52,14.57-5.79,22.11-8.49,50.24,12.88,100.09,19.94,150.61,3.53-13.56,10.31-26.47,17.61-38.58,26.35-43.72,59.7-82.73,93.08-121.35Z"/>
          <path class="cls-56" d="m1216.92,1639.08c-2.46-15.33-11.83-30.01-26-36.33-17.15-7.64-37.39-2.01-53.87,6.97-10.66,5.81-20.53,13.03-29.39,21.33-.04-.74-.16-1.48-.24-2.23-8.21,6.63-17.38,12.56-25.7,18.86-19.05,14.44-34.88,32.63-50.51,50.72-33.38,38.62-66.73,77.63-93.08,121.35-7.29,12.11-14.07,25.02-17.61,38.58.16,1.15.35,2.3.5,3.45,14.55-23.74,35.81-43.32,60.67-55.87,26.89-13.58,57.07-18.77,86.28-26.14,17.71-4.47,35.31-9.84,52.12-16.94.12-4.45.73-9.49.29-12.56-1-7.16-2.96-14.17-6.12-20.69-8.52-17.51-24.94-30.04-34.39-47.06-2.71-4.89-4.47-11.84-.17-15.41,1.61-1.34,3.76-1.85,5.85-2.02,15.13-1.27,27.32,12.23,34.45,25.64,6.15,11.54,10.51,24.02,13.03,36.85,1.29,6.61,3.71,17.76,3.87,27.34,4.36-2.25,8.69-4.6,12.89-7.16,22.37-13.63,42.2-32.19,54.96-54.96-.1-1.8-.23-3.6-.52-5.38-1.38-8.41-5.51-16.74-12.7-21.3-9.29-5.88-21.23-4.37-32.08-6.12-6.97-1.12-13.71-3.68-19.66-7.48-2.28-1.45-4.58-3.27-5.34-5.86-.99-3.36,1.04-7.05,3.98-8.96,2.93-1.91,6.56-2.38,10.07-2.52,21.99-.91,44.1,10.16,56.57,28.29,3.05,4.44,5.5,9.35,6.71,14.57,4.8-12.44,7.25-25.89,5.14-38.99Z"/>
        </g>
      </g>
      <g>
        <path class="cls-6" d="m1304.37,2195.94c-8.35-90.27-3.49-182.06,1.21-270.82,2.07-39.14,4.21-79.61,5.18-119.32,2.68-109.83-2.13-251.68-63.72-374.8-10.66-21.31-24.51-44.78-46.41-57.33-18.35-10.52-46.54-11.09-60.09,6.33l-16.77-13.06c20.83-26.77,60.82-26.98,87.44-11.72,26.97,15.46,43.47,43.53,54.85,66.26,63.69,127.33,68.7,272.54,65.96,384.83-.98,40.01-3.13,80.63-5.21,119.92-4.66,88-9.47,179-1.27,267.74l-21.17,1.96Z"/>
        <g>
          <path class="cls-36" d="m1120.03,1390.3c6.1-5.16,12.2-10.33,18.44-15.31,1.87-1.49,3.8-2.91,5.69-4.36-.38,0-.77.04-1.15.04,5.04-7.55,2.52-17.63,2.29-25.73-1.21-9.47-4.63-18.62-10.02-26.48-2.45-3.27-5.12-6.31-7.98-9.12.81,2.42,1.39,4.4,1.59,5.23,1.41,5.82,2.83,11.76,2.35,17.72-.48,5.97-3.19,12.08-8.34,15.14-3.08-5.09-1.4-11.56-.67-17.47.84-6.83.22-13.85-1.75-20.44-.69-2.29-2.46-5.55-3.41-8.71-15.35-10.78-33.95-15.81-51.95-13.62,9,3.92,16.99,10.17,22.76,18.12,8.28,11.43,11.91,26.15,9.9,40.13-2.27.08-3.57-2.52-4.27-4.68-5.22-16.16-11.14-33.69-25.35-42.98-4.95-3.24-10.63-5.28-16.05-7.68-7.89,2.62-15.48,6.76-22.38,12.6-6.3,5.46-11.98,11.44-17.16,17.79.17,0,.35,0,.52,0,7.06-.1,14.26-.74,21.07,1.18,5.77,1.63,10.88,4.99,15.81,8.4,7.78,5.37,15.57,11.13,20.91,18.93,5.34,7.81,7.89,18.13,4.33,26.89-.33.81-.77,1.67-1.55,2.05-1.94.96-3.74-1.5-4.61-3.48-5.8-13.12-15.76-24.4-28.17-31.59-11.1-6.41-23.65-9.44-36.39-11.52-8.57,12.71-15.14,26.64-19.71,41.2,6.57-2.65,13.27-5.13,20.3-5.85,7.27-.74,14.6.44,21.73,2.04,9.15,2.06,18.27,4.87,26.18,9.92,7.91,5.05,14.56,12.54,17.07,21.58.7,2.54.83,5.8-1.36,7.27-1.1.74-2.52.81-3.85.7-9.87-.83-16.86-9.52-24.81-15.42-10.59-7.85-24.02-11.11-37.2-11.49-6.98-.2-13.93.36-20.85,1.25-2.94,11.88-4.59,24.04-4.94,36.21,2.43-1.53,4.98-2.85,7.72-3.74,5.67-1.85,11.77-1.8,17.73-1.57,15.02.58,30.28,2.25,44.06,8.24,2.91,1.27,6.18,3.4,6.08,6.57-.08,2.44-2.31,4.38-4.68,4.99-2.37.6-4.87.19-7.29-.15-21.32-3.02-43.42-.24-63.36,7.88.06,4.34.15,8.67.24,13.01.09,4.12.17,8.24.22,12.36,12.63-8.36,27.17-14.08,42.27-14.58,3.16-.11,7.2.7,7.82,3.8.54,2.7-2.03,4.95-4.39,6.38-14.24,8.63-31.85,12.3-45.84,20.63-.35,10.52-1.31,20.97-3.61,31.26.18.05.37.09.55.15,40.63-34.9,81.49-69.52,122.38-104.12,7.7-6.51,15.39-13.02,23.09-19.53Z"/>
          <path class="cls-53" d="m1195.92,1406.49c3.82-1.28,8-.9,11.93-.02,9.64,2.17,18.47,7.45,25.19,14.68.04-4.6-.15-9.37-.64-14.31-1.76-5.62-4.62-11-8.82-16.04-4.4-6.3-9.91-10.86-16.13-14.12-6.22-3.26-13.14-5.23-20.37-6.33-6.93-2.36-14.16-2.28-21.56-1.61-7.02.64-14.19,1.77-21.35,1.89-1.89,1.46-3.82,2.87-5.69,4.36-6.24,4.99-12.35,10.15-18.44,15.31-7.7,6.51-15.39,13.02-23.09,19.53-40.89,34.6-81.75,69.22-122.38,104.12,7.86,2.21,15.78,4.17,23.78,5.85,4.45.94,8.92,1.78,13.39,2.56,10.41-13.07,19.7-27.02,27.68-41.69,1.07-1.97,2.19-4.04,4.07-5.27,1.87-1.24,4.74-1.28,6.07.52.52.7.74,1.57.9,2.43,1.39,8.05-2.82,15.91-7.09,22.87-4.7,7.65-9.75,15.24-16.53,21.14-.82.72-1.66,1.4-2.52,2.06,8.75,1.78,18.03,3.16,27.62,4.07,11.12-12.82,19.31-28.2,23.56-44.64,1.18-4.56,2.09-9.26,4.34-13.4,2.24-4.14,6.15-7.73,10.84-8.13,4.59,17.7-3.48,35.94-11.36,52.44-2.18,4.56-4.44,9.24-8.19,12.64-.91.82-1.89,1.52-2.91,2.18,11.34.43,22.92.22,34.44-.75,1.04-1.49,2.07-3,3.06-4.53,8.59-13.26,15.14-28.15,16.77-43.87.28-2.76.46-5.66,1.92-8.02,1.46-2.36,4.74-3.88,7.09-2.41,1.26.78,1.96,2.21,2.42,3.62,2.13,6.55.17,13.65-1.78,20.25-3.33,11.28-6.93,22.95-12.78,33,17.58-2.66,34.62-7.21,49.93-13.99-3.59-12.79-9.28-24.87-14.09-37.25-.87-2.25-1.73-4.6-1.54-7.01.18-2.41,1.71-4.88,4.07-5.37,1.43-.3,2.92.16,4.2.85,6.43,3.44,8.37,11.6,9.48,18.8,1.41,9.13,2.54,18.47,2.71,27.73,13.43-6.54,25.36-14.9,34.91-25.36-.6-3.01-1.43-5.98-2.63-8.82-5.67-13.43-18.22-22.46-27.47-33.72-1.05-1.28-2.12-2.92-1.54-4.47.76-2.03,3.58-2.15,5.7-1.69,16.01,3.46,27,18.25,33.71,33.2.52,1.16,1,2.34,1.5,3.52,8.15-12.61,13.32-27.62,14.5-45.33-13.3-7.87-29.41-9.15-44.45-12.88.41-4.01,3.76-7.28,7.58-8.56Z"/>
        </g>
      </g>
      <g>
        <path class="cls-81" d="m1296.63,2194.29l-20.85-4.18c12.95-64.5,19.49-131.49,25.82-196.27,8.05-82.45,16.38-167.69,37.97-249.43,4.9-18.56,11.29-39.79,25.09-56.75,16.19-19.9,40.43-29.42,61.73-24.25,13.09,3.18,24.82,13.22,30.61,26.2,5.09,11.41,4.91,23.71-.48,33.73l-18.72-10.08c3.08-5.72,1.19-11.85-.21-15-3.12-6.99-9.48-12.57-16.21-14.2-15.22-3.68-31.17,5.88-40.22,17.01-11.13,13.68-16.49,31.58-21.03,48.75-21.15,80.08-29.39,164.46-37.36,246.07-6.38,65.31-12.97,132.85-26.13,198.39Z"/>
        <g>
          <path class="cls-110" d="m1492.71,1811.53c-14.07-29.14-28.79-58.14-38.95-88.86-2.21-6.68-4.18-13.46-5.89-20.3-4.75,8.08-6.69,7.12-15.21.08-8.71-7.2-14.25-15.96-25-20.7-20.06-8.86-43.57-1.77-59.17,12.6-14.61,13.46-23.14,32.35-28.28,51.53-7.21,26.91-7.59,56.7.74,82.98,12.7-26.52,33.68-49.14,59.6-63.1,5.46-2.94,12.78-5.32,17.36-1.13,5.42,4.95,1.66,14.24-3.86,19.09-9.73,8.55-23.25,11.45-33.69,19.12-15.27,11.22-21.83,31.38-21.29,50.32.11,3.88.53,7.72,1.1,11.53,2.14,2.59,4.37,5.1,6.8,7.48,8.37,8.17,18.16,14.75,28.2,20.73,2.51,1.49,5.06,2.9,7.61,4.33-2.64-15.35-2.41-31.14,1.65-46.14,6.06-22.45,21.01-42.84,41.76-53.35,2.8-1.42,6.24-2.64,8.95-1.06,1.92,1.12,2.89,3.36,3.37,5.53,1.73,7.86-1.45,16.05-6.04,22.66-4.59,6.6-10.56,12.13-15.46,18.52-13.19,17.21-17.81,40.09-14.96,61.58.11.82.3,1.63.43,2.44,14.14,6.71,28.75,12.43,43.7,17.06-2.94-7.74-4.36-16.15-4.35-24.45.02-15.03,4.12-29.76,9.03-43.97,1.86-5.38,5.05-11.66,10.74-11.91,5.5-.24,9.3,5.48,10.87,10.75,5.97,20.07-3.3,41.18-4.9,62.06-.34,4.45-.21,8.91.18,13.35,1.65.39,3.29.83,4.95,1.19,29.35,6.44,62.02,10.14,83.28,30.93-4.07-18.19-11.33-35.91-18.71-53.11-14.13-32.91-28.99-65.51-44.56-97.76Z"/>
          <path class="cls-1" d="m1672.95,1776.3c-17.73-13.73-40.15-21.44-62.33-26.19-27.74-5.95-56.32-8.14-83.43-16.51.09-6.78,8.24-10.13,14.94-11.14,27.62-4.19,55.85,1.51,82.39,10.25,13.81,4.55,27.32,9.92,40.86,15.22-8.47-24.3-21.45-47.12-36.28-68.26-3.23-4.61-6.63-9.19-10.21-13.62-17.65,2.07-34.91,7.55-50.33,16.39-10.03,5.75-20.67,13.11-32.04,11.05-1.8-.33-3.69-.99-4.7-2.52-.66-.99-.85-2.21-.92-3.39-.57-9.47,5.63-18.36,13.58-23.53,7.96-5.18,17.46-7.32,26.78-9.12,11.37-2.2,23.21-3.95,34.67-3.16-8.99-8.65-19.14-15.82-30.86-20.03-9.7-3.48-20.11-4.78-30.41-4.5-20.87.56-41.45,7.82-58.29,20.12-20.24,14.78-26.05,32.75-37.56,53.42-.32.57-.62,1.1-.91,1.6,1.71,6.84,3.68,13.62,5.89,20.3,10.17,30.73,24.88,59.72,38.95,88.86,15.57,32.26,30.43,64.85,44.56,97.76,7.39,17.21,14.65,34.93,18.71,53.11.77.75,1.56,1.47,2.3,2.27,14.63-16.56,32.98-29.48,50.71-42.92-5.46-11.36-12.89-21.9-21.29-31.34-14.77-16.62-32.32-30.46-48.91-45.27-3.18-2.85-6.44-5.88-7.98-9.87-1.53-3.99-.77-9.2,2.84-11.48,4.17-2.64,9.62-.31,13.84,2.23,25.25,15.14,45.57,37.49,61.9,61.99,4.9,7.35,9.44,14.91,13.77,22.6,10.5-8.63,20.29-17.91,28.39-28.75-11.32-23.74-30.86-43.22-52.76-58.06-24.86-16.84-52.86-28.36-80.51-40.08-4.95-2.1-10.85-5.94-9.65-11.17.95-4.15,5.87-5.89,10.09-6.44,13.27-1.74,26.72,1.14,39.52,5.08,43.14,13.26,82.19,39.08,111.84,73.06,6.31-21.82,6.93-45.5,2.84-67.96Z"/>
        </g>
      </g>
      <g>
        <path class="cls-68" d="m1304.64,2263.95c-41.37-165.52-37.68-341.63-34.42-497.01,2.14-102.35,4.58-218.36,25.49-328.68,4.19-22.11,9.77-47.54,23.01-69.49,15.05-24.96,38.63-41.35,63.09-43.86,44.33-4.54,79.98,34.61,94.38,72.9l-19.9,7.48c-11.62-30.9-39.2-62.62-72.31-59.23-17.84,1.83-35.43,14.42-47.05,33.69-11.42,18.93-16.48,42.18-20.33,62.47-20.59,108.58-23,223.65-25.13,325.17-3.23,154.05-6.89,328.65,33.79,491.41l-20.62,5.15Z"/>
        <g>
          <path class="cls-41" d="m1451.86,1382.59c-9.39-14.45-22.54-26.23-36.88-35.62-13.97-9.13-30.61-16.43-46.97-13.13-11.99,2.42-22.37,10.44-29.43,20.43-.58.82-1.11,1.67-1.65,2.52,1.73-.22,3.46-.39,5.19-.48,20.44-1.04,40.53,5.45,59.33,13.55,2.81,1.21,6.14,3.51,5.33,6.46-.85,3.04-5.09,3.16-8.19,2.51-15.24-3.2-29.77-9.26-45.06-12.2-6.92-1.33-14.19-1.92-21.24-1.35-3.35,7.23-5.65,14.99-7.28,22.81-1.76,8.43-2.76,16.94-3.1,25.47,6.62-3.82,14.04-6.69,21.23-8.98,17.29-5.51,36.97-9.31,52.94-.68.95.51,1.92,1.11,2.46,2.04,1.92,3.32-2.7,6.54-6.42,7.46-18.21,4.51-37.66,4.45-54.87,11.93-5.32,2.31-10.31,5.35-14.83,8.97,1.68,19.11,6.62,37.99,14.25,55.83,9.76-19.31,24.35-36.18,42.2-48.43,5.72-3.92,12.29-7.51,19.19-6.8,6.89.72,13.42,7.65,11.21,14.22-1.1,3.27-3.94,5.59-6.67,7.7-16.83,12.96-34.52,24.9-50.02,39.42-3.02,2.83-5.96,5.78-8.78,8.84,5.84,11.05,12.73,21.57,20.5,31.37,12.13-25.98,27.47-51.3,52.43-64.6,3.03-1.62,6.86-3,9.73-1.11,4.82,3.17,1.4,10.65-2.48,14.91-16.14,17.68-35.5,32.95-47.15,53.85-1.35,2.42-2.54,4.91-3.65,7.44,2.66,2.93,5.39,5.78,8.22,8.54,8.71,8.52,18.09,16.24,27.98,23.24.1-.87.16-1.75.29-2.62,1.2-8.14,3.6-16.05,6.3-23.82,6.59-19,15.78-38.36,32.51-49.54,1.23-.83,2.97-1.58,4.1-.61.66.57.8,1.52.89,2.39,1.06,10.51-.18,21.25-3.58,31.26-3.92,11.5-10.63,21.93-14.18,33.55-2.36,7.75-3.21,15.76-3.3,23.85,7.73,4.3,15.66,8.24,23.8,11.8-1.45-8.29-2.49-16.62-2.55-25.03-.11-15.44,3.26-31.32,12.26-43.86,2.18-3.03,4.84-5.96,8.39-7.11,3.55-1.15,8.11.13,9.52,3.58.9,2.2.37,4.7-.27,6.99-3.55,12.49-10.42,23.76-15.25,35.82-4.01,10.02-6.4,21-6.69,31.87,7.17,2.96,14.47,5.63,21.86,8.04-.57-2.9-1.11-5.8-1.56-8.72-1.77-11.46-1.95-23.72,3.3-34.06.55-1.08,1.3-2.24,2.49-2.46,1.88-.35,3.2,1.8,3.73,3.64,2.62,9.15.24,18.86-.73,28.32-.53,5.15-.59,10.34-.25,15.51,13.81,4.13,27.92,7.35,42.13,9.69-22.24-78.58-46.48-156.58-72.69-233.92-2.88-.55-5.81-7.3-8-10.68Zm-25.46,24.32c-.81-.29-1.63-.65-2.22-1.26-1.39-1.44-1.14-3.92.13-5.46,1.27-1.53,3.29-2.26,5.26-2.53,4.37-.62,8.97.74,12.37,3.56-.3,1.71-.36,3.46-.14,5.19-4.82,2.1-10.44,2.29-15.39.5Zm24.83,22.11c-.93,2.17-3.43,3.14-5.72,3.69-1.66.41-3.42.71-5.04.2-1.63-.5-3.05-2.06-2.85-3.75.12-.96.72-1.8,1.45-2.44,2.95-2.58,6.3-2.91,10.08-2.05.08.02.17.02.25.05,1.45.54,2.52,2.68,1.83,4.3Z"/>
          <path class="cls-38" d="m1611.48,1433.92c-11.25-3.45-23.04-5.13-34.81-4.8-17.56.49-36.09,5.1-52.1-2.15-4.98-2.25-10.03-7.89-7.15-12.55.89-1.45,2.39-2.4,3.89-3.2,8.79-4.7,19.03-5.83,29-6.25,17.85-.74,35.77.6,53.32,3.89-7.18-17.97-17.31-35.06-29.27-50.67-12.42-1.51-25.1-.84-37.25,2.17-13.86,3.43-26.83,9.69-39.86,15.56-6.38,2.87-14.83,5.3-19.58.15-3.18-3.44-2.97-8.9-1.27-13.28,4.21-10.88,15.37-17.27,26.09-21.88,9.7-4.17,19.71-7.61,29.93-10.27,4.74-1.23,9.63-2.27,14.53-2.79-9.62-8.93-20.32-16.72-32.77-20.52-15.88-4.85-35.17-1.74-45.51,11.25-9.15,11.49-9.43,27.58-7.92,42.19.73,7.07,5.54,23.45,2.28,30-1.02,2.05-2.09,2.68-3.16,2.48,26.2,77.34,50.44,155.34,72.69,233.92,4.7.77,9.41,1.45,14.11,2.04.77.09,1.6.18,2.28-.19.78-.42,1.17-1.3,1.5-2.12,4.79-11.66,10.53-23.01,16.58-34.23-3.82-12.62-11.16-23.97-22.16-31.06-6.7-4.32-15.11-7.62-17.92-15.07-.28-.73-.49-1.54-.26-2.29.36-1.23,1.73-1.84,2.98-2.1,4.66-.98,9.48.8,13.62,3.15,13.86,7.87,22.86,21.77,29.76,36.35,5.37-9.69,10.81-19.34,15.93-29.07-4.47-7.96-10.52-15.03-17.82-20.5-11.2-8.41-24.71-13.03-37.42-18.92-2.99-1.38-6.03-2.9-8.23-5.36-2.19-2.45-3.39-6.08-2.14-9.13,2.45-5.95,11.1-5.31,17.08-2.95,22.76,8.97,40.18,27.1,52.88,48.36,7.01-14.04,13.08-28.34,17.02-43.26-2.26-3.46-4.71-6.8-7.42-9.94-9.76-11.33-22.8-20.19-37.45-23.19-11.61-2.38-23.71-1.05-35.38-3.16-2.99-.54-6.11-1.41-8.18-3.64-2.07-2.23-2.5-6.21-.15-8.13,1.44-1.18,3.44-1.3,5.31-1.31,17.05-.06,33.72,5.19,49.38,11.96,9.53,4.12,18.89,8.88,26.96,15.41,3.53,2.85,6.7,6.03,9.69,9.38.49-2.85.92-5.71,1.23-8.61,1.67-15.43.5-30.74-2.88-45.66Zm-124.68-9.82c-2.28-.48-4.92-1.26-5.72-3.45-1.16-3.16,2.79-6.07,6.14-5.9,2.1.11,4.09.87,6.09,1.54,1.67-.15,3.34.2,4.65,1.24,2.36,1.87,2.5,6.19-.14,7.64-1.6.87-3.56.52-5.33.14-1.9-.4-3.79-.81-5.69-1.21Zm19.84,39.48c-.92.66-2.06.92-3.18,1.02-3.53.35-7.35-.87-9.46-3.71-2.11-2.85-1.93-7.38.86-9.57,1.98-1.55,4.62-1.66,7.19-1.45.83.55,1.59,1.22,2.31,1.92,1.65,1.6,3.25,3.38,3.94,5.57.68,2.19.21,4.89-1.66,6.23Z"/>
        </g>
      </g>
    </g>
    <g>
      <g>
        <g>
          <polygon class="cls-17" points="1396.71 2345.63 1479.76 2079.13 1295.66 2079.13 1294.97 2079.13 1294.97 2345.63 1295.66 2345.63 1396.71 2345.63"/>
          <rect class="cls-89" x="1294.97" y="2034.34" width="192.79" height="44.8"/>
        </g>
        <g>
          <polygon class="cls-17" points="1193.25 2345.63 1110.19 2079.13 1294.29 2079.13 1294.98 2079.13 1294.98 2345.63 1294.29 2345.63 1193.25 2345.63"/>
          <rect class="cls-89" x="1102.19" y="2034.34" width="192.79" height="44.8"/>
        </g>
        <path class="cls-99" d="m1294.31,2345.63h102.41l83.05-266.5h-20.12c-3.38,53-17.15,106-74.87,153.05-19.7,16.06-49.81,32.43-89.79,38.18h0c-8.74,1.26-17.94,2.02-27.62,2.14-34.33.45-66.02-7.24-92.89-15.9-3.38-1.09-6.71-2.19-10-3.32l28.78,92.36h101.05Z"/>
      </g>
      <rect class="cls-17" x="1184.65" y="2336.72" width="220.7" height="15.6"/>
    </g>
  </g>
  <g>
    <g>
      <g>
        <path class="cls-22" d="m3037.35,2044.75l-26.55-177.53c-1.84-12.3-4.83-25.41-13.1-29.42-7.1-3.45-16.4.04-27.17,4.08-5.24,1.97-10.66,4-16.27,5.35l-4.97-20.66c4.34-1.05,8.93-2.77,13.78-4.59,13.41-5.04,28.61-10.74,43.92-3.31,19.46,9.45,23.1,33.73,24.84,45.4l26.55,177.53-21.03,3.15Z"/>
        <g>
          <path class="cls-47" d="m2977.39,1828.81c.23-.11.46-.22.69-.32,5.75-12.09,9.52-24.99,5.34-37.31-5.97-17.6-27.04-26.55-45.46-24.06-18.42,2.49-34.4,13.8-48.33,26.11-25.27,22.34-46.79,49.81-58.56,81.3.2.08.39.16.58.24,32.07-14.12,65.86-24.33,100.4-30.24,8.99-1.54,18.12-2.81,26.67-5.99,5.64-2.1,12.35-6.71,18.67-9.74Z"/>
          <path class="cls-93" d="m2977.85,1828.98c.08-.16.15-.32.23-.49-.23.1-.46.21-.69.32.15.06.31.1.46.17Z"/>
          <path class="cls-64" d="m2991.67,1889.82c9.79-10.4,12.86-26.61,7.55-39.86-3.83-9.54-11.86-17.17-21.37-20.98-.15-.06-.3-.11-.46-.17-6.33,3.03-13.04,7.64-18.67,9.74-8.55,3.18-17.68,4.45-26.67,5.99-34.54,5.9-68.33,16.11-100.4,30.24,17.57,7.12,34.78,15.32,52.61,21.79,27.71,10.04,58.66,15.76,86.48,5.99,7.78-2.73,15.28-6.73,20.94-12.73Z"/>
        </g>
      </g>
      <g>
        <path class="cls-98" d="m3057.63,2154l-20.91-3.82c16.14-88.37,32.83-179.76,32.04-270.76-.87-100.45-24.48-189.15-68.28-256.51-6.53-10.04-13.91-19.96-23.65-24.56-6.45-3.05-14.57-4.07-24.15-3.03-38.55,4.18-68.41,35.17-98.13,69.33l-16.04-13.96c31.3-35.96,65.72-71.5,111.87-76.5,13.52-1.46,25.47.2,35.51,4.94,14.53,6.86,24.16,19.53,32.4,32.19,46.01,70.77,70.81,163.41,71.72,267.92.8,93.02-16.07,185.42-32.39,274.77Z"/>
        <g>
          <path class="cls-85" d="m2801.66,1698.41c15.63-18.09,31.46-36.28,50.51-50.72,8.31-6.3,17.48-12.23,25.7-18.86-1.24-11.91-7-23.36-16.1-31.17-17.67-15.16-43.79-15.21-66.54-10.25-29.89,6.51-58.36,20.44-80.72,41.33-.92.85-1.8,1.74-2.69,2.62,18.87-2.35,37.92-3.14,56.92-2.22,7.08.34,14.63,1.09,20.15,5.54,5.52,4.45,7.46,13.93,2.03,18.49-4.32,3.63-10.78,2.55-16.17.88-18.47-5.72-35.46-15.98-54.35-20.13-3.18-.7-6.4-1.21-9.63-1.54-13.43,13.46-24.3,29.54-31.54,47.07,5.02-1.35,10.07-2.57,15.18-3.48,9.59-1.71,19.53-2.65,29.02-.43,9.49,2.21,18.53,8,22.72,16.79,1.07,2.25,1.81,4.9.88,7.21-1.15,2.85-4.55,4.23-7.61,4.04-3.06-.2-5.89-1.62-8.65-2.97-16.9-8.23-35.16-14.32-53.92-14.98-2.56,7.18-4.52,14.57-5.79,22.11-8.49,50.24,12.88,100.09,19.94,150.61,3.53-13.56,10.31-26.47,17.61-38.58,26.35-43.72,59.7-82.73,93.08-121.35Z"/>
          <path class="cls-82" d="m2987.36,1639.08c-2.46-15.33-11.83-30.01-26-36.33-17.15-7.64-37.39-2.01-53.87,6.97-10.66,5.81-20.53,13.03-29.39,21.33-.04-.74-.16-1.48-.24-2.23-8.21,6.63-17.38,12.56-25.7,18.86-19.05,14.44-34.88,32.63-50.51,50.72-33.38,38.62-66.73,77.63-93.08,121.35-7.29,12.11-14.07,25.02-17.61,38.58.16,1.15.35,2.3.5,3.45,14.55-23.74,35.81-43.32,60.67-55.87,26.89-13.58,57.07-18.77,86.28-26.14,17.71-4.47,35.31-9.84,52.12-16.94.12-4.45.73-9.49.29-12.56-1-7.16-2.96-14.17-6.12-20.69-8.52-17.51-24.94-30.04-34.39-47.06-2.71-4.89-4.47-11.84-.17-15.41,1.61-1.34,3.76-1.85,5.85-2.02,15.13-1.27,27.32,12.23,34.45,25.64,6.15,11.54,10.51,24.02,13.03,36.85,1.29,6.61,3.71,17.76,3.87,27.34,4.36-2.25,8.69-4.6,12.89-7.16,22.37-13.63,42.2-32.19,54.96-54.96-.1-1.8-.23-3.6-.52-5.38-1.38-8.41-5.51-16.74-12.7-21.3-9.29-5.88-21.23-4.37-32.08-6.12-6.97-1.12-13.71-3.68-19.66-7.48-2.28-1.45-4.58-3.27-5.34-5.86-.99-3.36,1.04-7.05,3.98-8.96,2.93-1.91,6.56-2.38,10.07-2.52,21.99-.91,44.1,10.16,56.57,28.29,3.05,4.44,5.5,9.35,6.71,14.57,4.8-12.44,7.25-25.89,5.14-38.99Z"/>
        </g>
      </g>
      <g>
        <path class="cls-83" d="m3074.81,2195.94c-8.35-90.27-3.49-182.06,1.21-270.82,2.07-39.14,4.21-79.61,5.18-119.32,2.68-109.83-2.13-251.68-63.72-374.8-10.66-21.31-24.51-44.78-46.41-57.33-18.35-10.52-46.54-11.09-60.09,6.33l-16.77-13.06c20.83-26.77,60.82-26.98,87.44-11.72,26.97,15.46,43.47,43.53,54.85,66.26,63.69,127.33,68.7,272.54,65.96,384.83-.98,40.01-3.13,80.63-5.21,119.92-4.66,88-9.47,179-1.27,267.74l-21.17,1.96Z"/>
        <g>
          <path class="cls-54" d="m2890.47,1390.3c6.1-5.16,12.2-10.33,18.44-15.31,1.87-1.49,3.8-2.91,5.69-4.36-.38,0-.77.04-1.15.04,5.04-7.55,2.52-17.63,2.29-25.73-1.21-9.47-4.63-18.62-10.02-26.48-2.45-3.27-5.12-6.31-7.98-9.12.81,2.42,1.39,4.4,1.59,5.23,1.41,5.82,2.83,11.76,2.35,17.72-.48,5.97-3.19,12.08-8.34,15.14-3.08-5.09-1.4-11.56-.67-17.47.84-6.83.22-13.85-1.75-20.44-.69-2.29-2.46-5.55-3.41-8.71-15.35-10.78-33.95-15.81-51.95-13.62,9,3.92,16.99,10.17,22.76,18.12,8.28,11.43,11.91,26.15,9.9,40.13-2.27.08-3.57-2.52-4.27-4.68-5.22-16.16-11.14-33.69-25.35-42.98-4.95-3.24-10.63-5.28-16.05-7.68-7.89,2.62-15.48,6.76-22.38,12.6-6.3,5.46-11.98,11.44-17.16,17.79.17,0,.35,0,.52,0,7.06-.1,14.26-.74,21.07,1.18,5.77,1.63,10.88,4.99,15.81,8.4,7.78,5.37,15.57,11.13,20.91,18.93,5.34,7.81,7.89,18.13,4.33,26.89-.33.81-.77,1.67-1.55,2.05-1.94.96-3.74-1.5-4.61-3.48-5.8-13.12-15.76-24.4-28.17-31.59-11.1-6.41-23.65-9.44-36.39-11.52-8.57,12.71-15.14,26.64-19.71,41.2,6.57-2.65,13.27-5.13,20.3-5.85,7.27-.74,14.6.44,21.73,2.04,9.15,2.06,18.27,4.87,26.18,9.92,7.91,5.05,14.56,12.54,17.07,21.58.7,2.54.83,5.8-1.36,7.27-1.1.74-2.52.81-3.85.7-9.87-.83-16.86-9.52-24.81-15.42-10.59-7.85-24.02-11.11-37.2-11.49-6.98-.2-13.93.36-20.85,1.25-2.94,11.88-4.59,24.04-4.94,36.21,2.43-1.53,4.98-2.85,7.72-3.74,5.67-1.85,11.77-1.8,17.73-1.57,15.02.58,30.28,2.25,44.06,8.24,2.91,1.27,6.18,3.4,6.08,6.57-.08,2.44-2.31,4.38-4.68,4.99-2.37.6-4.87.19-7.29-.15-21.32-3.02-43.42-.24-63.36,7.88.06,4.34.15,8.67.24,13.01.09,4.12.17,8.24.22,12.36,12.63-8.36,27.17-14.08,42.27-14.58,3.16-.11,7.2.7,7.82,3.8.54,2.7-2.03,4.95-4.39,6.38-14.24,8.63-31.85,12.3-45.84,20.63-.35,10.52-1.31,20.97-3.61,31.26.18.05.37.09.55.15,40.63-34.9,81.49-69.52,122.38-104.12,7.7-6.51,15.39-13.02,23.09-19.53Z"/>
          <path class="cls-91" d="m2966.36,1406.49c3.82-1.28,8-.9,11.93-.02,9.64,2.17,18.47,7.45,25.19,14.68.04-4.6-.15-9.37-.64-14.31-1.76-5.62-4.62-11-8.82-16.04-4.4-6.3-9.91-10.86-16.13-14.12-6.22-3.26-13.14-5.23-20.37-6.33-6.93-2.36-14.16-2.28-21.56-1.61-7.02.64-14.19,1.77-21.35,1.89-1.89,1.46-3.82,2.87-5.69,4.36-6.24,4.99-12.35,10.15-18.44,15.31-7.7,6.51-15.39,13.02-23.09,19.53-40.89,34.6-81.75,69.22-122.38,104.12,7.86,2.21,15.78,4.17,23.78,5.85,4.45.94,8.92,1.78,13.39,2.56,10.41-13.07,19.7-27.02,27.68-41.69,1.07-1.97,2.19-4.04,4.07-5.27,1.87-1.24,4.74-1.28,6.07.52.52.7.74,1.57.9,2.43,1.39,8.05-2.82,15.91-7.09,22.87-4.7,7.65-9.75,15.24-16.53,21.14-.82.72-1.66,1.4-2.52,2.06,8.75,1.78,18.03,3.16,27.62,4.07,11.12-12.82,19.31-28.2,23.56-44.64,1.18-4.56,2.09-9.26,4.34-13.4,2.24-4.14,6.15-7.73,10.84-8.13,4.59,17.7-3.48,35.94-11.36,52.44-2.18,4.56-4.44,9.24-8.19,12.64-.91.82-1.89,1.52-2.91,2.18,11.34.43,22.92.22,34.44-.75,1.04-1.49,2.07-3,3.06-4.53,8.59-13.26,15.14-28.15,16.77-43.87.28-2.76.46-5.66,1.92-8.02,1.46-2.36,4.74-3.88,7.09-2.41,1.26.78,1.96,2.21,2.42,3.62,2.13,6.55.17,13.65-1.78,20.25-3.33,11.28-6.93,22.95-12.78,33,17.58-2.66,34.62-7.21,49.93-13.99-3.59-12.79-9.28-24.87-14.09-37.25-.87-2.25-1.73-4.6-1.54-7.01.18-2.41,1.71-4.88,4.07-5.37,1.43-.3,2.92.16,4.2.85,6.43,3.44,8.37,11.6,9.48,18.8,1.41,9.13,2.54,18.47,2.71,27.73,13.43-6.54,25.36-14.9,34.91-25.36-.6-3.01-1.43-5.98-2.63-8.82-5.67-13.43-18.22-22.46-27.47-33.72-1.05-1.28-2.12-2.92-1.54-4.47.76-2.03,3.58-2.15,5.7-1.69,16.01,3.46,27,18.25,33.71,33.2.52,1.16,1,2.34,1.5,3.52,8.15-12.61,13.32-27.62,14.5-45.33-13.3-7.87-29.41-9.15-44.45-12.88.41-4.01,3.76-7.28,7.58-8.56Z"/>
        </g>
      </g>
      <g>
        <path class="cls-63" d="m3067.07,2194.29l-20.85-4.18c12.95-64.5,19.49-131.49,25.82-196.27,8.05-82.45,16.38-167.69,37.97-249.43,4.9-18.56,11.29-39.79,25.09-56.75,16.19-19.9,40.43-29.42,61.73-24.25,13.09,3.18,24.82,13.22,30.61,26.2,5.09,11.41,4.91,23.71-.48,33.73l-18.72-10.08c3.08-5.72,1.19-11.85-.21-15-3.12-6.99-9.48-12.57-16.21-14.2-15.22-3.68-31.17,5.88-40.22,17.01-11.13,13.68-16.49,31.58-21.03,48.75-21.15,80.08-29.39,164.46-37.36,246.07-6.38,65.31-12.97,132.85-26.13,198.39Z"/>
        <g>
          <path class="cls-77" d="m3263.16,1811.53c-14.07-29.14-28.79-58.14-38.95-88.86-2.21-6.68-4.18-13.46-5.89-20.3-4.75,8.08-6.69,7.12-15.21.08-8.71-7.2-14.25-15.96-25-20.7-20.06-8.86-43.57-1.77-59.17,12.6-14.61,13.46-23.14,32.35-28.28,51.53-7.21,26.91-7.59,56.7.74,82.98,12.7-26.52,33.68-49.14,59.6-63.1,5.46-2.94,12.78-5.32,17.36-1.13,5.42,4.95,1.66,14.24-3.86,19.09-9.73,8.55-23.25,11.45-33.69,19.12-15.27,11.22-21.83,31.38-21.29,50.32.11,3.88.53,7.72,1.1,11.53,2.14,2.59,4.37,5.1,6.8,7.48,8.37,8.17,18.16,14.75,28.2,20.73,2.51,1.49,5.06,2.9,7.61,4.33-2.64-15.35-2.41-31.14,1.65-46.14,6.06-22.45,21.01-42.84,41.76-53.35,2.8-1.42,6.24-2.64,8.95-1.06,1.92,1.12,2.89,3.36,3.37,5.53,1.73,7.86-1.45,16.05-6.04,22.66-4.59,6.6-10.56,12.13-15.46,18.52-13.19,17.21-17.81,40.09-14.96,61.58.11.82.3,1.63.43,2.44,14.14,6.71,28.75,12.43,43.7,17.06-2.94-7.74-4.36-16.15-4.35-24.45.02-15.03,4.12-29.76,9.03-43.97,1.86-5.38,5.05-11.66,10.74-11.91,5.5-.24,9.3,5.48,10.87,10.75,5.97,20.07-3.3,41.18-4.9,62.06-.34,4.45-.21,8.91.18,13.35,1.65.39,3.29.83,4.95,1.19,29.35,6.44,62.02,10.14,83.28,30.93-4.07-18.19-11.33-35.91-18.71-53.11-14.13-32.91-28.99-65.51-44.56-97.76Z"/>
          <path class="cls-50" d="m3443.39,1776.3c-17.73-13.73-40.15-21.44-62.33-26.19-27.74-5.95-56.32-8.14-83.43-16.51.09-6.78,8.24-10.13,14.94-11.14,27.62-4.19,55.85,1.51,82.39,10.25,13.81,4.55,27.32,9.92,40.86,15.22-8.47-24.3-21.45-47.12-36.28-68.26-3.23-4.61-6.63-9.19-10.21-13.62-17.65,2.07-34.91,7.55-50.33,16.39-10.03,5.75-20.67,13.11-32.04,11.05-1.8-.33-3.69-.99-4.7-2.52-.66-.99-.85-2.21-.92-3.39-.57-9.47,5.63-18.36,13.58-23.53,7.96-5.18,17.46-7.32,26.78-9.12,11.37-2.2,23.21-3.95,34.67-3.16-8.99-8.65-19.14-15.82-30.86-20.03-9.7-3.48-20.11-4.78-30.41-4.5-20.87.56-41.45,7.82-58.29,20.12-20.24,14.78-26.05,32.75-37.56,53.42-.32.57-.62,1.1-.91,1.6,1.71,6.84,3.68,13.62,5.89,20.3,10.17,30.73,24.88,59.72,38.95,88.86,15.57,32.26,30.43,64.85,44.56,97.76,7.39,17.21,14.65,34.93,18.71,53.11.77.75,1.56,1.47,2.3,2.27,14.63-16.56,32.98-29.48,50.71-42.92-5.46-11.36-12.89-21.9-21.29-31.34-14.77-16.62-32.32-30.46-48.91-45.27-3.18-2.85-6.44-5.88-7.98-9.87-1.53-3.99-.77-9.2,2.84-11.48,4.17-2.64,9.62-.31,13.84,2.23,25.25,15.14,45.57,37.49,61.9,61.99,4.9,7.35,9.44,14.91,13.77,22.6,10.5-8.63,20.29-17.91,28.39-28.75-11.32-23.74-30.86-43.22-52.76-58.06-24.86-16.84-52.86-28.36-80.51-40.08-4.95-2.1-10.85-5.94-9.65-11.17.95-4.15,5.87-5.89,10.09-6.44,13.27-1.74,26.72,1.14,39.52,5.08,43.14,13.26,82.19,39.08,111.84,73.06,6.31-21.82,6.93-45.5,2.84-67.96Z"/>
        </g>
      </g>
      <g>
        <path class="cls-51" d="m3075.08,2263.95c-41.37-165.52-37.68-341.63-34.42-497.01,2.14-102.35,4.58-218.36,25.49-328.68,4.19-22.11,9.77-47.54,23.01-69.49,15.05-24.96,38.63-41.35,63.09-43.86,44.33-4.54,79.98,34.61,94.38,72.9l-19.9,7.48c-11.62-30.9-39.2-62.62-72.31-59.23-17.84,1.83-35.43,14.42-47.05,33.69-11.42,18.93-16.48,42.18-20.33,62.47-20.59,108.58-23,223.65-25.13,325.17-3.23,154.05-6.89,328.65,33.79,491.41l-20.62,5.15Z"/>
        <g>
          <path class="cls-102" d="m3222.31,1382.59c-9.39-14.45-22.54-26.23-36.88-35.62-13.97-9.13-30.61-16.43-46.97-13.13-11.99,2.42-22.37,10.44-29.43,20.43-.58.82-1.11,1.67-1.65,2.52,1.73-.22,3.46-.39,5.19-.48,20.44-1.04,40.53,5.45,59.33,13.55,2.81,1.21,6.14,3.51,5.33,6.46-.85,3.04-5.09,3.16-8.19,2.51-15.24-3.2-29.77-9.26-45.06-12.2-6.92-1.33-14.19-1.92-21.24-1.35-3.35,7.23-5.65,14.99-7.28,22.81-1.76,8.43-2.76,16.94-3.1,25.47,6.62-3.82,14.04-6.69,21.23-8.98,17.29-5.51,36.97-9.31,52.94-.68.95.51,1.92,1.11,2.46,2.04,1.92,3.32-2.7,6.54-6.42,7.46-18.21,4.51-37.66,4.45-54.87,11.93-5.32,2.31-10.31,5.35-14.83,8.97,1.68,19.11,6.62,37.99,14.25,55.83,9.76-19.31,24.35-36.18,42.2-48.43,5.72-3.92,12.29-7.51,19.19-6.8,6.89.72,13.42,7.65,11.21,14.22-1.1,3.27-3.94,5.59-6.67,7.7-16.83,12.96-34.52,24.9-50.02,39.42-3.02,2.83-5.96,5.78-8.78,8.84,5.84,11.05,12.73,21.57,20.5,31.37,12.13-25.98,27.47-51.3,52.43-64.6,3.03-1.62,6.86-3,9.73-1.11,4.82,3.17,1.4,10.65-2.48,14.91-16.14,17.68-35.5,32.95-47.15,53.85-1.35,2.42-2.54,4.91-3.65,7.44,2.66,2.93,5.39,5.78,8.22,8.54,8.71,8.52,18.09,16.24,27.98,23.24.1-.87.16-1.75.29-2.62,1.2-8.14,3.6-16.05,6.3-23.82,6.59-19,15.78-38.36,32.51-49.54,1.23-.83,2.97-1.58,4.1-.61.66.57.8,1.52.89,2.39,1.06,10.51-.18,21.25-3.58,31.26-3.92,11.5-10.63,21.93-14.18,33.55-2.36,7.75-3.21,15.76-3.3,23.85,7.73,4.3,15.66,8.24,23.8,11.8-1.45-8.29-2.49-16.62-2.55-25.03-.11-15.44,3.26-31.32,12.26-43.86,2.18-3.03,4.84-5.96,8.39-7.11,3.55-1.15,8.11.13,9.52,3.58.9,2.2.37,4.7-.27,6.99-3.55,12.49-10.42,23.76-15.25,35.82-4.01,10.02-6.4,21-6.69,31.87,7.17,2.96,14.47,5.63,21.86,8.04-.57-2.9-1.11-5.8-1.56-8.72-1.77-11.46-1.95-23.72,3.3-34.06.55-1.08,1.3-2.24,2.49-2.46,1.88-.35,3.2,1.8,3.73,3.64,2.62,9.15.24,18.86-.73,28.32-.53,5.15-.59,10.34-.25,15.51,13.81,4.13,27.92,7.35,42.13,9.69-22.24-78.58-46.48-156.58-72.69-233.92-2.88-.55-5.81-7.3-8-10.68Zm-25.46,24.32c-.81-.29-1.63-.65-2.22-1.26-1.39-1.44-1.14-3.92.13-5.46,1.27-1.53,3.29-2.26,5.26-2.53,4.37-.62,8.97.74,12.37,3.56-.3,1.71-.36,3.46-.14,5.19-4.82,2.1-10.44,2.29-15.39.5Zm24.83,22.11c-.93,2.17-3.43,3.14-5.72,3.69-1.66.41-3.42.71-5.04.2-1.63-.5-3.05-2.06-2.85-3.75.12-.96.72-1.8,1.45-2.44,2.95-2.58,6.3-2.91,10.08-2.05.08.02.17.02.25.05,1.45.54,2.52,2.68,1.83,4.3Z"/>
          <path class="cls-14" d="m3381.92,1433.92c-11.25-3.45-23.04-5.13-34.81-4.8-17.56.49-36.09,5.1-52.1-2.15-4.98-2.25-10.03-7.89-7.15-12.55.89-1.45,2.39-2.4,3.89-3.2,8.79-4.7,19.03-5.83,29-6.25,17.85-.74,35.77.6,53.32,3.89-7.18-17.97-17.31-35.06-29.27-50.67-12.42-1.51-25.1-.84-37.25,2.17-13.86,3.43-26.83,9.69-39.86,15.56-6.38,2.87-14.83,5.3-19.58.15-3.18-3.44-2.97-8.9-1.27-13.28,4.21-10.88,15.37-17.27,26.09-21.88,9.7-4.17,19.71-7.61,29.93-10.27,4.74-1.23,9.63-2.27,14.53-2.79-9.62-8.93-20.32-16.72-32.77-20.52-15.88-4.85-35.17-1.74-45.51,11.25-9.15,11.49-9.43,27.58-7.92,42.19.73,7.07,5.54,23.45,2.28,30-1.02,2.05-2.09,2.68-3.16,2.48,26.2,77.34,50.44,155.34,72.69,233.92,4.7.77,9.41,1.45,14.11,2.04.77.09,1.6.18,2.28-.19.78-.42,1.17-1.3,1.5-2.12,4.79-11.66,10.53-23.01,16.58-34.23-3.82-12.62-11.16-23.97-22.16-31.06-6.7-4.32-15.11-7.62-17.92-15.07-.28-.73-.49-1.54-.26-2.29.36-1.23,1.73-1.84,2.98-2.1,4.66-.98,9.48.8,13.62,3.15,13.86,7.87,22.86,21.77,29.76,36.35,5.37-9.69,10.81-19.34,15.93-29.07-4.47-7.96-10.52-15.03-17.82-20.5-11.2-8.41-24.71-13.03-37.42-18.92-2.99-1.38-6.03-2.9-8.23-5.36-2.19-2.45-3.39-6.08-2.14-9.13,2.45-5.95,11.1-5.31,17.08-2.95,22.76,8.97,40.18,27.1,52.88,48.36,7.01-14.04,13.08-28.34,17.02-43.26-2.26-3.46-4.71-6.8-7.42-9.94-9.76-11.33-22.8-20.19-37.45-23.19-11.61-2.38-23.71-1.05-35.38-3.16-2.99-.54-6.11-1.41-8.18-3.64-2.07-2.23-2.5-6.21-.15-8.13,1.44-1.18,3.44-1.3,5.31-1.31,17.05-.06,33.72,5.19,49.38,11.96,9.53,4.12,18.89,8.88,26.96,15.41,3.53,2.85,6.7,6.03,9.69,9.38.49-2.85.92-5.71,1.23-8.61,1.67-15.43.5-30.74-2.88-45.66Zm-124.68-9.82c-2.28-.48-4.92-1.26-5.72-3.45-1.16-3.16,2.79-6.07,6.14-5.9,2.1.11,4.09.87,6.09,1.54,1.67-.15,3.34.2,4.65,1.24,2.36,1.87,2.5,6.19-.14,7.64-1.6.87-3.56.52-5.33.14-1.9-.4-3.79-.81-5.69-1.21Zm19.84,39.48c-.92.66-2.06.92-3.18,1.02-3.53.35-7.35-.87-9.46-3.71-2.11-2.85-1.93-7.38.86-9.57,1.98-1.55,4.62-1.66,7.19-1.45.83.55,1.59,1.22,2.31,1.92,1.65,1.6,3.25,3.38,3.94,5.57.68,2.19.21,4.89-1.66,6.23Z"/>
        </g>
      </g>
    </g>
    <g>
      <g>
        <g>
          <polygon class="cls-17" points="3167.15 2345.63 3250.2 2079.13 3066.1 2079.13 3065.42 2079.13 3065.42 2345.63 3066.1 2345.63 3167.15 2345.63"/>
          <rect class="cls-89" x="3065.42" y="2034.34" width="192.79" height="44.8"/>
        </g>
        <g>
          <polygon class="cls-17" points="2963.69 2345.63 2880.64 2079.13 3064.74 2079.13 3065.42 2079.13 3065.42 2345.63 3064.74 2345.63 2963.69 2345.63"/>
          <rect class="cls-89" x="2872.64" y="2034.34" width="192.79" height="44.8"/>
        </g>
        <path class="cls-99" d="m3064.75,2345.63h102.41l83.05-266.5h-20.12c-3.38,53-17.15,106-74.87,153.05-19.7,16.06-49.81,32.43-89.79,38.18h0c-8.74,1.26-17.94,2.02-27.62,2.14-34.33.45-66.02-7.24-92.89-15.9-3.38-1.09-6.71-2.19-10-3.32l28.78,92.36h101.05Z"/>
      </g>
      <rect class="cls-17" x="2955.09" y="2336.72" width="220.7" height="15.6"/>
    </g>
  </g>
  <g>
    <g>
      <path class="cls-34" d="m2008.52,418.69c-11.54,38.39-22.07,77.29-26.5,117.13-8.98,80.74,7.36,161.94,28.84,240.48,20.85-22.7,33.85-52.4,44.64-81.66,64.9-175.99,75.1-366.83,57.83-554.58-41.18,90.37-76.22,183.52-104.81,278.63Z"/>
      <path class="cls-58" d="m2006.88,577.72c-4.91-72.12-10.03-144.81-29.39-214.45-12.64-45.47-31.17-88.97-51.09-131.83-5.49,70.71-23.9,140.61-25.34,211.68-1.42,70.02,13.77,139.67,38,205.38,17.63,47.79,39.99,93.66,64.49,138.37,4.09-29.5,6.92-59.13,7.7-88.93,1.04-40.1-1.65-80.19-4.37-120.21Z"/>
      <path class="cls-57" d="m2261.84,192.64c-17.18,80.2-36.75,161.04-66.77,241.27-21.48,57.41-47.89,113.33-74.18,168.98-22.53,47.68-45.22,95.66-71.88,140.09-10.96,18.27-22.55,35.85-34.64,52.55-1.12-6.17-1.52-13.03-1.72-19.98-2.75-96.65,33.66-216,85.16-321.38,46.45-95.04,104.38-180.65,164.02-261.53Z"/>
      <path class="cls-88" d="m1838.73,604c39.54,14.03,82.55,57.11,100.16,86.87,1.26,2.14,2.45,4.29,3.29,6.37-6.84-2.75-13.71-5.85-20.51-9.29-16.54-8.35-32.56-18.54-48.48-28.66-18.57-11.82-15.92-16.39-36.57-23.76-22.51-8.03-15.15,44.82-.23,68.47-27.86-32.42-48.81-118.16,2.33-100.01Z"/>
      <g>
        <path class="cls-8" d="m1999.5,513.93c12.92-120.01,19.04-240.61,24.48-361.2-48.36,102.84-81.18,214.14-84.48,327.69-3.12,107.52,21.46,217.25,78.15,308.37-7.67-63.85-25.03-210.93-18.15-274.87Z"/>
        <path class="cls-35" d="m2024.06,152.56c-.03.05-.05.11-.08.17-5.44,120.59-11.56,241.19-24.48,361.2-6.88,63.94,10.48,211.01,18.15,274.87,2.81-9.71,4.16-20.13,5.33-30.15,13.11-113.06,25.74-226.43,26.52-340.25.6-89.18-6.21-178.9-25.44-265.84Z"/>
      </g>
      <g>
        <path class="cls-100" d="m2145.96,440.29c23.76-103.46,40.23-206.83,54.83-309.85,0,0-173.62,528.81-175,665.47,53.99-112.22,92.3-234.28,120.17-355.62Z"/>
        <path class="cls-80" d="m2027.42,536.41c-16.29,91.02-9.23,176.55-1.62,259.5,1.38-136.66,175-665.47,175-665.47-65.26,106.31-125.32,220.63-159.13,343.9-5.65,20.62-10.54,41.38-14.24,62.07Z"/>
      </g>
      <path class="cls-42" d="m1887.24,528.27c-9.05-19.12-66.56-70.74-76.44-52.27-17.3,32.36-33.47,65.03-49.23,97.76,51.75-44.71,65.02-59.97,92.32,4.58,4.56,10.8,9.51,21.39,14.94,31.56,23.89,44.71,55.96,79.13,87.4,112.26-14.85-66.64-39.8-132.19-68.99-193.88Z"/>
      <path class="cls-13" d="m2112.17,595.58c7.2-11.37,47.53-39.51,52.34-27.08,8.42,21.78,16.09,43.67,23.5,65.56-29.22-32.26-36.41-42.93-58.66-4.27-3.72,6.46-7.67,12.77-11.88,18.77-18.56,26.39-41.48,45.64-63.91,64.12,14.55-40.93,35.4-80.4,58.62-117.1Z"/>
      <path class="cls-95" d="m1918.28,419.96c-23.91-69.49-56.62-135.58-90.02-201.04-6.87-13.46-13.78-26.92-20.72-40.34.29,2.5.58,5,.87,7.5,6.33,54.74,12.67,109.56,23.76,163.54,19.66,95.66,54.02,187.6,89.02,278.78,21.86,56.93,44.14,113.97,73.22,167.51-2.92-32.73-8.34-65.26-13.75-97.7-15.65-93.87-31.42-188.25-62.38-278.24Z"/>
    </g>
    <g>
      <g>
        <path class="cls-40" d="m2192.21,931.21c28.27-97.18,27.82-149.31,27.16-250.52h-209.78v365.73h90.5c43.45-45.76,74.36-54.17,92.12-115.22Z"/>
        <path class="cls-40" d="m1826.98,931.21c-28.27-97.18-27.82-149.31-27.16-250.52h209.78v365.73h-90.5c-43.45-45.76-74.36-54.17-92.12-115.22Z"/>
        <path class="cls-12" d="m1919.11,1046.43h181c43.45-45.76,74.36-54.17,92.12-115.22,21.44-73.69,26.36-121.49,27.19-184.4-6.61,57.05-26.79,113.47-89.02,164.19-25.82,21.05-66.35,42.53-120.78,47.78h0c-7.05.68-14.32,1.1-21.83,1.2-41.7.54-80.19-8.8-112.83-19.32-17.78-5.73-34.66-11.91-50.53-18.49.83,2.97,1.69,5.99,2.58,9.04,17.76,61.05,48.67,69.46,92.12,115.22Z"/>
      </g>
      <rect class="cls-37" x="1790.08" y="671.49" width="443.26" height="20.47"/>
    </g>
  </g>
  <g>
    <g>
      <path class="cls-20" d="m466.59,2328.45c5.35-75.34,6.09-151.34,5.35-227.51-.73-76.19-2.95-152.6-3.52-229.16-.57-76.53.5-153.27,6.52-229.68,5.99-76.37,17.02-152.45,35.99-226.49-15.46,74.85-22.85,150.98-25.24,227.08-2.4,76.14.11,152.31,4.25,228.42,4.14,76.13,9.94,152.26,14.27,228.74,4.33,76.47,7.22,153.34,5.38,230.61l-43.01-2.03Z"/>
      <path class="cls-20" d="m479.49,1982.28c-24.29-23.23-45.58-49.31-63.88-77.14-18.31-27.83-33.67-57.38-46.55-87.82-12.88-30.46-23.3-61.82-31.78-93.61-8.48-31.79-15.02-64.03-20.03-96.44,6.63,32.12,14.76,63.91,24.76,95.05,10,31.13,21.87,61.62,36.04,90.92,14.16,29.29,30.63,57.39,49.72,83.46,19.07,26.06,40.78,50.05,65.01,70.99l-13.29,14.59Z"/>
      <path class="cls-20" d="m484.92,2078.07c26.42-24.64,49.95-52.58,69.7-83.04,19.72-30.41,35.47-63.6,44.1-98.87,8.63-35.3,9.84-72.32,7.19-108.95-2.63-36.7-8.91-73.17-15.29-109.53,7.99,36.05,15.91,72.2,20.21,109.07,4.31,36.79,4.84,74.55-2.47,111.53-7.31,36.95-22.13,72.14-41.14,104.52-19.01,32.4-42.09,62.47-68.52,89.41l-13.78-14.13Z"/>
      <path class="cls-72" d="m488.45,1570.1c.8-.29-39.14-81.87-91.12-181.5-51.98-99.63-77.88-186.41-77.08-186.7-.8.29,39.14,81.88,91.12,181.5,51.98,99.63,77.88,186.41,77.08,186.7Z"/>
      <path class="cls-60" d="m492.46,1543.97c1.51-.1-20.74-91.78-53.35-204.54-32.62-112.77-28.16-206.16-26.65-206.26-1.52.1,20.74,91.78,53.35,204.55,32.61,112.77,28.16,206.16,26.65,206.26Z"/>
      <path class="cls-26" d="m490.18,1555.65c.93-.24-34.77-96.82-81.98-215.14-47.21-118.32-66.48-219.15-65.55-219.39-.94.24,34.76,96.82,81.98,215.14,47.21,118.32,66.48,219.15,65.55,219.39Z"/>
      <path class="cls-72" d="m487.58,1552.68c.03.39,40.31-68,111.82-133.21,71.18-65.56,142.81-99.74,142.42-99.82.12.23-64.08,44.82-133.85,109.18-70.18,63.9-120.19,123.98-120.4,123.85Z"/>
      <path class="cls-60" d="m484.53,1595.2c0,.51,61.51-83.5,163.37-159.27,101.48-76.28,199.45-111.53,198.96-111.67.13.3-89.5,50.13-188.98,125.01-99.95,74.24-173.09,146.13-173.35,145.92Z"/>
      <path class="cls-26" d="m614,1811.03c.33.45-.69-113.23,38.99-246.04,39-133.01,101.73-227.82,101.2-227.63.31.19-45.6,102.31-83.76,232.79-39.01,130.23-56.06,240.89-56.43,240.88Z"/>
      <path class="cls-72" d="m865.98,1508.12c1.64.24-106.71-45.45-222.06.95-116.83,42.51-166.94,148.9-165.89,147.62-1.66,2.93,35.84-114.77,160.52-161.64,124.1-48.4,230.63,14.14,227.43,13.07Z"/>
      <path class="cls-60" d="m832.55,1468.53c1.42.32-90.19-46.67-193.93-13.72-104.78,29.46-155.5,119.06-154.49,118.01-1.65,2.45,38.8-97.85,150.73-130.6,111.52-34.13,200.42,27.46,197.7,26.31Z"/>
      <path class="cls-26" d="m784.96,1259.26c1.59-.43-114.87,1.13-201.1,89.03-89.12,84.96-92.35,201.39-91.9,199.81-.34,3.33-13.06-118.36,81.47-210.39,93.38-93.19,214.87-78.74,211.54-78.44Z"/>
      <path class="cls-72" d="m603.92,1769.96c.15.89,15.73-81.09,77.95-158.51,61.58-77.93,138.01-111.42,137.12-111.36.36.22-68.04,43.91-127.24,119.23-60.21,74.51-87.53,150.94-87.83,150.64Z"/>
      <path class="cls-60" d="m610.35,1767.49c.52.64-25.08-72.16-11.26-162.97,13.06-90.92,58.64-153.2,57.95-152.74.4,0-34.03,66.71-46.4,154.45-13.56,87.56.08,161.37-.29,161.27Z"/>
      <path class="cls-26" d="m490.02,1551.58c.17,1.09,20.34-99.01,97.53-192.9,76.4-94.53,170.38-134.46,169.29-134.4.44.27-83.85,52.81-157.3,144.17-74.69,90.36-109.15,183.51-109.51,183.13Z"/>
      <path class="cls-72" d="m631.21,1264.96c.67,1.03-36.56,49.03-78.32,107.8-42.85,59.01-59.57,117.91-58.87,117.99,1.1.68,11.63-60.16,46.18-127.33,34.56-68.07,91.05-99.42,91.01-98.47Z"/>
      <path class="cls-60" d="m390.71,1496.09c.72.65-17.89,44.64-37.77,97.72-20.66,53.49-21.49,101.61-20.93,101.54.97.29-3.3-48.06,9.41-106.07,12.54-58.69,49.14-93.91,49.29-93.18Z"/>
      <path class="cls-26" d="m379.43,1296.85c1.37.99-22.71,81.24-47.28,177.57-25.87,97.2-18.15,181.28-17.21,181.04,1.75.33-14.89-83.19-3.76-186.75,10.7-104.74,67.83-173.11,68.25-171.86Z"/>
      <path class="cls-72" d="m318.74,1654.23c-.14,1.28,2.79-51.79,47.71-91.47,44.66-39.97,97.72-36.68,96.43-36.69.23.05-48.31,9.26-88.25,45.89-41.05,35.38-55.87,82.5-55.89,82.27Z"/>
      <path class="cls-60" d="m322.6,1651.21c.43,1.81-21.26-71.53,20.43-147.02,41.19-75.76,114.67-96.95,112.92-96.34.33-.04-60.98,35.9-97.39,104.85-38.51,67.79-35.81,138.81-35.95,138.51Z"/>
      <path class="cls-72" d="m491.12,1515.99c-.27,1.21,7.99-49.07,54.88-82.27,46.68-33.5,96.91-24.91,95.68-25.05.21.07-46.99,3.86-88.83,34.66-42.76,29.5-61.74,72.88-61.73,72.66Z"/>
      <path class="cls-72" d="m362.1,1790.82c-1,.1-1.14-107.55,2.1-240.7,3.24-133.15-14.55-239-15.55-238.89,1-.1,1.15,107.55-2.1,240.7-3.24,133.15,14.55,239,15.55,238.89Z"/>
      <path class="cls-60" d="m612.59,1839.82c-.9-.48,60.32-91.52,138.91-202.18,78.6-110.65,123.87-210.23,122.97-210.71.91.49-60.32,91.52-138.91,202.18-78.59,110.66-123.87,210.23-122.97,210.71Z"/>
      <path class="cls-26" d="m332.06,1701.62c-.86.27-20.97-94.31-42.84-211.92-21.87-117.62-57.15-207.33-58.01-207.06.86-.27,20.97,94.31,42.84,211.92,21.87,117.62,57.15,207.33,58.01,207.06Z"/>
      <path class="cls-72" d="m483.93,1583.62c-.17.51-34.23-103.59-111.34-212.65-76.56-109.44-163.02-176.7-162.47-176.68-.23.26,73.13,79.37,148.14,186.76,75.7,106.9,125.35,202.69,125.67,202.56Z"/>
      <path class="cls-60" d="m602.8,1736.26c-.32.45-2.14-111.12-44.36-240.45-41.58-129.54-105.48-221.02-104.96-220.84-.3.19,47.29,99.25,87.97,226.34,41.5,126.82,60.99,234.98,61.35,234.96Z"/>
      <path class="cls-26" d="m609.17,1809.35c-.17.31-9.05-71.9-45.35-152.85-35.89-81.13-83.64-136.03-83.28-135.95-.19.15,37.5,61.1,72.65,140.69,35.66,79.36,55.76,148.15,55.99,148.11Z"/>
      <path class="cls-72" d="m345.76,1637.8c-1.39-.38,100.46,1.24,175.69,78.31,77.76,74.5,80.32,176.33,79.93,174.95.29,2.91,11.68-103.49-70.78-184.18-81.47-81.71-187.75-69.34-184.84-69.07Z"/>
      <path class="cls-60" d="m219.22,1454.34c-1.26-.11,86.91-14.58,163.85,40.22,78.73,52.19,96.81,139.69,96.26,138.56.71,2.47-6.05-91.15-89.8-147.96-83.05-57.84-172.87-30.59-170.31-30.82Z"/>
      <path class="cls-26" d="m19.31,1455.58c-1.54-.21,107.86-12.79,199.33,59.23,93.82,68.93,110.89,177.72,110.28,176.29.73,3.08-2.03-112.56-101.77-187.47-98.81-76.13-210.99-47.92-207.84-48.04Z"/>
      <path class="cls-72" d="m605.9,1757.49c-.05.81-21.63-71.47-84.73-135.33-62.57-64.39-134.38-87.43-133.58-87.47-.3.23,65.24,33.2,125.42,95.46,61.02,61.44,92.65,127.64,92.89,127.34Z"/>
      <path class="cls-60" d="m486.47,1727.59c-.02,1.04-31.77-90.36-116.25-168.62-83.82-78.96-177.16-104.43-176.13-104.52-.38.31,85.48,38.84,166.13,115.22,81.68,75.27,125.96,158.31,126.25,157.91Z"/>
      <path class="cls-26" d="m831.62,1659.55c.83.04-73.01,22.85-137.84,88.11-65.36,64.73-88.28,138.53-88.32,137.7.24.31,33.38-67.16,96.59-129.42,62.36-63.11,129.88-96.15,129.57-96.39Z"/>
      <path class="cls-72" d="m169.9,1532.3c-.39,1.02,41.4,35.69,89.21,78.86,48.83,43.17,74.83,91.31,74.23,91.52-.82.81-21.81-50.23-64.97-102.12-43.35-52.68-98.71-69.08-98.48-68.26Z"/>
      <path class="cls-60" d="m422.65,1609.2c-.6,1.28,49.67,50.15,106.83,110.57,58.46,60.52,87.05,125.13,86.26,125.34-1.15.96-22.98-66.87-73.26-138.04-50.45-72.21-120.04-98.94-119.83-97.86Z"/>
      <path class="cls-26" d="m33.85,1512.18c-.17,1.63,73.41,36.15,158.92,80.71,86.98,44.18,142.76,104.16,141.98,104.68-.89,1.48-50.49-64.57-132.54-123.53-82.62-60.02-168.99-62.97-168.36-61.86Z"/>
      <path class="cls-72" d="m471.25,1699.37c-.3,1.71,16.08-67.82-26.74-136.05-42.39-68.5-112.02-84.42-110.35-83.94-.31-.02,58.75,30.29,96.32,92.69,39.46,61.21,40.67,127.58,40.78,127.3Z"/>
      <path class="cls-60" d="m326.43,1676.17c.5,1.94-15.9-79.13-93.96-130.2-77.74-51.56-158.7-34.62-156.72-34.92-.34.13,76.47,3.44,146.18,50.92,71.14,45.3,104.52,114.56,104.5,114.2Z"/>
      <path class="cls-26" d="m343.14,1736.19c1.01,1.65-36.7-68.63-122.98-94.04-86.11-25.97-156.15,12.21-154.4,11.38-.27.21,71.55-18.1,149.12,6.32,78.28,22.03,128.37,76.67,128.26,76.34Z"/>
    </g>
    <g>
      <g>
        <path class="cls-28" d="m482.49,2146.14v210.57h50.74c67.23-17.49,115.94-69,115.94-129.82,0-30.23-12.04-58.15-32.39-80.75h-134.3Z"/>
        <path class="cls-28" d="m482.5,2146.14v210.57h-50.74c-67.23-17.49-115.94-69-115.94-129.82,0-30.23,12.04-58.15,32.39-80.75h134.3Z"/>
        <path class="cls-55" d="m431.76,2356.71h101.48c67.23-17.49,115.94-69,115.94-129.82,0-21.26-5.96-41.37-16.56-59.29-5.09,39.94-19.91,79.36-63.5,114.89-18.52,15.09-47.58,30.51-86.62,34.27h0c-5.06.49-10.27.79-15.66.86-29.9.39-57.51-6.31-80.92-13.85-20.47-6.59-39.27-14.03-56.11-22.13,19.1,35.57,56.24,63.19,101.94,75.08Z"/>
      </g>
      <rect class="cls-55" x="341.03" y="2140.37" width="278.39" height="8.78"/>
    </g>
  </g>
  <g>
    <g>
      <path class="cls-71" d="m2243.92,1798.62c-8.97-6.27-19.52-9.89-30.08-12.82-10.49-2.91-21.6-5.21-32.18-2.63-9.99,2.44-18.44,9.04-25.3,16.78,4.23,5.5,9.81,9.97,16.01,13.11,8.59,4.35,18.31,6.21,27.93,6.12,3.61-.03,7.22-.34,10.75-1.03,12.76-2.49,23.93-9.94,32.87-19.54Z"/>
      <path class="cls-105" d="m1727.09,1352.68c9.12,15.41,22.39,27.95,36.14,39.46,13.66,11.43,28.67,22.4,46.17,25.7,16.54,3.13,33.6-.98,49.07-7.87-2.58-11.05-7.87-21.5-14.99-30.38-9.85-12.29-23.07-21.65-37.47-28.03-5.4-2.39-10.98-4.38-16.72-5.75-20.7-4.93-42.38-1.4-62.2,6.86Z"/>
      <path class="cls-33" d="m2318.83,1913.96c3.54-.85,7.07-1.73,10.6-2.67-11.1-20.56-23.77-40.23-39.49-57.45-12.15-13.31-26.35-25.22-43.15-31.75-20.67-8.04-44.28-7.27-65.1.37-18.57,6.82-34.96,18.87-48.15,33.66,5.13,16.52,12.97,32.01,26.08,42.95,6.48,5.41,14,9.47,21.77,12.77,21.46,9.09,45.05,12.49,68.36,12.09,23.3-.41,46.41-4.52,69.07-9.97Z"/>
      <path class="cls-96" d="m2073.61,1762.16c10.88-18.72,13.65-40.88,12.81-62.71-13.01,6.32-25.63,13.45-37.04,22.31-14.44,11.21-26.94,25.38-34.16,42.18-6.51,15.18-8.47,31.95-7.54,48.5,10.51-4.36,20.79-9.25,30.42-15.28,14.22-8.91,27.08-20.49,35.51-35Z"/>
      <path class="cls-29" d="m1914.66,1280.11c-8.81,32.54-13.39,66.72-8.42,100.06,2.64,17.66,8.03,35.11,17.68,50.12,8.39,13.05,20.16,24.18,34.18,30.68,6.83-6.24,12.77-13.64,18.39-21.04,18.29-24.11,35-50.14,42.92-79.33,9.97-36.73,5.22-76.49-8.74-111.9-11.2-28.4-28.05-54.23-47.6-77.77-21.57,33.64-37.97,70.6-48.41,109.17Z"/>
      <path class="cls-108" d="m1853.34,1258.29c-3.22,11.89-4.89,24.38-3.07,36.56.96,6.45,2.93,12.83,6.46,18.32,3.06,4.77,7.37,8.83,12.49,11.21,2.5-2.28,4.67-4.98,6.72-7.69,6.68-8.81,12.79-18.32,15.68-28.99,3.64-13.42,1.91-27.94-3.19-40.89-4.09-10.38-10.24-19.81-17.39-28.41-7.88,12.29-13.87,25.8-17.69,39.89Z"/>
      <path class="cls-113" d="m1718.7,1506.22c7.51,27.9,25.36,52.71,46.54,72.71,26.42,24.96,59.01,43.98,94.59,51.38,31.95,6.65,66.31,3.42,95.49-10.94-7.11-30.63-27.08-58-52.47-76.96-29.69-22.16-66.16-33.77-102.82-39.16-12.8-1.88-25.72-3.05-38.65-2.84-14.39.23-28.74,2.21-42.68,5.82Z"/>
      <path class="cls-21" d="m1949.17,1812.54c-27.29-34.99-60.76-66.35-100.54-85.53,1.34,28.99,5.72,57.84,13.05,85.91,2.97,11.39,6.44,22.69,11.45,33.33,11.04,23.46,29.5,43.16,51.52,56.84,20.36,12.64,43.66,20.22,67.46,23.05-2.33-27.95-7.8-55.34-20.66-80.06-6.21-11.92-14.02-22.94-22.29-33.54Z"/>
      <path class="cls-70" d="m2054.65,1465.59c8.69-5.95,16.54-13.05,23.78-20.7,19.68-20.8,34.87-45.83,44.34-72.85-18.41-.73-36.92.14-54.9,4.06-20.36,4.43-40.07,12.9-56.05,26.27-2.85,2.38-5.57,4.91-8.04,7.68-9.77,10.94-15.22,25.21-17.72,39.67-2.34,13.45-2.29,27.18-1.97,40.85,25.13-3.73,49.76-10.74,70.57-24.98Z"/>
      <path class="cls-106" d="m2093.11,1575.57c-8.83-13.29-20.15-25.15-33.52-33.73-4.75,13.79-8.53,27.91-11.3,42.24-1.37,7.08-2.49,14.23-2.81,21.43-1.06,23.79,7.01,47.88,22.17,66.24,13.83,16.74,33.46,28.58,54.68,33.14,5.65-22.65,2.05-47.38-4.1-70.25-5.58-20.76-13.23-41.18-25.13-59.07Z"/>
      <path class="cls-112" d="m2360.09,1589.84c-43.38-8.25-89.34-2.42-129.24,16.51-6.4,3.04-12.64,6.4-18.59,10.24-22.56,14.57-40.34,35.84-53.08,59.48-11.5,21.34-19.06,44.61-24.29,68.31,18.81,5.83,38.32,9.44,57.97,10.68,28.67,1.82,58.6-1.7,83.29-16.39,13.4-7.97,24.82-18.98,34.44-31.25,26.46-33.73,39.03-75.74,49.5-117.58Z"/>
      <path class="cls-10" d="m2048.12,2011.64c-1.11-94.85,29.41-189.08,85.08-264.64,55.7-75.54,136.06-131.77,225.07-158.2-88.11,29.3-165.66,87.78-217.73,163.44-52.07,75.66-78.43,168.15-74.39,258.9l-18.04.5Z"/>
      <path class="cls-10" d="m2039.66,2032.03c-17.38-67.71-31.83-136.13-43.58-204.97-11.75-68.84-20.8-138.07-27.6-207.49-13.61-138.86-18.29-278.28-19.16-417.56,3.88,139.22,11.57,278.43,28.13,416.58,8.27,69.06,18.78,137.83,31.94,206.05,13.16,68.22,28.99,135.88,47.69,202.72l-17.43,4.67Z"/>
      <path class="cls-10" d="m2128.92,1757.73c-6.57-37.28-15.64-74.16-26.93-110.36-11.37-36.17-24.91-71.74-41.88-105.74,17.77,33.58,32.19,68.9,44.45,104.89,12.18,36.04,22.17,72.84,29.68,110.21l-5.32.99Z"/>
      <path class="cls-10" d="m1962.77,1506.87c10.73-14.25,23.63-26.33,36.88-37.76,13.31-11.4,27.17-22.05,41.13-32.54,13.96-10.48,28.04-20.78,41.88-31.38,13.8-10.64,27.48-21.49,39.93-33.74-12.12,12.57-25.55,23.8-39.09,34.8-13.58,10.98-27.4,21.64-41.06,32.47-13.66,10.83-27.2,21.81-40.1,33.45-12.84,11.65-25.23,23.94-35.17,37.86l-4.4-3.15Z"/>
      <path class="cls-10" d="m1976.95,1643.63c-52.32-54.56-118.35-96.19-190.59-119.92,72.78,22.01,140.21,62.2,194.45,116.13l-3.86,3.79Z"/>
      <path class="cls-10" d="m2036.75,2026.39c-25.24-50.43-50.46-100.71-78.82-149.27-28.33-48.51-59.89-95.37-97.23-137.7,39.55,40.28,73.82,85.69,104.9,132.95,31.11,47.3,59.17,96.5,87.06,145.52l-15.91,8.5Z"/>
      <path class="cls-10" d="m2078.87,1855.74c70.19-2.8,140.74,11.35,204.07,40.73-64.06-27.73-134.56-39.89-203.78-35.32l-.28-5.41Z"/>
      <path class="cls-10" d="m2001.46,1820.72c15.83-31.81,34.25-62.25,55-90.93-19.25,29.69-36.02,60.91-50.09,93.21l-4.9-2.29Z"/>
      <path class="cls-10" d="m1962.05,1521.06c-9.32-18.37-21.16-35.46-34.75-51.05-13.59-15.58-28.93-29.67-45.44-42.23-16.51-12.57-34.19-23.63-52.53-33.43-18.35-9.8-37.37-18.35-56.75-25.98,19.54,7.21,38.77,15.35,57.38,24.78,18.61,9.43,36.61,20.15,53.52,32.45,16.91,12.3,32.73,26.19,46.86,41.71,14.12,15.51,26.57,32.65,36.51,51.24l-4.8,2.5Z"/>
      <path class="cls-10" d="m2097.82,1805.56c41.34-8.91,83.86-11.72,125.75-8.4-42-1.52-84.09,3.13-124.5,13.67l-1.25-5.27Z"/>
      <path class="cls-10" d="m1899.16,1443.62c-28.46-60.69-38.6-129.47-29.1-195.27-7.72,66.04,4.35,133.98,33.96,192.91l-4.87,2.37Z"/>
    </g>
    <g>
      <path class="cls-19" d="m2177.04,2052.72c-11.57-8.55-24.68-14.49-35.71-23.88-11.03-9.39-20.12-23.7-18.75-39h-77.19v366.87h69.59c32.14-1.15,62.27-21.34,81.96-49.41,19.69-28.06,29.73-63.25,33.2-98.53,2.86-29.05,1.44-58.93-6.97-86.64-8.4-27.71-24.14-53.15-46.13-69.41Z"/>
      <path class="cls-19" d="m1913.74,2052.72c11.57-8.55,24.68-14.49,35.71-23.88,11.03-9.39,20.12-23.7,18.75-39h77.19v366.87h-69.59c-32.14-1.15-62.27-21.34-81.96-49.41-19.69-28.06-29.73-63.25-33.2-98.53-2.86-29.05-1.44-58.93,6.97-86.64,8.4-27.71,24.14-53.15,46.13-69.41Z"/>
      <path class="cls-23" d="m2151.72,2276.2c-22.62,19.2-58.3,38.81-106.32,43.18h0c-5.48.5-11.12.81-16.93.89-36.04.49-69.3-7.92-97.51-17.39-18.14-6.08-35.2-12.74-51.03-19.88,3.98,8.52,8.59,16.68,13.94,24.29,19.69,28.06,49.82,48.26,81.96,49.41h139.18c32.14-1.15,62.27-21.34,81.96-49.41,19.69-28.06,29.73-63.25,33.21-98.53,2.29-23.34,1.82-47.21-2.81-70.06-6.9,47.83-25.44,94.89-75.62,137.49Z"/>
    </g>
  </g>
  <g>
    <g>
      <g>
        <path class="cls-15" d="m1471.66,859.07c31.91-109.7,31.41-225.84,30.65-340.09h-236.8v527.46h102.16c49.05-51.66,83.94-118.45,103.99-187.36Z"/>
        <path class="cls-15" d="m1059.37,859.07c-31.91-109.7-31.41-225.84-30.65-340.09h236.8v527.46h-102.16c-49.05-51.66-83.94-118.45-103.99-187.36Z"/>
        <path class="cls-65" d="m1163.37,1046.43h204.32c49.05-51.66,83.94-118.45,103.99-187.36,17.96-61.74,25.66-125.53,28.81-189.87-9.15,59.59-33.47,118.2-98.6,171.28-29.15,23.76-74.9,48.02-136.35,53.94h0c-7.96.77-16.16,1.24-24.64,1.35-47.08.62-90.53-9.94-127.38-21.81-19.55-6.3-38.13-13.09-55.65-20.3.5,1.8,1,3.61,1.52,5.4,20.05,68.91,54.94,135.7,103.99,187.36Z"/>
      </g>
      <rect class="cls-66" x="1019.58" y="510.04" width="490.61" height="25.68"/>
    </g>
    <g>
      <path class="cls-111" d="m1600.07,563.69c-15.86-15.9-33.03-30.5-51.27-43.59-46.43-33.32-101.4-57.12-158.55-57.96-49.05-.72-99.51,17.42-133.15,52.45,31.92-10.71,64.55-19.47,98.06-19.67,52.87-.31,103.33,20.64,151.51,42.45,41.71,18.88,83.31,38.85,119.99,66.23,7.85,5.86,15.4,12.03,22.72,18.44-15.03-20.62-31.27-40.28-49.31-58.36Z"/>
      <path class="cls-27" d="m1389.56,416.5c-43-5.84-90.62,7.1-117.24,41.38-9.89,12.73-16.65,28.39-16.36,44.51.16,9.14,2.85,18.36,7.72,26.06-2.16-27.29,17.63-54.79,43.13-66.82,28.88-13.62,62.58-11.71,94.06-6.36,56.04,9.53,109.47,28.93,159.92,54.98-17.14-14.5-34.94-28.27-53.46-41.2-35.59-24.83-74.75-46.72-117.76-52.56Z"/>
      <path class="cls-75" d="m1388.25,507.17c-9.79-16.23-23.53-30.84-41.25-37.56-23.03-8.73-49.99-2.54-69.82,12.07-9.74,7.18-17.9,16.14-24.7,26.15,11.47-.65,23.12.97,33.87,4.85,29.52,10.65,52.22,35.78,65.46,64.24,13.24,28.45,17.94,60.13,19.96,91.44,4.48,69.46-3.51,138.4-17.58,206.63,33.92-83.46,60.32-169.69,59.52-259.09-.34-37.68-5.98-76.48-25.45-108.74Z"/>
      <path class="cls-76" d="m1440.84,367.98c-33.52-11.05-71.09-7.76-103.27,6.76-32.18,14.52-58.99,39.78-77.6,69.78-6.27,10.11-11.77,21.15-12.44,33.03-.53,9.32,1.95,18.54,4.85,27.42,2.56,7.82,5.49,15.53,8.73,23.1-.3-39.9,18.12-79.79,49.22-104.9,34.53-27.89,83.57-36.67,125.63-22.5,24.85,8.37,46.71,23.96,66.07,41.65,64.22,58.68,102.79,140.07,132.46,221.84,6.97,19.22,13.53,38.6,19.62,58.13-18.18-92.44-54.4-181.37-106.82-259.68-26.92-40.21-60.51-79.48-106.46-94.63Z"/>
      <path class="cls-94" d="m1527.02,632.66c-6.96-66.89-38.52-136.43-99.04-165.75-36.69-17.78-81.29-18.35-118.42-1.51-23.88,10.83-44.31,28.38-60.06,49.43,6.05-2.59,12.39-4.53,18.79-5.82,20.56-4.14,41.84-2.3,62.57.88,37.44,5.75,75.93,16.77,103.14,43.13,29.56,28.62,41.28,70.93,46.69,111.73,11.81,89.13-.71,178.15-22.85,265.82,44.3-94.77,79.89-195.06,69.19-297.9Z"/>
      <path class="cls-79" d="m1273.35,429.63c-5.55-36.48-26.49-70.35-56.65-91.62-33.76-23.81-77.41-31.27-118.32-25.41-40.91,5.85-79.25,24.16-113.18,47.74-20.75,14.43-39.99,30.81-58.52,48.02,40.73-15.64,82.98-26.11,126.62-28.23,51.43-2.49,105.09,7.64,146.63,38.07,34.8,25.5,59.26,66.97,60.47,109.47,10.84-31.7,17.95-65.12,12.93-98.04Z"/>
      <path class="cls-107" d="m1066.4,371.78c-37.9,7.29-70.25,33.63-91.5,65.85-21.25,32.22-32.52,69.99-40.19,107.82-17.43,86-17.49,174.44-9.79,262.05,8.49-94.88,24.24-189.36,62.97-275.95,8.82-19.72,18.93-39.12,33-55.52,14.07-16.4,32.47-29.72,53.5-34.65,17.39-4.08,35.66-2.27,53.11,1.56,52.44,11.53,99.82,42.53,133.22,84.47-15.35-40.84-35.5-80.56-66.58-111.02-33.5-32.83-81.67-53.48-127.74-44.62Z"/>
      <path class="cls-104" d="m1148.18,467.25c-50.01-1.24-100.07,21.88-131.55,60.77-14.42,17.81-24.96,38.47-33.57,59.71-20.67,50.98-30.43,105.84-30.56,160.9,32.52-82.79,86.56-156.58,160.04-206.06,37.62-25.33,82.93-44.02,127.38-44.19-26.67-19.05-58.95-30.31-91.73-31.13Z"/>
      <path class="cls-4" d="m1219.08,502.34c-20.4,10.42-33.22,31.29-42.68,52.15-31.21,68.93-36.3,147.27-28.43,222.54,5.44,52.1,16.8,103.28,29.11,154.26-.33-1.94-.66-3.88-.98-5.81-18.79-113.71-13.43-231.34,15.63-342.87,6.54-25.11,15.41-51.61,36.1-67.28,12.17-9.21,27.29-13.69,42.34-16.24.66-.11,1.32-.21,1.98-.31-17.91-5-36.62-4.85-53.07,3.55Z"/>
      <path class="cls-39" d="m1223.96,488.28c-10.64-1.14-21.39,1.88-30.97,6.67-20.98,10.5-36.72,28.91-51.75,46.92-14.13,16.95-28.23,34.06-39.43,53.07-13.22,22.44-22.15,47.09-31.02,71.58-10.31,28.51-20.64,57.07-27.88,86.51-10.03,40.81-13.99,82.77-16.91,124.74,32.28-99.27,73.67-195.58,123.54-287.29,18.9-34.75,40.5-70.36,74.76-90.12,4.76-2.74,10.17-5.03,15.7-6.44-4.77-3.1-10.38-5.04-16.05-5.65Z"/>
      <path class="cls-78" d="m1253.01,390.62c-23.65,22.9-30.19,60.01-20.97,91.61,2.91,9.96,7.2,19.4,12.55,28.22,6.71,4.91,13.92,9.2,21.41,12.77-10.98-29.95-11.1-64.01,1.4-93.42,13.54-31.85,39.78-56.91,69.01-75.45,19.76-12.53,40.98-22.42,62.49-31.72-36.06,12.42-71.44,26.84-105.86,43.05-14.29,6.74-28.69,13.94-40.04,24.94Z"/>
      <path class="cls-30" d="m1376.13,816.85c11.57-62.33,14.77-126.6,13.04-190.04-.79-29-2.99-59.36-18.31-83.99-16.89-27.17-48.79-43.58-80.78-44.07-13.13-.2-26.16,2.14-38.51,6.55-1.67,1.01-3.31,2.06-4.93,3.15,10.12-2.03,20.45-2.86,30.8-2.2,32.86,2.08,65.52,20.85,79.02,50.89,6.47,14.41,8.35,30.4,9.82,46.13,3.54,37.88,5.06,76.05,4.46,114.19.69,11.21,1.22,22.44,1.86,33.63,1.25,21.86,2.9,43.83,3.53,65.74Z"/>
      <path class="cls-9" d="m1463.24,648.48c-10.17-64.32-46.12-128.33-105.72-154.59-14.5-6.39-30.27-10.43-46.09-9.67-24.91,1.2-47.2,14.32-64.17,32.97,10.59-7.73,22.42-13.67,35.07-17.2,30.81-8.6,66.06-1.92,89.96,19.34,21.67,19.28,32.4,47.77,41.38,75.35,19.66,60.35,34.82,122.88,41.42,185.93,1.34,4.09,2.64,8.19,3.88,12.3,7.44-48.09,11.83-96.59,4.27-144.42Z"/>
    </g>
    <rect class="cls-66" x="1236.67" y="510.04" width="36.53" height="20.72"/>
  </g>
</svg>