<?xml version="1.0" encoding="UTF-8"?>
<svg id="_Layer_" data-name="&amp;lt;Layer&amp;gt;" xmlns="http://www.w3.org/2000/svg" xmlns:xlink="http://www.w3.org/1999/xlink" viewBox="0 0 589.93 909.07">
  <defs>
    <style>
      .cls-1 {
        fill: url(#linear-gradient-12);
      }

      .cls-1, .cls-2, .cls-3, .cls-4, .cls-5, .cls-6, .cls-7, .cls-8, .cls-9, .cls-10, .cls-11, .cls-12, .cls-13, .cls-14, .cls-15, .cls-16, .cls-17, .cls-18, .cls-19 {
        stroke-width: 0px;
      }

      .cls-2 {
        fill: url(#linear-gradient);
      }

      .cls-3 {
        fill: #774f38;
      }

      .cls-4 {
        fill: url(#linear-gradient-6);
      }

      .cls-5 {
        fill: url(#linear-gradient-15);
      }

      .cls-6 {
        fill: url(#linear-gradient-11);
      }

      .cls-7 {
        fill: url(#linear-gradient-5);
      }

      .cls-8 {
        fill: url(#linear-gradient-13);
      }

      .cls-9 {
        fill: url(#linear-gradient-16);
      }

      .cls-10 {
        fill: url(#linear-gradient-14);
      }

      .cls-11 {
        fill: url(#linear-gradient-2);
      }

      .cls-12 {
        fill: url(#linear-gradient-7);
      }

      .cls-13 {
        fill: url(#linear-gradient-3);
      }

      .cls-14 {
        fill: url(#linear-gradient-9);
      }

      .cls-15 {
        fill: url(#linear-gradient-8);
      }

      .cls-16 {
        fill: #de8c78;
      }

      .cls-17 {
        fill: #6a4631;
      }

      .cls-18 {
        fill: url(#linear-gradient-10);
      }

      .cls-19 {
        fill: url(#linear-gradient-4);
      }
    </style>
    <linearGradient id="linear-gradient" x1="212.43" y1="540.69" x2="303.88" y2="540.69" gradientUnits="userSpaceOnUse">
      <stop offset="0" stop-color="#89ab5b"/>
      <stop offset="1" stop-color="#498736"/>
    </linearGradient>
    <linearGradient id="linear-gradient-2" x1="-807.63" y1="-3634.91" x2="-859.88" y2="-3657.3" gradientTransform="translate(-2712.94 2783.8) rotate(64.03)" gradientUnits="userSpaceOnUse">
      <stop offset="0" stop-color="#89ab5b"/>
      <stop offset=".35" stop-color="#47772a"/>
      <stop offset="1" stop-color="#498736"/>
    </linearGradient>
    <linearGradient id="linear-gradient-3" x1="-847.08" y1="-3676.67" x2="-765.97" y2="-3676.67" gradientTransform="translate(-2712.94 2783.8) rotate(64.03)" xlink:href="#linear-gradient"/>
    <linearGradient id="linear-gradient-4" x1="-771.9" y1="-3621.57" x2="-809.94" y2="-3641.52" gradientTransform="translate(-2712.94 2783.8) rotate(64.03)" xlink:href="#linear-gradient"/>
    <linearGradient id="linear-gradient-5" x1="119.57" y1="485.28" x2="330.43" y2="485.28" xlink:href="#linear-gradient"/>
    <linearGradient id="linear-gradient-6" x1="17.42" y1="277.46" x2="83.58" y2="354.12" gradientTransform="translate(51.84 -14.53) rotate(8.22)" xlink:href="#linear-gradient"/>
    <linearGradient id="linear-gradient-7" x1="103.05" y1="334.8" x2="145.09" y2="384.26" gradientTransform="translate(51.84 -14.53) rotate(8.22)" xlink:href="#linear-gradient"/>
    <linearGradient id="linear-gradient-8" x1="166.25" y1="407.02" x2="341.3" y2="407.02" xlink:href="#linear-gradient"/>
    <linearGradient id="linear-gradient-9" x1="150.92" y1="139.33" x2="77.88" y2="21.94" gradientTransform="translate(6.76 -10.97) rotate(3.97)" xlink:href="#linear-gradient"/>
    <linearGradient id="linear-gradient-10" x1="206.85" y1="203.77" x2="142.99" y2="99.76" gradientTransform="translate(6.76 -10.97) rotate(3.97)" xlink:href="#linear-gradient"/>
    <linearGradient id="linear-gradient-11" x1="293.69" y1="539.21" x2="448.69" y2="539.21" xlink:href="#linear-gradient"/>
    <linearGradient id="linear-gradient-12" x1="356.66" y1="434.2" x2="590.41" y2="434.2" gradientTransform="translate(32.8 -34.41) rotate(4.31)" xlink:href="#linear-gradient"/>
    <linearGradient id="linear-gradient-13" x1="562.75" y1="369.73" x2="478.42" y2="434.86" gradientTransform="translate(32.8 -34.41) rotate(4.31)" xlink:href="#linear-gradient"/>
    <linearGradient id="linear-gradient-14" x1="287.48" y1="426.95" x2="461.69" y2="426.95" xlink:href="#linear-gradient"/>
    <linearGradient id="linear-gradient-15" x1="471.7" y1="108.58" x2="383.28" y2="187.65" gradientTransform="translate(-8.86 32.18) rotate(-4.12)" xlink:href="#linear-gradient"/>
    <linearGradient id="linear-gradient-16" x1="544.63" y1="70.23" x2="479.13" y2="139.46" gradientTransform="translate(-8.86 32.18) rotate(-4.12)" xlink:href="#linear-gradient"/>
  </defs>
  <g>
    <g>
      <path class="cls-2" d="m286.25,636.94l-22.25-148.82c-1.54-10.31-4.05-21.3-10.98-24.66-5.95-2.89-13.75.04-22.78,3.42-4.39,1.65-8.93,3.36-13.64,4.48l-4.17-17.32c3.64-.88,7.48-2.32,11.55-3.84,11.24-4.22,23.98-9,36.82-2.77,16.32,7.92,19.36,28.28,20.83,38.06l22.25,148.82-17.63,2.64Z"/>
      <g>
        <path class="cls-11" d="m240.54,451.95c.13-.06.26-.12.39-.18,3.3-6.94,5.47-14.36,3.07-21.43-3.43-10.11-15.54-15.26-26.12-13.82-10.58,1.43-19.77,7.93-27.77,15-14.52,12.84-26.88,28.62-33.65,46.71.11.05.22.09.33.14,18.42-8.11,37.84-13.98,57.68-17.37,5.17-.88,10.41-1.61,15.32-3.44,3.24-1.2,7.09-3.86,10.73-5.6Z"/>
        <path class="cls-13" d="m240.8,452.04c.05-.09.09-.19.13-.28-.13.06-.26.12-.39.18.09.03.18.06.26.1Z"/>
        <path class="cls-19" d="m248.75,487c5.63-5.97,7.39-15.29,4.34-22.9-2.2-5.48-6.81-9.86-12.28-12.05-.08-.04-.17-.06-.26-.1-3.64,1.74-7.49,4.39-10.73,5.6-4.92,1.83-10.16,2.56-15.32,3.44-19.84,3.39-39.26,9.26-57.68,17.37,10.09,4.09,19.98,8.8,30.23,12.52,15.92,5.77,33.7,9.05,49.68,3.44,4.47-1.57,8.78-3.87,12.03-7.32Z"/>
      </g>
    </g>
    <g>
      <path class="cls-7" d="m303.25,728.53l-17.53-3.2c13.53-74.08,27.52-150.69,26.86-226.98-.73-84.21-20.52-158.56-57.24-215.03-5.47-8.41-11.66-16.74-19.82-20.59-5.41-2.55-12.22-3.41-20.24-2.54-32.31,3.5-57.35,29.49-82.26,58.11l-13.45-11.7c26.24-30.15,55.09-59.94,93.78-64.13,11.33-1.23,21.35.16,29.77,4.14,12.18,5.75,20.25,16.37,27.16,26.99,38.57,59.32,59.36,136.99,60.12,224.59.67,77.98-13.47,155.43-27.15,230.34Z"/>
      <g>
        <path class="cls-4" d="m101.98,323.65c13.35-11.58,26.84-23.22,42.31-31.77,6.75-3.73,14.08-7.1,20.79-11.08.35-8.85-2.65-17.83-8.49-24.5-11.33-12.95-30.43-15.75-47.59-14.53-22.56,1.6-44.85,8.79-63.41,21.71-.76.53-1.5,1.08-2.25,1.63,14.05.28,28.07,1.71,41.87,4.39,5.14.99,10.59,2.34,14.15,6.18,3.56,3.84,3.99,10.98-.47,13.74-3.54,2.2-8.15.73-11.92-1.07-12.91-6.13-24.25-15.43-37.63-20.46-2.26-.85-4.56-1.56-6.88-2.15-11.25,8.43-20.9,19.04-28.05,31.1,3.81-.46,7.64-.81,11.47-.94,7.2-.24,14.57.13,21.27,2.75,6.71,2.62,12.71,7.81,14.85,14.68.55,1.76.8,3.77-.12,5.36-1.14,1.96-3.78,2.62-6,2.15-2.22-.47-4.14-1.81-6.02-3.09-11.49-7.81-24.21-14.19-37.86-16.65-2.63,4.98-4.84,10.18-6.57,15.56-11.52,35.86-1.15,74.58-1.32,112.28,4.02-9.55,10.34-18.27,16.96-26.36,23.89-29.2,52.41-54.21,80.91-78.94Z"/>
        <path class="cls-12" d="m244.1,299.87c-.18-11.47-5.48-23.2-15.18-29.32-11.74-7.4-27.14-5.42-40.14-.59-8.41,3.12-16.39,7.36-23.75,12.5.05-.55.04-1.1.06-1.66-6.71,3.98-14.04,7.35-20.79,11.08-15.46,8.55-28.96,20.19-42.31,31.77-28.5,24.73-57.01,49.74-80.91,78.94-6.62,8.09-12.94,16.82-16.96,26.36,0,.86.02,1.72,0,2.58,13.15-15.83,30.77-27.91,50.28-34.46,21.11-7.09,43.73-7.7,65.88-10.01,13.43-1.4,26.87-3.47,39.92-6.88.56-3.25,1.53-6.87,1.54-9.15.02-5.35-.67-10.68-2.29-15.78-4.38-13.71-15.07-24.61-20.19-38.06-1.47-3.86-2.02-9.13,1.5-11.29,1.32-.81,2.95-.95,4.49-.86,11.2.67,18.69,11.83,22.5,22.39,3.28,9.09,5.15,18.68,5.64,28.33.25,4.97.84,13.38-.06,20.41,3.43-1.19,6.84-2.45,10.19-3.88,17.81-7.61,34.27-19.09,46.01-34.4.12-1.33.21-2.65.18-3.99-.12-6.3-2.26-12.83-7.04-16.92-6.17-5.28-15.07-5.44-22.82-7.86-4.98-1.56-9.64-4.14-13.6-7.55-1.51-1.3-3.01-2.87-3.29-4.85-.37-2.56,1.51-5.05,3.86-6.13,2.35-1.08,5.05-1.05,7.63-.78,16.18,1.66,31.19,12.09,38.4,26.67,1.76,3.57,3.03,7.42,3.37,11.37,4.83-8.59,8.03-18.17,7.88-27.98Z"/>
      </g>
    </g>
    <g>
      <path class="cls-15" d="m317.65,763.68c-7-75.68-2.92-152.62,1.01-227.02,1.74-32.81,3.53-66.73,4.35-100.02,2.25-92.07-1.79-210.98-53.42-314.19-8.93-17.86-20.54-37.54-38.9-48.06-15.38-8.82-39.01-9.3-50.37,5.31l-14.06-10.94c17.46-22.44,50.98-22.62,73.3-9.82,22.6,12.96,36.44,36.49,45.98,55.55,53.39,106.73,57.59,228.47,55.29,322.6-.82,33.54-2.62,67.59-4.37,100.53-3.91,73.77-7.94,150.05-1.06,224.44l-17.75,1.64Z"/>
      <g>
        <path class="cls-14" d="m174.63,79.48c4.79-3.52,9.59-7.04,14.49-10.42,1.46-1.01,2.97-1.96,4.45-2.95-.28-.02-.57-.01-.86-.03,4.13-5.35,2.78-12.96,3.03-18.99-.41-7.1-2.48-14.07-6.07-20.18-1.65-2.56-3.48-4.95-5.46-7.19.48,1.84.8,3.34.91,3.97.75,4.39,1.5,8.88.83,13.28-.66,4.41-2.99,8.81-6.97,10.81-2.03-3.94-.44-8.66.4-13.01.98-5.03.88-10.27-.24-15.27-.39-1.73-1.54-4.25-2.09-6.64C166.21,4.07,152.66-.63,139.18.07c6.48,3.37,12.09,8.43,15.96,14.63,5.56,8.92,7.5,20.03,5.28,30.31-1.69-.06-2.52-2.05-2.93-3.7-3.04-12.27-6.54-25.59-16.61-33.23-3.51-2.66-7.62-4.47-11.52-6.53-6,1.54-11.84,4.22-17.27,8.2-4.96,3.73-9.49,7.88-13.66,12.33.13,0,.26.02.39.02,5.25.29,10.63.19,15.58,1.96,4.2,1.51,7.82,4.27,11.31,7.05,5.5,4.39,10.99,9.07,14.55,15.14,3.57,6.07,4.92,13.87,1.83,20.19-.29.59-.65,1.2-1.26,1.44-1.49.61-2.7-1.31-3.25-2.82-3.63-10.04-10.44-18.93-19.29-24.91-7.91-5.33-17.08-8.23-26.43-10.43-7.02,9-12.62,19-16.76,29.57,5.02-1.63,10.12-3.13,15.38-3.3,5.44-.18,10.82,1.08,16.03,2.63,6.69,2,13.32,4.56,18.93,8.71,5.61,4.16,10.17,10.06,11.57,16.91.39,1.92.32,4.35-1.39,5.33-.86.5-1.92.47-2.89.32-7.28-1.13-12.03-7.94-17.63-12.73-7.46-6.38-17.27-9.49-27.03-10.45-5.17-.51-10.36-.45-15.55-.14-2.8,8.67-4.65,17.62-5.54,26.63,1.89-1.01,3.85-1.86,5.93-2.38,4.31-1.08,8.83-.73,13.25-.25,11.12,1.2,22.37,3.24,32.29,8.39,2.1,1.09,4.42,2.84,4.18,5.2-.18,1.81-1.94,3.14-3.74,3.46-1.79.33-3.63-.11-5.41-.49-15.68-3.34-32.23-2.41-47.46,2.59-.18,3.22-.34,6.45-.49,9.67-.14,3.07-.3,6.13-.48,9.19,9.81-5.56,20.91-9.06,32.14-8.65,2.35.08,5.31.89,5.61,3.22.26,2.04-1.77,3.57-3.59,4.51-11.02,5.67-24.28,7.49-35.1,12.95-.8,7.8-2.06,15.51-4.29,23.03.13.05.27.09.4.14,31.97-23.82,64.1-47.42,96.25-71,6.05-4.44,12.1-8.88,18.15-13.31Z"/>
        <path class="cls-18" d="m230.15,95.42c2.9-.76,5.99-.26,8.86.6,7.04,2.11,13.33,6.49,17.95,12.2.27-3.42.37-6.96.26-10.66-1.02-4.26-2.87-8.41-5.72-12.37-2.95-4.9-6.8-8.57-11.25-11.32-4.45-2.74-9.49-4.56-14.8-5.75-5.02-2.11-10.4-2.42-15.93-2.31-5.25.11-10.63.59-15.96.3-1.48.99-2.99,1.93-4.45,2.95-4.89,3.38-9.69,6.9-14.49,10.42-6.05,4.44-12.1,8.88-18.15,13.31-32.15,23.58-64.28,47.18-96.25,71,5.72,2.05,11.51,3.91,17.35,5.57,3.25.93,6.53,1.78,9.81,2.59,8.4-9.17,16.03-19.05,22.71-29.53.9-1.41,1.84-2.88,3.3-3.7,1.45-.82,3.58-.71,4.48.7.35.55.47,1.21.54,1.85.61,6.05-2.92,11.67-6.45,16.62-3.89,5.44-8.03,10.81-13.36,14.84-.64.49-1.31.95-1.98,1.4,6.41,1.77,13.22,3.27,20.3,4.44,8.92-8.95,15.79-19.95,19.8-31.94,1.11-3.32,2.03-6.77,3.91-9.73,1.88-2.96,4.97-5.42,8.47-5.48,2.5,13.38-4.44,26.51-11.14,38.35-1.86,3.27-3.78,6.64-6.74,8.96-.72.56-1.48,1.03-2.27,1.47,8.4.9,17.01,1.34,25.62,1.22.85-1.06,1.69-2.12,2.5-3.21,7.06-9.4,12.7-20.12,14.71-31.71.35-2.03.63-4.18,1.84-5.86,1.21-1.68,3.72-2.63,5.39-1.42.89.65,1.34,1.74,1.61,2.81,1.24,4.98-.58,10.14-2.37,14.95-3.06,8.2-6.33,16.68-11.19,23.85,13.19-1.06,26.08-3.57,37.8-7.81-2.01-9.68-5.61-18.94-8.54-28.39-.53-1.71-1.05-3.51-.79-5.28.26-1.78,1.52-3.54,3.3-3.78,1.08-.15,2.16.27,3.08.85,4.6,2.89,5.62,9.04,6.07,14.45.58,6.85.94,13.85.58,20.73,10.31-4.16,19.6-9.75,27.23-17.03-.29-2.27-.75-4.51-1.5-6.69-3.52-10.26-12.37-17.62-18.66-26.46-.71-1-1.42-2.28-.92-3.4.67-1.47,2.77-1.41,4.32-.96,11.71,3.39,19.11,14.95,23.32,26.39.33.89.62,1.79.93,2.69,6.7-8.94,11.31-19.82,13.11-32.91-9.47-6.53-21.37-8.31-32.35-11.86.51-2.95,3.17-5.21,6.07-5.96Z"/>
      </g>
    </g>
    <g>
      <path class="cls-6" d="m311.16,762.3l-17.47-3.51c10.85-54.07,16.34-110.23,21.64-164.53,6.75-69.11,13.73-140.57,31.83-209.09,4.11-15.56,9.46-33.36,21.03-47.57,13.57-16.68,33.89-24.66,51.75-20.33,10.97,2.67,20.81,11.08,25.66,21.96,4.27,9.57,4.11,19.87-.41,28.28l-15.69-8.45c2.58-4.8,1-9.93-.18-12.57-2.61-5.86-7.95-10.53-13.59-11.9-12.76-3.09-26.13,4.93-33.72,14.26-9.33,11.47-13.82,26.48-17.63,40.87-17.73,67.13-24.64,137.86-31.32,206.27-5.35,54.75-10.87,111.36-21.91,166.31Z"/>
      <g>
        <path class="cls-1" d="m471.2,428.48c-7.67-19.51-15.77-38.96-20.84-59.31-1.1-4.42-2.04-8.9-2.82-13.4-3.46,4.99-4.67,4.27-9.83-.69-5.27-5.07-8.43-11-15.15-14.59-12.53-6.7-28.06-3.26-38.84,5.26-10.09,7.98-16.53,19.77-20.78,31.91-5.97,17.03-7.67,36.26-3.56,53.65,9.5-16.52,24.15-30.11,41.58-37.86,3.67-1.63,8.51-2.81,11.27.11,3.26,3.46.38,9.28-3.42,12.14-6.7,5.05-15.58,6.27-22.7,10.71-10.41,6.5-15.63,19.21-16.21,31.47-.12,2.51-.03,5.01.15,7.5,1.25,1.78,2.57,3.51,4.03,5.16,5.01,5.68,11.01,10.41,17.21,14.77,1.55,1.09,3.13,2.12,4.7,3.17-.96-10.04-.04-20.24,3.31-29.73,5.01-14.21,15.66-26.65,29.58-32.43,1.88-.78,4.16-1.4,5.83-.25,1.19.82,1.7,2.31,1.91,3.73.74,5.16-1.72,10.3-5,14.34-3.29,4.04-7.41,7.33-10.89,11.21-9.36,10.47-13.46,25.03-12.67,39.06.03.54.11,1.07.16,1.6,8.81,5.02,17.97,9.43,27.4,13.15-1.53-5.14-2.03-10.65-1.62-16.01.74-9.71,4.11-19.02,7.98-27.97,1.46-3.39,3.83-7.29,7.52-7.17,3.56.11,5.74,3.99,6.5,7.48,2.88,13.25-4.14,26.44-6.19,39.85-.44,2.86-.57,5.75-.54,8.63,1.05.33,2.09.7,3.14,1.01,18.65,5.59,39.58,9.57,52.3,24.04-1.74-11.95-5.57-23.75-9.5-35.23-7.52-21.95-15.54-43.73-24.03-65.33Z"/>
        <path class="cls-8" d="m589.36,414.5c-10.79-9.74-24.89-15.81-39-19.96-17.63-5.2-35.99-8-53.1-14.73.39-4.38,5.81-6.14,10.2-6.47,18.05-1.36,36.01,3.7,52.73,10.64,8.7,3.61,17.17,7.74,25.66,11.82-4.29-16.11-11.56-31.49-20.12-45.87-1.86-3.14-3.84-6.26-5.94-9.3-11.5.48-22.92,3.18-33.32,8.14-6.76,3.22-13.99,7.47-21.24,5.58-1.15-.3-2.34-.82-2.92-1.86-.38-.67-.44-1.47-.43-2.23.09-6.15,4.53-11.59,9.92-14.54,5.39-2.96,11.64-3.88,17.75-4.59,7.45-.87,15.19-1.42,22.55-.36-5.39-6.03-11.59-11.15-18.96-14.44-6.1-2.72-12.76-4.07-19.43-4.39-13.51-.65-27.16,3.03-38.64,10.16-13.8,8.56-18.42,19.89-26.87,32.68-.23.35-.45.68-.67.99.77,4.5,1.71,8.98,2.82,13.4,5.07,20.35,13.16,39.79,20.84,59.31,8.49,21.6,16.5,43.38,24.03,65.33,3.93,11.48,7.76,23.28,9.5,35.23.46.52.93,1.03,1.37,1.58,10.26-9.99,22.75-17.44,34.85-25.26-2.98-7.6-7.26-14.78-12.23-21.28-8.73-11.45-19.4-21.25-29.39-31.63-1.92-1.99-3.88-4.11-4.68-6.76-.8-2.65-.05-5.98,2.39-7.28,2.82-1.5,6.23.27,8.84,2.11,15.57,11.01,27.61,26.44,36.97,43.06,2.81,4.99,5.37,10.09,7.8,15.27,7.21-5.07,13.98-10.58,19.74-17.19-6.15-15.89-17.83-29.43-31.26-40.08-15.24-12.09-32.77-20.9-50.06-29.82-3.09-1.6-6.72-4.36-5.69-7.69.82-2.64,4.08-3.52,6.83-3.67,8.66-.48,17.21,2.04,25.28,5.2,27.22,10.67,51.19,29.25,68.7,52.65,5.14-13.79,6.69-29.06,5.14-43.77Z"/>
      </g>
    </g>
    <g>
      <path class="cls-10" d="m317.88,820.7c-34.68-138.75-31.59-286.39-28.85-416.64,1.79-85.8,3.84-183.05,21.37-275.53,3.51-18.53,8.19-39.85,19.29-58.25,12.62-20.92,32.39-34.66,52.89-36.76,37.16-3.81,67.05,29.01,79.12,61.11l-16.68,6.27c-9.74-25.91-32.86-52.5-60.62-49.65-14.96,1.53-29.7,12.09-39.44,28.24-9.57,15.87-13.82,35.36-17.04,52.37-17.26,91.02-19.28,187.48-21.06,272.58-2.71,129.14-5.77,275.51,28.32,411.95l-17.29,4.32Z"/>
      <g>
        <path class="cls-5" d="m431.89,70.47c-7.85-10.37-18.39-18.53-29.7-24.81-11.01-6.12-23.94-10.71-36.08-7.34-8.9,2.47-16.28,9.07-21.05,16.98-.39.65-.74,1.32-1.1,1.98,1.29-.26,2.58-.48,3.88-.64,15.33-1.89,30.81,1.9,45.4,6.99,2.18.76,4.82,2.31,4.36,4.57-.47,2.34-3.66,2.66-6.03,2.34-11.64-1.58-22.92-5.36-34.58-6.74-5.28-.62-10.79-.68-16.06.14-2.13,5.63-3.44,11.59-4.25,17.57-.87,6.44-1.16,12.9-.95,19.34,4.78-3.23,10.2-5.8,15.49-7.91,12.72-5.09,27.33-9.01,39.82-3.38.74.34,1.51.73,1.96,1.4,1.63,2.39-1.68,5.07-4.43,5.96-13.47,4.38-28.11,5.39-40.67,11.96-3.88,2.03-7.47,4.59-10.68,7.55,2.3,14.3,7.05,28.24,13.75,41.26,6.3-15.06,16.37-28.56,29.14-38.75,4.09-3.26,8.85-6.32,14.08-6.16,5.23.16,10.52,5.03,9.21,10.1-.65,2.52-2.67,4.42-4.61,6.16-11.97,10.67-24.64,20.62-35.52,32.39-2.12,2.3-4.18,4.68-6.13,7.13,5,8,10.76,15.55,17.13,22.5,7.73-20.22,17.9-40.11,35.97-51.48,2.2-1.38,5-2.63,7.26-1.36,3.8,2.13,1.63,7.94-1.06,11.36-11.19,14.18-24.94,26.73-32.58,43.1-.88,1.89-1.65,3.83-2.34,5.8,2.16,2.06,4.37,4.06,6.65,5.98,7.02,5.95,14.5,11.25,22.33,15.98.03-.66.03-1.33.08-1.99.46-6.19,1.84-12.28,3.45-18.28,3.93-14.66,9.8-29.74,21.79-39.06.88-.69,2.15-1.35,3.05-.68.53.4.69,1.1.8,1.75,1.37,7.86,1.02,16.01-1,23.73-2.33,8.87-6.81,17.09-8.85,26.03-1.36,5.96-1.56,12.04-1.19,18.13,6.05,2.82,12.24,5.36,18.56,7.59-1.54-6.16-2.77-12.38-3.28-18.71-.92-11.62.75-23.76,6.85-33.68,1.47-2.4,3.32-4.75,5.93-5.81,2.61-1.06,6.11-.34,7.36,2.18.79,1.61.54,3.52.17,5.28-1.99,9.6-6.55,18.45-9.54,27.79-2.48,7.76-3.68,16.16-3.31,24.35,5.56,1.84,11.2,3.46,16.9,4.87-.59-2.15-1.15-4.31-1.65-6.48-1.95-8.53-2.76-17.75.64-25.82.35-.84.86-1.76,1.74-1.99,1.4-.36,2.51,1.18,3.01,2.54,2.47,6.74,1.2,14.18.99,21.36-.12,3.91.11,7.82.65,11.69,10.62,2.36,21.42,4.02,32.24,5.01-21.01-57.95-43.48-115.36-67.41-172.17-2.19-.26-4.77-5.18-6.61-7.61Zm-17.85,19.69c-.62-.17-1.26-.4-1.74-.83-1.12-1.01-1.07-2.89-.2-4.12.87-1.22,2.35-1.88,3.82-2.19,3.26-.7,6.79.07,9.5,2.01-.14,1.3-.08,2.63.17,3.91-3.51,1.84-7.74,2.29-11.56,1.21Zm19.89,15.3c-.58,1.68-2.42,2.55-4.11,3.09-1.22.4-2.54.72-3.78.42-1.26-.29-2.41-1.38-2.35-2.67.04-.73.44-1.4.96-1.92,2.08-2.1,4.58-2.54,7.48-2.09.06.01.13,0,.19.02,1.12.33,2.04,1.88,1.61,3.14Z"/>
        <path class="cls-9" d="m554.84,100.46c-8.66-1.99-17.63-2.61-26.47-1.73-13.2,1.32-26.89,5.8-39.34,1.21-3.87-1.43-7.98-5.4-6.07-9.06.59-1.14,1.67-1.93,2.76-2.62,6.37-4.02,14.01-5.42,21.5-6.27,13.4-1.52,26.96-1.49,40.35.04-6.38-13.14-14.93-25.45-24.78-36.56-9.43-.47-18.94.73-27.93,3.65-10.25,3.33-19.68,8.75-29.16,13.87-4.65,2.51-10.88,4.8-14.73,1.18-2.58-2.42-2.72-6.54-1.68-9.93,2.58-8.42,10.63-13.83,18.46-17.89,7.08-3.66,14.43-6.8,21.98-9.36,3.5-1.19,7.13-2.23,10.78-2.89-7.73-6.2-16.2-11.49-25.78-13.67-12.22-2.79-26.58.59-33.65,10.94-6.26,9.15-5.6,21.28-3.67,32.19.93,5.28,5.44,17.36,3.34,22.46-.66,1.6-1.43,2.13-2.25,2.04,23.92,56.81,46.4,114.22,67.41,172.17,3.58.33,7.16.59,10.74.77.58.03,1.21.05,1.7-.26.56-.36.81-1.04,1.02-1.68,2.97-9.04,6.68-17.89,10.62-26.67-3.56-9.29-9.7-17.44-18.37-22.18-5.28-2.89-11.79-4.92-14.31-10.38-.25-.54-.45-1.14-.32-1.71.21-.95,1.2-1.48,2.13-1.74,3.46-.99,7.18.09,10.43,1.63,10.86,5.17,18.39,15.15,24.38,25.75,3.52-7.59,7.09-15.14,10.41-22.75-3.8-5.75-8.73-10.74-14.53-14.47-8.89-5.73-19.31-8.47-29.2-12.22-2.32-.88-4.69-1.86-6.48-3.59-1.79-1.73-2.89-4.39-2.1-6.76,1.53-4.61,8.07-4.6,12.7-3.15,17.62,5.52,31.72,18.22,42.43,33.54,4.51-10.95,8.31-22.04,10.47-33.49-1.89-2.48-3.92-4.87-6.12-7.08-7.96-8-18.26-13.96-29.45-15.43-8.87-1.16-17.91.49-26.8-.46-2.28-.25-4.68-.73-6.36-2.3-1.68-1.57-2.22-4.54-.55-6.11,1.02-.97,2.52-1.17,3.92-1.27,12.84-.97,25.67,2.08,37.82,6.33,7.4,2.59,14.7,5.66,21.14,10.14,2.81,1.96,5.37,4.18,7.8,6.54.22-2.17.38-4.35.46-6.55.42-11.7-1.29-23.17-4.64-34.22Zm-94.4-.64c-1.74-.24-3.78-.68-4.5-2.29-1.04-2.32,1.77-4.72,4.31-4.77,1.59-.03,3.12.43,4.67.83,1.25-.2,2.53-.03,3.57.68,1.88,1.28,2.22,4.53.31,5.76-1.16.74-2.65.58-4.01.4-1.45-.2-2.9-.4-4.35-.6Zm17.08,28.65c-.65.54-1.5.8-2.34.94-2.64.45-5.58-.25-7.33-2.28-1.74-2.03-1.85-5.45.13-7.25,1.41-1.28,3.39-1.5,5.34-1.49.65.37,1.27.84,1.84,1.32,1.33,1.11,2.63,2.36,3.27,3.98.63,1.62.42,3.67-.91,4.78Z"/>
      </g>
    </g>
  </g>
  <g>
    <g>
      <g>
        <polygon class="cls-3" points="412.79 902.38 495.84 635.88 311.74 635.88 311.05 635.88 311.05 902.38 311.74 902.38 412.79 902.38"/>
        <rect class="cls-16" x="311.05" y="591.08" width="192.79" height="44.8"/>
      </g>
      <g>
        <polygon class="cls-3" points="209.32 902.38 126.27 635.88 310.37 635.88 311.06 635.88 311.06 902.38 310.37 902.38 209.32 902.38"/>
        <rect class="cls-16" x="118.27" y="591.08" width="192.79" height="44.8"/>
      </g>
      <path class="cls-17" d="m310.39,902.38h102.41l83.05-266.5h-20.12c-3.38,53-17.15,106-74.87,153.05-19.7,16.06-49.81,32.43-89.79,38.18h0c-8.74,1.26-17.94,2.02-27.62,2.14-34.33.45-66.02-7.24-92.89-15.9-3.38-1.09-6.71-2.19-10-3.32l28.78,92.36h101.05Z"/>
    </g>
    <rect class="cls-3" x="200.73" y="893.46" width="220.7" height="15.6"/>
  </g>
</svg>