<svg width="29" height="28" viewBox="0 0 29 28" fill="none" xmlns="http://www.w3.org/2000/svg">
<path d="M24.5105 5.49206H20.4979V4.22632C20.4979 3.44304 20.1691 2.69184 19.5838 2.13797C18.9986 1.58411 18.2047 1.27295 17.377 1.27295H12.0269C11.1992 1.27295 10.4054 1.58411 9.82011 2.13797C9.23483 2.69184 8.90602 3.44304 8.90602 4.22632V5.49206H4.89344C4.5387 5.49206 4.1985 5.62541 3.94766 5.86278C3.69683 6.10015 3.55591 6.4221 3.55591 6.75779C3.55591 7.09348 3.69683 7.41543 3.94766 7.6528C4.1985 7.89017 4.5387 8.02352 4.89344 8.02352H5.33928V22.3685C5.33928 22.928 5.57414 23.4646 5.9922 23.8602C6.41026 24.2558 6.97727 24.478 7.56849 24.478H21.8355C22.4267 24.478 22.9937 24.2558 23.4117 23.8602C23.8298 23.4646 24.0647 22.928 24.0647 22.3685V8.02352H24.5105C24.8652 8.02352 25.2054 7.89017 25.4563 7.6528C25.7071 7.41543 25.848 7.09348 25.848 6.75779C25.848 6.4221 25.7071 6.10015 25.4563 5.86278C25.2054 5.62541 24.8652 5.49206 24.5105 5.49206ZM11.5811 4.22632C11.5811 4.11443 11.628 4.00711 11.7117 3.92799C11.7953 3.84887 11.9087 3.80441 12.0269 3.80441H17.377C17.4953 3.80441 17.6087 3.84887 17.6923 3.92799C17.7759 4.00711 17.8229 4.11443 17.8229 4.22632V5.49206H11.5811V4.22632ZM21.3896 21.9466H8.01433V8.02352H21.3896V21.9466ZM13.3644 11.3988V18.1494C13.3644 18.4851 13.2235 18.807 12.9727 19.0444C12.7219 19.2818 12.3817 19.4151 12.0269 19.4151C11.6722 19.4151 11.332 19.2818 11.0811 19.0444C10.8303 18.807 10.6894 18.4851 10.6894 18.1494V11.3988C10.6894 11.0631 10.8303 10.7412 11.0811 10.5038C11.332 10.2664 11.6722 10.1331 12.0269 10.1331C12.3817 10.1331 12.7219 10.2664 12.9727 10.5038C13.2235 10.7412 13.3644 11.0631 13.3644 11.3988ZM18.7146 11.3988V18.1494C18.7146 18.4851 18.5736 18.807 18.3228 19.0444C18.072 19.2818 17.7318 19.4151 17.377 19.4151C17.0223 19.4151 16.6821 19.2818 16.4313 19.0444C16.1804 18.807 16.0395 18.4851 16.0395 18.1494V11.3988C16.0395 11.0631 16.1804 10.7412 16.4313 10.5038C16.6821 10.2664 17.0223 10.1331 17.377 10.1331C17.7318 10.1331 18.072 10.2664 18.3228 10.5038C18.5736 10.7412 18.7146 11.0631 18.7146 11.3988Z" fill="black"/>
</svg>
