<svg width="23" height="25" viewBox="0 0 23 25" fill="none" xmlns="http://www.w3.org/2000/svg">
<path d="M21.0755 5.06298H17.0629V3.79725C17.0629 3.01396 16.7341 2.26276 16.1488 1.7089C15.5636 1.15503 14.7697 0.843872 13.942 0.843872H8.59192C7.76421 0.843872 6.97039 1.15503 6.38511 1.7089C5.79983 2.26276 5.47102 3.01396 5.47102 3.79725V5.06298H1.45844C1.1037 5.06298 0.763499 5.19633 0.512663 5.4337C0.261828 5.67108 0.120911 5.99302 0.120911 6.32871C0.120911 6.66441 0.261828 6.98635 0.512663 7.22372C0.763499 7.46109 1.1037 7.59444 1.45844 7.59444H1.90428V21.9394C1.90428 22.4989 2.13914 23.0355 2.5572 23.4311C2.97526 23.8267 3.54227 24.049 4.13349 24.049H18.4005C18.9917 24.049 19.5587 23.8267 19.9767 23.4311C20.3948 23.0355 20.6297 22.4989 20.6297 21.9394V7.59444H21.0755C21.4302 7.59444 21.7705 7.46109 22.0213 7.22372C22.2721 6.98635 22.413 6.66441 22.413 6.32871C22.413 5.99302 22.2721 5.67108 22.0213 5.4337C21.7705 5.19633 21.4302 5.06298 21.0755 5.06298ZM8.14608 3.79725C8.14608 3.68535 8.19305 3.57804 8.27666 3.49891C8.36027 3.41979 8.47367 3.37534 8.59192 3.37534H13.942C14.0603 3.37534 14.1737 3.41979 14.2573 3.49891C14.3409 3.57804 14.3879 3.68535 14.3879 3.79725V5.06298H8.14608V3.79725ZM17.9546 21.5175H4.57934V7.59444H17.9546V21.5175ZM9.92945 10.9697V17.7203C9.92945 18.056 9.78853 18.3779 9.53769 18.6153C9.28686 18.8527 8.94665 18.986 8.59192 18.986C8.23718 18.986 7.89698 18.8527 7.64614 18.6153C7.39531 18.3779 7.25439 18.056 7.25439 17.7203V10.9697C7.25439 10.634 7.39531 10.3121 7.64614 10.0747C7.89698 9.83735 8.23718 9.704 8.59192 9.704C8.94665 9.704 9.28686 9.83735 9.53769 10.0747C9.78853 10.3121 9.92945 10.634 9.92945 10.9697ZM15.2796 10.9697V17.7203C15.2796 18.056 15.1386 18.3779 14.8878 18.6153C14.637 18.8527 14.2968 18.986 13.942 18.986C13.5873 18.986 13.2471 18.8527 12.9963 18.6153C12.7454 18.3779 12.6045 18.056 12.6045 17.7203V10.9697C12.6045 10.634 12.7454 10.3121 12.9963 10.0747C13.2471 9.83735 13.5873 9.704 13.942 9.704C14.2968 9.704 14.637 9.83735 14.8878 10.0747C15.1386 10.3121 15.2796 10.634 15.2796 10.9697Z" fill="#77C47E"/>
</svg>
